<svg width="40" height="55" viewBox="0 0 40 55" fill="none" xmlns="http://www.w3.org/2000/svg">
<g clip-path="url(#clip0_623_1204)">
<g clip-path="url(#clip1_623_1204)">
<path d="M38.9 54.5H1.1C0.559997 54.5 0.199997 54.14 0.199997 53.6V14C0.199997 13.82 0.379997 13.46 0.379997 13.28L12.98 0.68C13.16 0.68 13.52 0.5 13.7 0.5H38.9C39.44 0.5 39.8 0.86 39.8 1.4V53.6C39.8 54.14 39.44 54.5 38.9 54.5ZM2 52.7H38V2.3H14.06L2 14.36V52.7Z" fill="#6AB1FF"/>
<path d="M13.7 14.9H1.1C0.559997 14.9 0.199997 14.54 0.199997 14C0.199997 13.46 0.559997 13.1 1.1 13.1H12.8V1.4C12.8 0.86 13.16 0.5 13.7 0.5C14.24 0.5 14.6 0.86 14.6 1.4V14C14.6 14.54 14.24 14.9 13.7 14.9Z" fill="#6AB1FF"/>
<path d="M15.5 23.9001H4.69999C4.15999 23.9001 3.79999 23.5401 3.79999 23.0001C3.79999 22.4601 4.15999 22.1001 4.69999 22.1001H15.5C16.04 22.1001 16.4 22.4601 16.4 23.0001C16.4 23.5401 16.04 23.9001 15.5 23.9001Z" fill="#6AB1FF"/>
<path d="M33.5 32.9001H4.69999C4.15999 32.9001 3.79999 32.5401 3.79999 32.0001C3.79999 31.4601 4.15999 31.1001 4.69999 31.1001H33.5C34.04 31.1001 34.4 31.4601 34.4 32.0001C34.4 32.5401 34.04 32.9001 33.5 32.9001Z" fill="#6AB1FF"/>
<path d="M33.5 41.9001H4.69999C4.15999 41.9001 3.79999 41.5401 3.79999 41.0001C3.79999 40.4601 4.15999 40.1001 4.69999 40.1001H33.5C34.04 40.1001 34.4 40.4601 34.4 41.0001C34.4 41.5401 34.04 41.9001 33.5 41.9001Z" fill="#6AB1FF"/>
<path d="M26.3 22.1001C23.96 22.1001 21.98 20.8401 21.8 19.2201C21.8 18.6801 22.16 18.3201 22.52 18.3201C23.06 18.3201 23.42 18.6801 23.42 19.0401C23.42 19.5801 24.68 20.3001 26.12 20.3001C27.56 20.3001 28.82 19.5801 28.82 18.8601C28.82 18.5001 28.28 17.7801 26.12 17.6001H25.94C25.04 17.4201 21.8 16.8801 21.8 14.3601C21.8 12.5601 23.78 11.1201 26.3 11.1201C28.64 11.1201 30.62 12.3801 30.8 14.0001C30.8 14.5401 30.44 14.9001 30.08 14.9001C29.54 15.2601 29 14.9001 29 14.3601C29 13.8201 27.74 13.1001 26.3 13.1001C24.86 13.1001 23.6 13.8201 23.6 14.5401C23.6 14.9001 24.14 15.6201 26.3 15.8001H26.48C27.74 15.9801 30.8 16.5201 30.8 18.8601C30.8 20.6601 28.82 22.1001 26.3 22.1001Z" fill="#6AB1FF"/>
<path d="M26.3 23.9C25.76 23.9 25.4 23.54 25.4 23V10.4C25.4 9.86 25.76 9.5 26.3 9.5C26.84 9.5 27.2 9.86 27.2 10.4V23C27.2 23.54 26.84 23.9 26.3 23.9Z" fill="#6AB1FF"/>
</g>
</g>
<defs>
<clipPath id="clip0_623_1204">
<rect width="40" height="54" fill="white" transform="translate(0 0.5)"/>
</clipPath>
<clipPath id="clip1_623_1204">
<rect width="40" height="54" fill="white" transform="translate(0 0.5)"/>
</clipPath>
</defs>
</svg>
