<svg width="68" height="68" viewBox="0 0 68 68" fill="none" xmlns="http://www.w3.org/2000/svg">
<path d="M35.0852 0.848353C35.3191 0.68561 35.6593 0.581655 35.9491 0.603572C36.2669 0.63669 36.5209 0.699437 36.7811 0.900949C37.1005 1.14892 37.2911 1.4752 37.4454 1.8518C37.5998 2.22841 37.7501 2.59047 37.8653 2.98386C37.9849 3.38227 38.0849 3.78908 38.1804 4.19085C38.3732 4.96585 38.5402 5.77274 38.6463 6.5617C38.754 7.32212 38.8573 8.07751 38.9605 8.8329C39.0314 9.32866 39.1118 9.82497 39.1587 10.3241C39.2384 11.1544 39.3187 11.9753 39.3984 12.8056C39.4492 13.3193 39.5184 13.8436 39.5496 14.3656C39.6363 15.8837 39.7237 17.3921 39.8105 18.9102C39.8333 19.2504 39.8371 19.5894 39.8359 19.933C39.8535 20.8456 39.8615 21.7576 39.8836 22.6752C39.8935 23.3153 39.9028 23.9649 39.9171 24.61C39.9242 25.0543 39.8927 25.5058 39.8758 25.9534C39.8233 27.4871 39.7707 29.0207 39.7182 30.5543C39.7012 31.0019 39.6362 31.4563 39.6002 31.9027C39.5109 32.8472 39.4312 33.7922 39.3419 34.7366C39.2902 35.2872 39.2436 35.8333 39.192 36.3838C39.1481 36.8823 39.0517 37.3825 38.9844 37.8749C38.7747 39.3228 38.565 40.7708 38.3597 42.2238C38.2845 42.7682 38.1523 43.3092 38.0441 43.8469C37.8704 44.7672 37.6921 45.6825 37.5184 46.6029C37.4444 46.966 37.3895 47.3302 37.2965 47.6922C37.2292 47.9412 37.1665 48.1952 37.1043 48.4397C37.779 48.6514 38.4487 48.8676 39.1139 49.0788C40.3833 49.4832 41.6818 49.7986 42.9389 50.25C43.6819 50.5182 44.4433 50.8783 45.0631 51.3731C45.6465 51.8371 46.2153 52.4673 46.4003 53.2133C46.4768 53.5328 46.5181 53.8836 46.4508 54.2137C46.3836 54.5438 46.2716 54.8235 46.0925 55.1088C45.9071 55.4176 45.6245 55.6777 45.3531 55.9098C44.9613 56.2398 44.5337 56.5295 44.1112 56.8147C43.0025 57.5652 41.8536 58.2704 40.7539 59.0309C40.117 59.4705 39.4851 59.9056 38.8483 60.3452C38.241 60.7674 37.6607 61.2199 37.0764 61.6578C36.0701 62.4525 35.0683 63.2523 34.0709 64.0571C33.424 64.5868 32.7619 65.1299 32.0399 65.5549C31.4909 65.8803 30.7853 66.1106 30.1772 65.8217C29.6525 65.5759 29.3466 64.9374 29.3893 64.3768C29.3944 64.2911 29.4045 64.2011 29.4235 64.1211C29.3755 64.0466 29.3369 63.9728 29.3089 63.8804C28.7807 62.4031 28.3263 60.8872 27.7253 59.4295C27.3608 58.5727 26.9324 57.7456 26.4795 56.9313C26.0137 56.1736 25.5434 55.4108 25.0775 54.6531C24.8729 54.3212 24.6385 54.0067 24.4143 53.6832C24.1072 53.226 23.7952 52.7732 23.4837 52.3109C22.5262 50.9085 21.5392 49.5233 20.547 48.1427C20.1214 47.5925 19.6964 47.0328 19.2556 46.4961C18.9396 46.1099 18.6281 45.7288 18.3121 45.3426C18.085 45.0667 17.8535 44.7857 17.6365 44.5009C17.4816 44.296 17.3222 44.0862 17.202 43.8595C17.0817 43.6329 16.9811 43.3978 16.8855 43.1583C16.6166 42.5411 16.8367 41.886 17.4288 41.5583C17.6952 41.4118 17.9884 41.2955 18.2972 41.3185C18.5966 41.341 18.8545 41.4183 19.1348 41.5208C19.4246 41.6238 19.7256 41.6989 20.0154 41.802C20.5804 42.012 21.1499 42.227 21.7144 42.4465C23.0677 42.9657 24.421 43.4848 25.7693 44.0084C28.2611 44.9671 30.7361 45.9678 33.2099 46.9875C33.2424 47.0038 33.2704 47.015 33.3078 47.0267C33.8259 47.2244 34.3395 47.4171 34.8525 47.6192C34.8648 47.5722 34.8771 47.5252 34.8895 47.4782C34.9707 47.1537 35.0374 46.8332 35.1002 46.498C35.2666 45.6202 35.4381 44.7379 35.6097 43.8556C35.7352 43.1853 35.8703 42.5156 35.9958 41.8453C36.0715 41.4537 36.1147 41.0458 36.1714 40.6531C36.3834 39.167 36.5948 37.6905 36.8062 36.214C36.982 34.2916 37.1533 32.3641 37.3291 30.4416C37.3543 30.1759 37.346 29.9129 37.3573 29.6415C37.3833 28.9606 37.4042 28.2841 37.4251 27.6077C37.459 26.6313 37.4923 25.6645 37.5212 24.6926C37.5077 23.3889 37.4751 22.0841 37.457 20.7754C37.4516 20.3026 37.4411 19.8343 37.4357 19.3615C37.4319 18.8601 37.3762 18.3509 37.3484 17.853C37.2799 16.6701 37.2496 15.4895 37.133 14.3134C37.0109 12.9889 36.8793 11.6639 36.7527 10.3345C36.6377 9.53544 36.5323 8.73697 36.4217 7.94297C36.2347 6.58607 35.9845 5.24929 35.6431 3.92143C35.647 3.93598 35.6509 3.95053 35.6554 3.95557C35.6515 3.94102 35.6431 3.92143 35.6442 3.90241C35.6403 3.88786 35.6364 3.87331 35.637 3.8638C35.6364 3.87331 35.6409 3.87835 35.6448 3.8929C35.5934 3.71327 35.5375 3.52861 35.4766 3.34843C35.2293 3.33379 34.9769 3.24251 34.7772 3.06843C34.323 2.67885 34.2304 1.98613 34.5601 1.49498C34.6626 1.29583 34.7841 1.0978 34.9553 0.945663C35.0007 0.905393 35.0454 0.874637 35.0852 0.848353ZM31.3781 58.672C31.6038 58.084 31.8199 57.4954 32.0412 56.9024C32.2332 56.3984 32.4393 55.8999 32.6079 55.3897C33.0168 54.1253 33.4307 52.8564 33.844 51.5971C33.9818 51.0421 34.1242 50.4921 34.267 49.9326C33.5297 49.6504 32.7917 49.3777 32.065 49.077C31.0821 48.6704 30.0941 48.2684 29.1112 47.8618C27.2085 47.1098 25.3097 46.3722 23.4059 45.6392C22.5522 45.3071 21.6979 44.9845 20.8487 44.6575C20.9555 44.7879 21.0578 44.9133 21.1647 45.0437C21.5875 45.5602 21.9902 46.0947 22.3934 46.6197C22.8235 47.1749 23.2189 47.7519 23.6288 48.325C23.9638 48.7934 24.2843 49.2657 24.6142 49.7386C25.41 50.8882 26.1913 52.0416 26.977 53.2001C27.3199 53.6976 27.6179 54.2259 27.9266 54.7357C28.4841 55.6373 29.0031 56.5461 29.4666 57.5042C29.9385 58.4818 30.313 59.4919 30.6725 60.5154C30.9144 59.8949 31.1462 59.2835 31.3781 58.672ZM44.0025 53.8923C44.0282 53.8604 44.054 53.8285 44.0848 53.7921C44.0848 53.7921 44.0803 53.7871 44.0809 53.7776C44.0809 53.7776 44.0809 53.7776 44.0764 53.7726C44.068 53.753 44.0596 53.7334 44.0417 53.7132C44.0244 53.6836 44.0065 53.6634 43.9891 53.6338C43.9131 53.5481 43.837 53.4625 43.7609 53.3769C43.7067 53.3259 43.6519 53.2845 43.5976 53.2336C43.4555 53.1345 43.3129 53.0449 43.1652 52.9598C42.8877 52.8098 42.6142 52.6743 42.321 52.5472C41.728 52.326 41.1238 52.1327 40.519 51.949C39.9327 51.7759 39.3441 51.6409 38.7634 51.4538C38.2576 51.2903 37.7468 51.1312 37.2411 50.9676C37.0022 50.8915 36.7583 50.8198 36.5149 50.7386C36.4034 51.171 36.3014 51.6041 36.1899 52.0365C36.0902 52.4315 35.958 52.8103 35.8303 53.1941C35.4456 54.374 35.0882 55.5746 34.6519 56.7371C34.1927 57.9651 33.7335 59.1931 33.2653 60.411C33.0621 60.9431 32.8593 61.4656 32.6611 61.9932C32.6387 62.0491 32.6208 62.1101 32.5933 62.1705C33.3399 61.5704 34.0821 60.9652 34.8331 60.3701C35.714 59.6778 36.6173 59.0106 37.5162 58.3383C37.9756 57.9932 38.4664 57.6834 38.9343 57.3579C39.3126 57.094 39.6949 56.8446 40.0726 56.5901C41.2798 55.7881 42.5322 55.0271 43.6863 54.1551C43.7518 54.097 43.8267 54.0394 43.8872 53.9857C43.9314 53.9644 43.9622 53.9281 44.0025 53.8923Z" fill="#22547B"/>
</svg>
