<svg width="81" height="80" viewBox="0 0 81 80" fill="none" xmlns="http://www.w3.org/2000/svg">
<path d="M1.04264 38.4722C1.43649 38.037 2.05698 37.8511 2.62283 37.9643C3.1638 38.0145 3.7153 38.0214 4.26307 38.0283C4.4421 38.0306 4.62074 38.0328 4.79848 38.0366C5.06997 38.0458 5.34076 38.0542 5.61108 38.0626C5.9475 38.0731 6.28313 38.0834 6.61843 38.0954C6.79928 38.1018 6.98 38.1086 7.1607 38.1162C8.58909 38.1713 10.0254 38.2077 11.4498 38.2302C13.207 38.2108 14.9595 38.1429 16.713 38.0749C18.4138 38.009 20.1156 37.943 21.8234 37.9212C25.0526 37.8725 28.2928 37.8951 31.5195 37.9177L32.3929 37.9237C35.2094 37.9441 38.0316 37.8873 40.8538 37.8304C41.4826 37.8178 42.1114 37.8052 42.7401 37.7934C46.2421 37.7323 49.7452 37.6587 53.2491 37.572C55.2014 37.5242 57.1656 37.4903 59.122 37.4752C60.6246 37.4627 62.1243 37.4886 63.627 37.5145C64.0064 37.5212 64.3858 37.5277 64.7656 37.5336L64.8133 37.533C64.8312 37.5329 64.8489 37.5329 64.8663 37.5331C64.8947 37.5334 64.9224 37.5343 64.949 37.5362C66.2833 37.5503 67.6144 37.5363 68.9479 37.5222C69.5236 37.516 70.0997 37.5099 70.6767 37.5061C71.4765 37.5023 72.2697 37.5044 73.0627 37.5065L73.103 37.5067C72.5283 36.9927 71.9468 36.4846 71.3644 35.9894C71.1797 35.8333 70.994 35.6782 70.8081 35.5229C70.328 35.1218 69.8469 34.7199 69.3806 34.2989C68.6369 33.6304 67.8921 32.9746 67.1267 32.3366C66.5098 31.8711 65.8987 31.4125 65.2749 30.9529C65.148 30.8588 65.0187 30.766 64.8889 30.673C64.5433 30.4252 64.1948 30.1752 63.8828 29.8939C63.23 29.3031 63.1577 28.2845 63.7426 27.6249C64.3206 26.9712 65.3657 26.888 66.0185 27.4787C66.0788 27.5349 66.146 27.585 66.2123 27.648C66.6399 27.974 67.071 28.2927 67.5017 28.6111C68.3375 29.2291 69.1713 29.8456 69.9734 30.5102C70.3225 30.7956 70.6553 31.0988 70.989 31.403L70.991 31.4048C71.2381 31.63 71.4857 31.8556 71.7407 32.0748C72.3084 32.5633 72.8769 33.042 73.4495 33.5241L73.6948 33.7308C74.4049 34.3354 75.1044 34.9525 75.8038 35.5695C76.3892 36.0859 76.9745 36.6022 77.5656 37.1109C78.0868 37.5628 78.622 38.0868 78.6572 38.8251C78.6913 39.4795 78.3315 40.0173 77.809 40.351C77.7813 40.4584 77.7409 40.5649 77.687 40.6691C77.3704 41.2778 76.9273 41.7673 76.4705 42.2688C76.2173 42.5467 75.9772 42.8256 75.7182 43.0967C75.0812 43.7651 74.4436 44.4341 73.8007 45.0958C72.6267 46.2986 71.5022 47.5309 70.4568 48.8273C69.7698 49.731 69.0856 50.5961 68.1989 51.3236C67.9932 51.4899 67.7799 51.6502 67.5665 51.8106C67.3097 52.0037 67.0528 52.1969 66.8085 52.4006C66.7456 52.5508 66.6571 52.6991 66.5311 52.8316C65.9679 53.4607 64.8873 53.5864 64.2493 52.9709C64.2077 52.9225 64.1652 52.8872 64.1296 52.8458C63.7446 52.3847 63.5477 51.7376 63.7863 51.1359C63.9541 50.7032 64.2238 50.3749 64.5746 50.0849C64.8592 49.8449 65.1523 49.6194 65.4446 49.3948C65.8667 49.0702 66.2869 48.7472 66.6763 48.3836C66.9776 48.064 67.2473 47.7357 67.5249 47.3887C68.5328 46.0766 69.5941 44.8266 70.7484 43.6288C71.0328 43.3341 71.319 43.0406 71.6055 42.7468C72.2562 42.0797 72.908 41.4113 73.5413 40.726C73.3463 40.7264 73.1514 40.7268 72.9565 40.7272L72.9376 40.7272C71.4831 40.7304 70.0301 40.7336 68.5755 40.7562C66.1912 40.7889 63.8124 40.746 61.4462 40.7033L61.3717 40.7019L61.3679 40.7016C61.3648 40.7012 61.3618 40.701 61.3588 40.7009C61.3539 40.7006 61.3499 40.7012 61.3464 40.7018C61.3408 40.7026 61.3368 40.7033 61.3331 40.699L61.3204 40.6981L61.2818 40.6952C57.8429 40.69 54.3912 40.7676 50.9584 40.8531C48.3409 40.9188 45.7251 40.9628 43.1092 41.0069L43.0577 41.0077C42.2018 41.0221 41.3458 41.0365 40.4899 41.0518C37.0264 41.1156 33.5648 41.1538 30.1021 41.1209C26.5682 41.0892 23.0256 41.089 19.495 41.1866C19.0847 41.1987 18.6745 41.2131 18.2644 41.2288C17.73 41.2493 17.1959 41.272 16.6619 41.2948C14.6351 41.3813 12.6096 41.4676 10.5784 41.4303C9.41855 41.4114 8.2603 41.3707 7.10211 41.3302C6.71567 41.3167 6.32923 41.3031 5.94273 41.2904L5.9197 41.2895C5.16138 41.2649 4.4029 41.2402 3.63777 41.2214L3.49258 41.2158L3.38275 41.2111C3.1225 41.2002 2.8641 41.1893 2.60126 41.1891C2.1126 41.1656 1.58146 41.1066 1.21445 40.75C1.19524 40.734 1.17745 40.7168 1.15987 40.6983C1.14689 40.6846 1.13402 40.6702 1.1208 40.655L1.09475 40.6249C0.546547 40.0161 0.492246 39.1021 1.04264 38.4722Z" fill="#808292"/>
<path d="M61.2621 40.7002C61.2878 40.7021 61.3006 40.7031 61.3204 40.6981C61.3075 40.6972 61.2878 40.7021 61.2621 40.7002Z" fill="#808292"/>
<path d="M61.3391 40.7059C61.3391 40.7059 61.3519 40.7069 61.3588 40.7009C61.3509 40.7009 61.3436 40.702 61.3391 40.7059Z" fill="#808292"/>
</svg>
