<svg width="392" height="80" viewBox="0 0 392 80" fill="none" xmlns="http://www.w3.org/2000/svg">
<g filter="url(#filter0_d_602_1624)">
<path d="M10 20C10 13.4003 10 10.1005 12.0503 8.05025C14.1005 6 17.4003 6 24 6H368C374.6 6 377.9 6 379.95 8.05025C382 10.1005 382 13.4003 382 20V52C382 58.5997 382 61.8995 379.95 63.9497C377.9 66 374.6 66 368 66H24C17.4003 66 14.1005 66 12.0503 63.9497C10 61.8995 10 58.5997 10 52V20Z" fill="url(#paint0_linear_602_1624)" shape-rendering="crispEdges"/>
<path d="M94.6767 43.24C93.2634 43.24 92.0034 42.9333 90.8967 42.32C89.8034 41.6933 88.9434 40.84 88.3167 39.76C87.7034 38.6667 87.3967 37.42 87.3967 36.02C87.3967 34.5933 87.7034 33.34 88.3167 32.26C88.9434 31.1667 89.8034 30.3133 90.8967 29.7C92.0034 29.0733 93.2634 28.76 94.6767 28.76C95.4501 28.76 96.1901 28.8867 96.8967 29.14C97.6167 29.38 98.2634 29.72 98.8367 30.16C99.4234 30.5867 99.8967 31.08 100.257 31.64L98.6767 32.68C98.4101 32.2667 98.0634 31.9 97.6367 31.58C97.2101 31.26 96.7367 31.0133 96.2167 30.84C95.7101 30.6533 95.1967 30.56 94.6767 30.56C93.6501 30.56 92.7367 30.7933 91.9367 31.26C91.1501 31.7267 90.5301 32.3667 90.0767 33.18C89.6234 33.9933 89.3967 34.94 89.3967 36.02C89.3967 37.0733 89.6167 38.0067 90.0567 38.82C90.5101 39.6333 91.1367 40.2733 91.9367 40.74C92.7501 41.2067 93.6767 41.44 94.7167 41.44C95.5567 41.44 96.3034 41.2667 96.9567 40.92C97.6234 40.5733 98.1434 40.0867 98.5167 39.46C98.9034 38.8333 99.0967 38.1067 99.0967 37.28L100.997 37.1C100.997 38.34 100.723 39.42 100.177 40.34C99.6434 41.26 98.9034 41.9733 97.9567 42.48C97.0101 42.9867 95.9167 43.24 94.6767 43.24ZM95.6967 37.4V35.76H100.997V37.2L99.9967 37.4H95.6967ZM107.674 43.24C106.701 43.24 105.841 43.02 105.094 42.58C104.347 42.1267 103.761 41.5067 103.334 40.72C102.907 39.9333 102.694 39.0267 102.694 38C102.694 36.9733 102.907 36.0667 103.334 35.28C103.761 34.4933 104.347 33.88 105.094 33.44C105.854 32.9867 106.721 32.76 107.694 32.76C108.601 32.76 109.401 32.9933 110.094 33.46C110.801 33.9133 111.347 34.5667 111.734 35.42C112.134 36.26 112.334 37.2533 112.334 38.4H110.434C110.434 37.5467 110.327 36.8267 110.114 36.24C109.901 35.6533 109.581 35.2133 109.154 34.92C108.741 34.6133 108.234 34.46 107.634 34.46C107.034 34.46 106.507 34.6067 106.054 34.9C105.614 35.18 105.267 35.5867 105.014 36.12C104.774 36.64 104.654 37.28 104.654 38.04C104.654 38.7467 104.794 39.36 105.074 39.88C105.354 40.3867 105.727 40.7867 106.194 41.08C106.674 41.36 107.214 41.5 107.814 41.5C108.467 41.5 109.007 41.3467 109.434 41.04C109.874 40.7333 110.221 40.34 110.474 39.86L112.174 40.64C111.894 41.16 111.541 41.62 111.114 42.02C110.701 42.4067 110.201 42.7067 109.614 42.92C109.041 43.1333 108.394 43.24 107.674 43.24ZM103.934 38.4L103.954 36.84H111.274V38.4H103.934ZM118.547 43.24C117.547 43.24 116.774 42.9867 116.227 42.48C115.681 41.96 115.407 41.22 115.407 40.26V29.88H117.307V39.98C117.307 40.4733 117.427 40.8533 117.667 41.12C117.921 41.3733 118.281 41.5 118.747 41.5C118.881 41.5 119.027 41.4733 119.187 41.42C119.347 41.3667 119.541 41.26 119.767 41.1L120.487 42.58C120.141 42.8067 119.807 42.9733 119.487 43.08C119.181 43.1867 118.867 43.24 118.547 43.24ZM113.707 34.64V33H120.147V34.64H113.707ZM133.803 43L133.663 37.78C133.649 37.0467 133.563 36.44 133.403 35.96C133.243 35.4667 132.996 35.0933 132.663 34.84C132.329 34.5867 131.883 34.46 131.323 34.46C130.803 34.46 130.343 34.5667 129.943 34.78C129.556 34.9933 129.236 35.3267 128.983 35.78L127.283 35.14C127.523 34.6867 127.823 34.28 128.183 33.92C128.556 33.56 129.003 33.28 129.523 33.08C130.056 32.8667 130.663 32.76 131.343 32.76C132.289 32.76 133.076 32.94 133.703 33.3C134.329 33.66 134.796 34.2 135.103 34.92C135.423 35.6267 135.583 36.5067 135.583 37.56V43H133.803ZM130.863 43.24C129.676 43.24 128.749 42.9733 128.083 42.44C127.429 41.8933 127.103 41.14 127.103 40.18C127.103 39.1533 127.443 38.3733 128.123 37.84C128.803 37.2933 129.763 37.02 131.003 37.02H134.343L134.363 38.52H131.523C130.603 38.52 129.949 38.6667 129.563 38.96C129.189 39.24 129.003 39.6333 129.003 40.14C129.003 40.6067 129.183 40.9733 129.543 41.24C129.903 41.4933 130.396 41.62 131.023 41.62C131.569 41.62 132.036 41.4933 132.423 41.24C132.823 40.9867 133.129 40.6533 133.343 40.24C133.569 39.8133 133.683 39.34 133.683 38.82H134.603C134.603 40.18 134.289 41.26 133.663 42.06C133.036 42.8467 132.103 43.24 130.863 43.24ZM143.716 43V29H145.676V43H143.716ZM145.416 37V35.2H151.356V37H145.416ZM145.416 30.8V29H152.196V30.8H145.416ZM155.339 37.62C155.339 36.54 155.545 35.66 155.959 34.98C156.372 34.3 156.905 33.7933 157.559 33.46C158.212 33.1267 158.899 32.96 159.619 32.96V34.76C159.019 34.76 158.445 34.8533 157.899 35.04C157.365 35.2133 156.925 35.5067 156.579 35.92C156.245 36.32 156.079 36.8667 156.079 37.56L155.339 37.62ZM154.179 43V33H156.079V43H154.179ZM165.851 43.24C164.878 43.24 164.018 43.02 163.271 42.58C162.525 42.1267 161.938 41.5067 161.511 40.72C161.085 39.9333 160.871 39.0267 160.871 38C160.871 36.9733 161.085 36.0667 161.511 35.28C161.938 34.4933 162.525 33.88 163.271 33.44C164.031 32.9867 164.898 32.76 165.871 32.76C166.778 32.76 167.578 32.9933 168.271 33.46C168.978 33.9133 169.525 34.5667 169.911 35.42C170.311 36.26 170.511 37.2533 170.511 38.4H168.611C168.611 37.5467 168.505 36.8267 168.291 36.24C168.078 35.6533 167.758 35.2133 167.331 34.92C166.918 34.6133 166.411 34.46 165.811 34.46C165.211 34.46 164.685 34.6067 164.231 34.9C163.791 35.18 163.445 35.5867 163.191 36.12C162.951 36.64 162.831 37.28 162.831 38.04C162.831 38.7467 162.971 39.36 163.251 39.88C163.531 40.3867 163.905 40.7867 164.371 41.08C164.851 41.36 165.391 41.5 165.991 41.5C166.645 41.5 167.185 41.3467 167.611 41.04C168.051 40.7333 168.398 40.34 168.651 39.86L170.351 40.64C170.071 41.16 169.718 41.62 169.291 42.02C168.878 42.4067 168.378 42.7067 167.791 42.92C167.218 43.1333 166.571 43.24 165.851 43.24ZM162.111 38.4L162.131 36.84H169.451V38.4H162.111ZM177.165 43.24C176.191 43.24 175.331 43.02 174.585 42.58C173.838 42.1267 173.251 41.5067 172.825 40.72C172.398 39.9333 172.185 39.0267 172.185 38C172.185 36.9733 172.398 36.0667 172.825 35.28C173.251 34.4933 173.838 33.88 174.585 33.44C175.345 32.9867 176.211 32.76 177.185 32.76C178.091 32.76 178.891 32.9933 179.585 33.46C180.291 33.9133 180.838 34.5667 181.225 35.42C181.625 36.26 181.825 37.2533 181.825 38.4H179.925C179.925 37.5467 179.818 36.8267 179.605 36.24C179.391 35.6533 179.071 35.2133 178.645 34.92C178.231 34.6133 177.725 34.46 177.125 34.46C176.525 34.46 175.998 34.6067 175.545 34.9C175.105 35.18 174.758 35.5867 174.505 36.12C174.265 36.64 174.145 37.28 174.145 38.04C174.145 38.7467 174.285 39.36 174.565 39.88C174.845 40.3867 175.218 40.7867 175.685 41.08C176.165 41.36 176.705 41.5 177.305 41.5C177.958 41.5 178.498 41.3467 178.925 41.04C179.365 40.7333 179.711 40.34 179.965 39.86L181.665 40.64C181.385 41.16 181.031 41.62 180.605 42.02C180.191 42.4067 179.691 42.7067 179.105 42.92C178.531 43.1333 177.885 43.24 177.165 43.24ZM173.425 38.4L173.445 36.84H180.765V38.4H173.425ZM195.481 43.24C194.147 43.24 192.961 42.9333 191.921 42.32C190.881 41.6933 190.067 40.84 189.481 39.76C188.894 38.6667 188.601 37.4133 188.601 36C188.601 34.5867 188.894 33.34 189.481 32.26C190.067 31.1667 190.874 30.3133 191.901 29.7C192.927 29.0733 194.107 28.76 195.441 28.76C196.307 28.76 197.134 28.92 197.921 29.24C198.707 29.5467 199.407 29.98 200.021 30.54C200.647 31.0867 201.127 31.7267 201.461 32.46L199.701 33.26C199.447 32.7133 199.101 32.24 198.661 31.84C198.221 31.44 197.721 31.1267 197.161 30.9C196.614 30.6733 196.041 30.56 195.441 30.56C194.507 30.56 193.674 30.7933 192.941 31.26C192.207 31.7267 191.634 32.3667 191.221 33.18C190.807 33.9933 190.601 34.9333 190.601 36C190.601 37.0667 190.807 38.0133 191.221 38.84C191.647 39.6667 192.227 40.3133 192.961 40.78C193.707 41.2333 194.554 41.46 195.501 41.46C196.114 41.46 196.694 41.34 197.241 41.1C197.787 40.8467 198.274 40.5067 198.701 40.08C199.141 39.64 199.494 39.14 199.761 38.58L201.521 39.36C201.187 40.12 200.714 40.7933 200.101 41.38C199.487 41.9667 198.781 42.4267 197.981 42.76C197.194 43.08 196.361 43.24 195.481 43.24ZM209.914 43L209.774 37.78C209.761 37.0467 209.674 36.44 209.514 35.96C209.354 35.4667 209.108 35.0933 208.774 34.84C208.441 34.5867 207.994 34.46 207.434 34.46C206.914 34.46 206.454 34.5667 206.054 34.78C205.668 34.9933 205.348 35.3267 205.094 35.78L203.394 35.14C203.634 34.6867 203.934 34.28 204.294 33.92C204.668 33.56 205.114 33.28 205.634 33.08C206.168 32.8667 206.774 32.76 207.454 32.76C208.401 32.76 209.188 32.94 209.814 33.3C210.441 33.66 210.908 34.2 211.214 34.92C211.534 35.6267 211.694 36.5067 211.694 37.56V43H209.914ZM206.974 43.24C205.788 43.24 204.861 42.9733 204.194 42.44C203.541 41.8933 203.214 41.14 203.214 40.18C203.214 39.1533 203.554 38.3733 204.234 37.84C204.914 37.2933 205.874 37.02 207.114 37.02H210.454L210.474 38.52H207.634C206.714 38.52 206.061 38.6667 205.674 38.96C205.301 39.24 205.114 39.6333 205.114 40.14C205.114 40.6067 205.294 40.9733 205.654 41.24C206.014 41.4933 206.508 41.62 207.134 41.62C207.681 41.62 208.148 41.4933 208.534 41.24C208.934 40.9867 209.241 40.6533 209.454 40.24C209.681 39.8133 209.794 39.34 209.794 38.82H210.714C210.714 40.18 210.401 41.26 209.774 42.06C209.148 42.8467 208.214 43.24 206.974 43.24ZM217.865 43.24C217.158 43.24 216.525 43.1333 215.965 42.92C215.418 42.7067 214.952 42.42 214.565 42.06C214.192 41.7 213.912 41.2933 213.725 40.84L215.365 40.12C215.578 40.5333 215.898 40.8733 216.325 41.14C216.752 41.3933 217.225 41.52 217.745 41.52C218.318 41.52 218.792 41.42 219.165 41.22C219.538 41.0067 219.725 40.7067 219.725 40.32C219.725 39.9467 219.585 39.6533 219.305 39.44C219.025 39.2267 218.618 39.0533 218.085 38.92L217.145 38.68C216.212 38.4267 215.485 38.0467 214.965 37.54C214.445 37.0333 214.185 36.46 214.185 35.82C214.185 34.8467 214.498 34.0933 215.125 33.56C215.765 33.0267 216.698 32.76 217.925 32.76C218.525 32.76 219.072 32.8467 219.565 33.02C220.072 33.1933 220.498 33.44 220.845 33.76C221.205 34.08 221.458 34.46 221.605 34.9L220.005 35.62C219.845 35.22 219.572 34.9267 219.185 34.74C218.798 34.5533 218.345 34.46 217.825 34.46C217.292 34.46 216.872 34.5733 216.565 34.8C216.258 35.0267 216.105 35.3467 216.105 35.76C216.105 35.9867 216.232 36.2067 216.485 36.42C216.752 36.62 217.138 36.7867 217.645 36.92L218.725 37.18C219.378 37.34 219.918 37.5867 220.345 37.92C220.772 38.24 221.092 38.6067 221.305 39.02C221.518 39.42 221.625 39.84 221.625 40.28C221.625 40.88 221.458 41.4067 221.125 41.86C220.805 42.3 220.358 42.64 219.785 42.88C219.225 43.12 218.585 43.24 217.865 43.24ZM228.301 43.24C227.328 43.24 226.468 43.02 225.721 42.58C224.975 42.1267 224.388 41.5067 223.961 40.72C223.535 39.9333 223.321 39.0267 223.321 38C223.321 36.9733 223.535 36.0667 223.961 35.28C224.388 34.4933 224.975 33.88 225.721 33.44C226.481 32.9867 227.348 32.76 228.321 32.76C229.228 32.76 230.028 32.9933 230.721 33.46C231.428 33.9133 231.975 34.5667 232.361 35.42C232.761 36.26 232.961 37.2533 232.961 38.4H231.061C231.061 37.5467 230.955 36.8267 230.741 36.24C230.528 35.6533 230.208 35.2133 229.781 34.92C229.368 34.6133 228.861 34.46 228.261 34.46C227.661 34.46 227.135 34.6067 226.681 34.9C226.241 35.18 225.895 35.5867 225.641 36.12C225.401 36.64 225.281 37.28 225.281 38.04C225.281 38.7467 225.421 39.36 225.701 39.88C225.981 40.3867 226.355 40.7867 226.821 41.08C227.301 41.36 227.841 41.5 228.441 41.5C229.095 41.5 229.635 41.3467 230.061 41.04C230.501 40.7333 230.848 40.34 231.101 39.86L232.801 40.64C232.521 41.16 232.168 41.62 231.741 42.02C231.328 42.4067 230.828 42.7067 230.241 42.92C229.668 43.1333 229.021 43.24 228.301 43.24ZM224.561 38.4L224.581 36.84H231.901V38.4H224.561ZM242.477 37.64V35.84H245.557C246.037 35.84 246.464 35.7333 246.837 35.52C247.224 35.2933 247.531 34.9933 247.757 34.62C247.997 34.2333 248.117 33.8 248.117 33.32C248.117 32.5733 247.857 31.9667 247.337 31.5C246.817 31.0333 246.144 30.8 245.317 30.8H242.477V29L245.377 28.98C246.311 28.9667 247.131 29.1467 247.837 29.52C248.557 29.8933 249.117 30.4067 249.517 31.06C249.931 31.7133 250.137 32.4667 250.137 33.32C250.137 34.16 249.917 34.9067 249.477 35.56C249.051 36.2133 248.464 36.7267 247.717 37.1C246.971 37.46 246.131 37.64 245.197 37.64H242.477ZM240.657 43V29H242.617V43H240.657ZM248.477 43L245.157 37.28L246.717 36.24L250.697 43H248.477ZM257.515 43.24C256.541 43.24 255.681 43.02 254.935 42.58C254.188 42.1267 253.601 41.5067 253.175 40.72C252.748 39.9333 252.535 39.0267 252.535 38C252.535 36.9733 252.748 36.0667 253.175 35.28C253.601 34.4933 254.188 33.88 254.935 33.44C255.695 32.9867 256.561 32.76 257.535 32.76C258.441 32.76 259.241 32.9933 259.935 33.46C260.641 33.9133 261.188 34.5667 261.575 35.42C261.975 36.26 262.175 37.2533 262.175 38.4H260.275C260.275 37.5467 260.168 36.8267 259.955 36.24C259.741 35.6533 259.421 35.2133 258.995 34.92C258.581 34.6133 258.075 34.46 257.475 34.46C256.875 34.46 256.348 34.6067 255.895 34.9C255.455 35.18 255.108 35.5867 254.855 36.12C254.615 36.64 254.495 37.28 254.495 38.04C254.495 38.7467 254.635 39.36 254.915 39.88C255.195 40.3867 255.568 40.7867 256.035 41.08C256.515 41.36 257.055 41.5 257.655 41.5C258.308 41.5 258.848 41.3467 259.275 41.04C259.715 40.7333 260.061 40.34 260.315 39.86L262.015 40.64C261.735 41.16 261.381 41.62 260.955 42.02C260.541 42.4067 260.041 42.7067 259.455 42.92C258.881 43.1333 258.235 43.24 257.515 43.24ZM253.775 38.4L253.795 36.84H261.115V38.4H253.775ZM267.155 43L271.155 33H273.135L268.955 43H267.155ZM267.035 43L262.875 33H264.815L268.815 43H267.035ZM274.941 43L274.981 33H276.861L276.841 43H274.941ZM275.901 30.88C275.594 30.88 275.327 30.7667 275.101 30.54C274.874 30.3 274.761 30.0267 274.761 29.72C274.761 29.4 274.874 29.1333 275.101 28.92C275.327 28.6933 275.594 28.58 275.901 28.58C276.221 28.58 276.487 28.6933 276.701 28.92C276.927 29.1333 277.041 29.4 277.041 29.72C277.041 30.0267 276.927 30.3 276.701 30.54C276.487 30.7667 276.221 30.88 275.901 30.88ZM284.325 43.24C283.352 43.24 282.492 43.02 281.745 42.58C280.999 42.1267 280.412 41.5067 279.985 40.72C279.559 39.9333 279.345 39.0267 279.345 38C279.345 36.9733 279.559 36.0667 279.985 35.28C280.412 34.4933 280.999 33.88 281.745 33.44C282.505 32.9867 283.372 32.76 284.345 32.76C285.252 32.76 286.052 32.9933 286.745 33.46C287.452 33.9133 287.999 34.5667 288.385 35.42C288.785 36.26 288.985 37.2533 288.985 38.4H287.085C287.085 37.5467 286.979 36.8267 286.765 36.24C286.552 35.6533 286.232 35.2133 285.805 34.92C285.392 34.6133 284.885 34.46 284.285 34.46C283.685 34.46 283.159 34.6067 282.705 34.9C282.265 35.18 281.919 35.5867 281.665 36.12C281.425 36.64 281.305 37.28 281.305 38.04C281.305 38.7467 281.445 39.36 281.725 39.88C282.005 40.3867 282.379 40.7867 282.845 41.08C283.325 41.36 283.865 41.5 284.465 41.5C285.119 41.5 285.659 41.3467 286.085 41.04C286.525 40.7333 286.872 40.34 287.125 39.86L288.825 40.64C288.545 41.16 288.192 41.62 287.765 42.02C287.352 42.4067 286.852 42.7067 286.265 42.92C285.692 43.1333 285.045 43.24 284.325 43.24ZM280.585 38.4L280.605 36.84H287.925V38.4H280.585ZM299.986 43L303.366 33H305.266L301.866 43H299.986ZM293.246 43L296.566 33H298.286L295.006 43H293.246ZM293.106 43L289.706 33H291.626L294.926 43H293.106ZM299.986 43L296.706 33H298.446L301.746 43H299.986Z" fill="white"/>
</g>
<defs>
<filter id="filter0_d_602_1624" x="0" y="0" width="392" height="80" filterUnits="userSpaceOnUse" color-interpolation-filters="sRGB">
<feFlood flood-opacity="0" result="BackgroundImageFix"/>
<feColorMatrix in="SourceAlpha" type="matrix" values="0 0 0 0 0 0 0 0 0 0 0 0 0 0 0 0 0 0 127 0" result="hardAlpha"/>
<feOffset dy="4"/>
<feGaussianBlur stdDeviation="5"/>
<feComposite in2="hardAlpha" operator="out"/>
<feColorMatrix type="matrix" values="0 0 0 0 0 0 0 0 0 0 0 0 0 0 0 0 0 0 0.15 0"/>
<feBlend mode="normal" in2="BackgroundImageFix" result="effect1_dropShadow_602_1624"/>
<feBlend mode="normal" in="SourceGraphic" in2="effect1_dropShadow_602_1624" result="shape"/>
</filter>
<linearGradient id="paint0_linear_602_1624" x1="342" y1="36" x2="7.0747e-06" y2="13" gradientUnits="userSpaceOnUse">
<stop stop-color="#08584A"/>
<stop offset="1" stop-color="#0D705E"/>
</linearGradient>
</defs>
</svg>
