<svg width="48" height="48" viewBox="0 0 48 48" fill="none" xmlns="http://www.w3.org/2000/svg">
<circle cx="24" cy="24" r="24" fill="#FAFAFA"/>
<g clip-path="url(#clip0_288_190)">
<path d="M24 13C27.0553 13 29.9855 14.2137 32.1459 16.3741C34.3063 18.5345 35.52 21.4647 35.52 24.52" stroke="#133B61" stroke-width="2" stroke-miterlimit="10" stroke-linecap="square"/>
<path d="M30.76 22.76C30.76 21.2324 30.1531 19.7673 29.0729 18.6871C27.9927 17.6069 26.5276 17 25 17" stroke="#133B61" stroke-width="2" stroke-miterlimit="10" stroke-linecap="square"/>
<path d="M27.382 26.2295L25.5042 28.5767C22.5962 26.8675 20.1728 24.4441 18.4636 21.5361L20.8108 19.6583C21.0857 19.4381 21.28 19.133 21.3634 18.7907C21.4467 18.4484 21.4144 18.0882 21.2716 17.7662L19.1327 12.9479C18.9792 12.6024 18.7081 12.3226 18.3675 12.1584C18.0269 11.9941 17.6391 11.9562 17.2732 12.0513L13.1999 13.1073C12.8195 13.2064 12.4887 13.4417 12.2703 13.7685C12.0519 14.0954 11.9612 14.4911 12.0153 14.8804C12.7301 19.9704 15.0827 24.6893 18.7172 28.3237C22.3518 31.9581 27.0708 34.3104 32.1609 35.0251C32.5498 35.0787 32.9449 34.9878 33.2713 34.7697C33.5977 34.5515 33.8328 34.2212 33.9321 33.8414L34.9881 29.7681C35.0827 29.4026 35.0447 29.0153 34.8807 28.6751C34.7167 28.335 34.4373 28.0641 34.0924 27.9105L29.2751 25.7707C28.9533 25.6276 28.5932 25.595 28.2509 25.678C27.9087 25.761 27.6035 25.9549 27.3829 26.2295H27.382Z" fill="#133B61"/>
</g>
<defs>
<clipPath id="clip0_288_190">
<rect width="24" height="24" fill="white" transform="translate(12 12)"/>
</clipPath>
</defs>
</svg>
