<svg width="25" height="25" viewBox="0 0 25 25" fill="none" xmlns="http://www.w3.org/2000/svg">
<path d="M16.6974 15.069L14.6929 17.5139C11.5887 15.7335 9.00173 13.2091 7.17714 10.18L9.68274 8.22399C9.97622 7.99453 10.1836 7.67675 10.2726 7.32022C10.3616 6.96368 10.3271 6.58843 10.1746 6.25299L7.89141 1.23402C7.7276 0.874072 7.43812 0.582591 7.07457 0.411532C6.71102 0.240474 6.29703 0.200955 5.9064 0.30002L1.55822 1.40001C1.15213 1.50321 0.799009 1.74831 0.565891 2.08879C0.332773 2.42927 0.235888 2.84142 0.29363 3.24701C1.05673 8.54906 3.56805 13.4646 7.44792 17.2504C11.3278 21.0362 16.3653 23.4865 21.7988 24.2309C22.214 24.2868 22.6358 24.1921 22.9842 23.9649C23.3327 23.7377 23.5836 23.3936 23.6896 22.9979L24.8168 18.7549C24.9179 18.3742 24.8773 17.9708 24.7022 17.6164C24.5271 17.2621 24.2289 16.9799 23.8607 16.8199L18.7183 14.591C18.3748 14.4419 17.9904 14.408 17.625 14.4945C17.2596 14.5809 16.9339 14.7829 16.6985 15.069H16.6974Z" fill="#487EB0"/>
</svg>
