<svg width="55" height="55" viewBox="0 0 55 55" fill="none" xmlns="http://www.w3.org/2000/svg">
<path d="M42.3083 54.4996C42.1099 54.4647 41.9235 54.3805 41.7662 54.2547C41.6089 54.1289 41.4858 53.9655 41.4083 53.7796L40.3283 49.4596C40.1419 48.7287 39.7832 48.0532 39.2821 47.4895C38.7811 46.9257 38.1522 46.4903 37.4483 46.2196L29.3483 43.6996C26.1083 42.4396 25.2083 37.7596 25.2083 36.4996C25.2532 36.2288 25.3786 35.9779 25.5683 35.7796C26.2023 35.3496 26.7385 34.7907 27.1417 34.1393C27.5449 33.4879 27.8061 32.7588 27.9083 31.9996C27.8775 31.5242 27.9593 31.0483 28.1469 30.6104C28.3346 30.1726 28.6228 29.7851 28.9883 29.4796C29.3335 28.549 29.575 27.5831 29.7083 26.5996C29.7088 26.5758 29.7045 26.5521 29.6957 26.53C29.6868 26.5079 29.6736 26.4879 29.6568 26.4711C29.6399 26.4542 29.6199 26.441 29.5978 26.4321C29.5757 26.4233 29.5521 26.419 29.5283 26.4196C28.9883 26.4196 28.8083 26.0596 28.8083 25.5196V20.1196C28.8083 17.4196 27.9083 16.8796 27.5483 16.6996C27.3683 16.6996 27.0083 16.5196 27.0083 15.9796V15.6196C26.8283 14.8996 25.7483 13.0996 21.6083 13.0996C17.2883 13.0996 14.4083 17.4196 14.4083 20.2996V25.6996C14.4156 25.8197 14.3973 25.9399 14.3546 26.0524C14.312 26.1649 14.246 26.2671 14.1609 26.3522C14.0758 26.4372 13.9736 26.5033 13.8611 26.5459C13.7486 26.5886 13.6284 26.6069 13.5083 26.5996V26.7796C13.6415 27.7631 13.883 28.729 14.2283 29.6596C14.6105 29.9507 14.9109 30.3357 15.1001 30.7773C15.2894 31.2189 15.3611 31.702 15.3083 32.1796C15.3083 33.4396 16.5683 35.0596 17.6483 35.9596C17.8283 35.9596 18.0083 36.3196 18.0083 36.4996C18.0083 37.5796 16.9283 42.2596 13.8683 43.6996L5.76827 46.3996C5.04902 46.6444 4.40558 47.0717 3.9008 47.6396C3.39601 48.2075 3.04715 48.8966 2.88827 49.6396L1.80827 53.7796C1.74572 54.0099 1.60184 54.2097 1.40328 54.3421C1.20472 54.4744 0.964916 54.5304 0.728274 54.4996C0.497977 54.437 0.298144 54.2931 0.165769 54.0946C0.0333938 53.896 -0.0225571 53.6562 0.00827406 53.4196L1.08827 49.0996C1.32664 48.0539 1.83401 47.0886 2.56016 46.2993C3.28631 45.51 4.20604 44.9241 5.22827 44.5996L13.1483 41.8996C14.9483 41.1796 15.8483 37.9396 16.0283 36.8596C14.5883 35.5996 13.3283 33.6196 13.3283 31.9996C13.3283 31.2796 13.1483 31.0996 12.9683 31.0996C12.6083 31.0996 12.6083 30.9196 12.4283 30.5596C11.8978 29.3028 11.5931 27.9622 11.5283 26.5996V26.4196C11.7017 25.9222 12.014 25.4849 12.4283 25.1596V20.2996C12.4283 16.5196 15.8483 11.2996 21.4283 11.2996C27.0083 11.2996 28.4483 14.1796 28.6283 15.4396C29.5283 16.1596 30.4283 17.2396 30.4283 20.2996V25.1596C30.8425 25.4849 31.1548 25.9222 31.3283 26.4196V26.5996C31.1502 27.9443 30.8489 29.2699 30.4283 30.5596C30.2483 30.7396 30.0683 31.0996 29.8883 31.0996C29.7652 31.3834 29.7038 31.6902 29.7083 31.9996C29.7083 33.6196 28.4483 35.5996 27.0083 36.8596C27.1883 38.1196 28.0883 41.1796 30.0683 41.8996L37.9883 44.5996C38.9943 44.953 39.898 45.5482 40.6199 46.3329C41.3418 47.1176 41.8598 48.0677 42.1283 49.0996L43.2083 53.4196C43.3883 53.9596 43.0283 54.3196 42.4883 54.4996H42.3083Z" fill="#6AB1FF"/>
<path d="M33.3093 31.0995C33.2115 31.1116 33.1123 31.1018 33.0189 31.0706C32.9255 31.0395 32.8402 30.9879 32.7693 30.9195C32.4093 30.7395 32.4093 30.3795 32.4093 30.0195C32.5893 29.2995 33.4893 25.1595 34.0293 21.9195H33.8493C33.6388 21.8445 33.4662 21.69 33.3684 21.4891C33.2705 21.2882 33.2553 21.057 33.326 20.8451C33.3966 20.6331 33.5475 20.4573 33.7463 20.3553C33.9451 20.2533 34.1759 20.2333 34.3893 20.2995C34.608 20.4251 34.8572 20.4874 35.1093 20.4795C35.2893 20.4795 35.6493 20.6595 35.6493 20.8395C35.7923 21.0508 35.856 21.3058 35.8293 21.5595C35.6493 22.0995 35.1093 24.9795 34.7493 27.4995L41.2293 20.6595C41.3002 20.5912 41.3855 20.5396 41.4789 20.5084C41.5723 20.4773 41.6715 20.4674 41.7693 20.4795C43.8854 20.0057 45.898 19.1518 47.7093 17.9595C50.5893 15.9795 52.2093 13.6395 52.2093 11.2995C52.2093 6.25952 45.7293 2.29952 37.8093 2.29952H36.9093C36.2442 2.26999 35.5781 2.33054 34.9293 2.47952C29.5293 3.19952 25.2093 5.71952 23.7693 8.95952C23.7693 9.49952 23.2293 9.67952 22.6893 9.49952C22.5676 9.45687 22.4562 9.38939 22.362 9.30138C22.2678 9.21337 22.193 9.10674 22.1422 8.98826C22.0914 8.86978 22.0658 8.74204 22.0671 8.61315C22.0683 8.48426 22.0963 8.35702 22.1493 8.23952C23.7693 4.27952 28.6293 1.39952 34.5693 0.679522C35.3398 0.53025 36.125 0.469856 36.9093 0.499522H37.8093C46.8093 0.499522 54.0093 5.35952 54.0093 11.2995C54.0093 14.3595 52.2093 17.2395 48.7893 19.2195C46.8809 20.5134 44.7423 21.4299 42.4893 21.9195L34.0293 30.9195C33.8493 30.9195 33.4893 31.0995 33.3093 31.0995Z" fill="#6AB1FF"/>
</svg>
