<svg width="72" height="72" viewBox="0 0 72 72" fill="none" xmlns="http://www.w3.org/2000/svg">
<path d="M36 72C55.8823 72 72 55.8823 72 36C72 16.1177 55.8823 0 36 0C16.1177 0 0 16.1177 0 36C0 55.8823 16.1177 72 36 72Z" fill="url(#paint0_linear_604_629)"/>
<path d="M49.371 16.0279C49.3084 15.9418 49.2263 15.8718 49.1315 15.8235C49.0367 15.7752 48.9318 15.75 48.8254 15.75H40.0504C39.9046 15.7499 39.7627 15.7969 39.6459 15.8841C39.5291 15.9713 39.4437 16.094 39.4024 16.2338L36.5899 25.8064L33.2621 16.2C33.2156 16.0683 33.1293 15.9544 33.0153 15.8738C32.9012 15.7932 32.765 15.7499 32.6254 15.75H23.1754C23.0673 15.7499 22.9609 15.7758 22.8649 15.8254C22.769 15.875 22.6864 15.947 22.624 16.0351C22.5616 16.1233 22.5213 16.2252 22.5064 16.3322C22.4916 16.4392 22.5026 16.5482 22.5386 16.65L29.2335 36.0641C27.4179 37.6122 26.13 39.6877 25.549 42.0019C24.968 44.3161 25.1229 46.7539 25.992 48.9759C26.8612 51.198 28.4014 53.0939 30.3983 54.3998C32.3952 55.7056 34.7495 56.3566 37.1336 56.262C39.5178 56.1673 41.8131 55.3319 43.7003 53.8719C45.5874 52.4119 46.9725 50.3999 47.6629 48.116C48.3532 45.832 48.3144 43.3897 47.5519 41.1288C46.7894 38.8679 45.3411 36.901 43.4085 35.5016L49.4677 16.632C49.5003 16.5308 49.5085 16.4233 49.4917 16.3183C49.4749 16.2134 49.4335 16.1138 49.371 16.0279ZM24.1215 17.1H32.145L37.77 33.3551C37.4077 33.3214 37.0432 33.3 36.6742 33.3C34.4287 33.299 32.2329 33.9608 30.3619 35.2024L24.1215 17.1ZM46.8004 44.775C46.8004 46.7775 46.2065 48.7351 45.094 50.4002C43.9814 52.0652 42.4001 53.3629 40.55 54.1293C38.6999 54.8956 36.6641 55.0961 34.7001 54.7055C32.736 54.3148 30.9319 53.3505 29.5159 51.9345C28.0999 50.5185 27.1356 48.7144 26.7449 46.7503C26.3542 44.7862 26.5547 42.7504 27.3211 40.9003C28.0874 39.0502 29.3852 37.4689 31.0502 36.3564C32.7153 35.2438 34.6728 34.65 36.6754 34.65C39.3598 34.6527 41.9336 35.7203 43.8319 37.6185C45.7301 39.5167 46.7977 42.0905 46.8004 44.775ZM42.2295 34.74C41.3062 34.2304 40.3164 33.8518 39.2887 33.615L37.3504 28.0035L40.5555 17.1H47.8995L42.2295 34.74ZM36.042 37.7865L34.1824 42.75H29.9254C29.7803 42.7499 29.6391 42.7966 29.5227 42.883C29.4062 42.9695 29.3207 43.0911 29.2788 43.23C29.2369 43.3688 29.2408 43.5175 29.29 43.6539C29.3392 43.7904 29.431 43.9073 29.5519 43.9875L33.1519 46.3905L31.3147 51.2888C31.2634 51.4243 31.257 51.5729 31.2966 51.7123C31.3362 51.8518 31.4197 51.9748 31.5347 52.0632C31.6496 52.1515 31.79 52.2005 31.935 52.2029C32.0799 52.2052 32.2218 52.1608 32.3396 52.0763L36.6405 49.005L40.29 52.0425C40.3993 52.1339 40.5348 52.1884 40.6769 52.1982C40.8191 52.2079 40.9608 52.1724 41.0815 52.0967C41.2023 52.0211 41.296 51.9091 41.3492 51.7769C41.4025 51.6447 41.4125 51.499 41.3779 51.3608L40.1404 46.422L43.8011 43.9875C43.9221 43.9072 44.014 43.7901 44.0632 43.6534C44.1123 43.5167 44.1161 43.3679 44.0739 43.2289C44.0317 43.0899 43.9458 42.9683 43.829 42.882C43.7121 42.7957 43.5706 42.7494 43.4254 42.75H39.1684L37.3065 37.7876C37.2485 37.6694 37.1585 37.5698 37.0467 37.5002C36.935 37.4305 36.8059 37.3936 36.6742 37.3936C36.5425 37.3936 36.4135 37.4305 36.3017 37.5002C36.19 37.5698 36.1 37.6694 36.042 37.7876V37.7865ZM38.067 43.6613C38.1153 43.7899 38.2017 43.9007 38.3147 43.9789C38.4277 44.0571 38.5618 44.099 38.6992 44.0989H41.1956L39.0019 45.5614C38.886 45.6384 38.7968 45.7494 38.7465 45.8791C38.6962 46.0088 38.6871 46.1509 38.7206 46.2859L39.5689 49.68L37.1074 47.628C36.9925 47.5326 36.8492 47.478 36.7 47.4727C36.5508 47.4674 36.4041 47.5117 36.2827 47.5988L33.3577 49.6856L34.6054 46.359C34.6589 46.2163 34.6625 46.0597 34.6158 45.9147C34.569 45.7697 34.4745 45.6448 34.3477 45.5603L32.1529 44.0978H34.6504C34.7878 44.0978 34.9219 44.056 35.0349 43.9778C35.1479 43.8996 35.2343 43.7888 35.2826 43.6601L36.6754 39.9476L38.067 43.6613Z" fill="white"/>
<defs>
<linearGradient id="paint0_linear_604_629" x1="64.2581" y1="36.0001" x2="-2.22704" y2="35.2789" gradientUnits="userSpaceOnUse">
<stop stop-color="#08584A"/>
<stop offset="1" stop-color="#0D705E"/>
</linearGradient>
</defs>
</svg>
