<svg width="52" height="52" viewBox="0 0 52 52" fill="none" xmlns="http://www.w3.org/2000/svg">
<circle cx="26" cy="26" r="26" fill="#FAFAFA"/>
<g clip-path="url(#clip0_288_190)">
<path d="M26 14.0833C29.3099 14.0833 32.4842 15.3982 34.8247 17.7387C37.1651 20.0791 38.48 23.2534 38.48 26.5633" stroke="#133B61" stroke-width="2" stroke-miterlimit="10" stroke-linecap="square"/>
<path d="M33.3233 24.6567C33.3233 23.0017 32.6659 21.4145 31.4957 20.2443C30.3255 19.0741 28.7383 18.4167 27.0833 18.4167" stroke="#133B61" stroke-width="2" stroke-miterlimit="10" stroke-linecap="square"/>
<path d="M29.6638 28.4153L27.6296 30.9581C24.4793 29.1065 21.8539 26.4811 20.0022 23.3308L22.545 21.2965C22.8428 21.0579 23.0533 20.7274 23.1436 20.3566C23.2339 19.9858 23.199 19.5955 23.0442 19.2467L20.7271 14.0269C20.5608 13.6526 20.2671 13.3495 19.8981 13.1715C19.5292 12.9936 19.109 12.9525 18.7126 13.0556L14.2999 14.1996C13.8878 14.3069 13.5294 14.5618 13.2928 14.9159C13.0563 15.27 12.9579 15.6986 13.0165 16.1205C13.791 21.6346 16.3396 26.7468 20.277 30.684C24.2145 34.6213 29.3267 37.1696 34.8409 37.9438C35.2623 38.0019 35.6903 37.9035 36.0439 37.6672C36.3976 37.4308 36.6522 37.073 36.7597 36.6615L37.9037 32.2488C38.0063 31.8528 37.9651 31.4332 37.7874 31.0647C37.6097 30.6963 37.3071 30.4027 36.9334 30.2364L31.7147 27.9182C31.3661 27.7632 30.9759 27.7279 30.6052 27.8179C30.2344 27.9078 29.9038 28.1179 29.6649 28.4153H29.6638Z" fill="#133B61"/>
</g>
<defs>
<clipPath id="clip0_288_190">
<rect width="26" height="26" fill="white" transform="translate(13 13)"/>
</clipPath>
</defs>
</svg>
