<svg width="72" height="72" viewBox="0 0 72 72" fill="none" xmlns="http://www.w3.org/2000/svg">
<path d="M36 72C55.8823 72 72 55.8823 72 36C72 16.1177 55.8823 0 36 0C16.1177 0 0 16.1177 0 36C0 55.8823 16.1177 72 36 72Z" fill="url(#paint0_linear_604_655)"/>
<g clip-path="url(#clip0_604_655)">
<path d="M40.6474 43.3271L35.9983 42.1661L35.6541 40.7874C36.8859 39.5286 37.7364 37.8411 38.0199 36.0996C38.7439 35.8397 39.2923 35.19 39.3936 34.3884L39.7057 31.8943C39.78 31.3037 39.5977 30.7097 39.2079 30.2625C39.0156 30.0414 38.781 29.8659 38.5211 29.7444L38.6257 27.6351L39.0358 27.2233C39.7935 26.4184 40.4229 25.0431 39.1269 23.0653C38.1482 21.5702 36.4978 20.8125 34.218 20.8125C33.3388 20.8125 31.3223 20.8125 29.4221 22.0646C23.9445 22.2013 23.2341 24.9098 23.2341 27.2689C23.2341 27.8055 23.3522 28.9294 23.4416 29.7039C23.1514 29.8254 22.8898 30.0094 22.6772 30.2507C22.2789 30.6996 22.095 31.2986 22.1693 31.8943L22.4814 34.3884C22.5877 35.2457 23.2071 35.9291 24.0052 36.1468C24.2871 37.8158 25.0937 39.4442 26.2496 40.6744L25.8767 42.1661L21.2276 43.3271C18.0011 44.1321 15.75 47.0177 15.75 50.3438C15.75 50.5682 15.8378 50.7842 15.9964 50.9411C16.155 51.0981 16.371 51.1875 16.5938 51.1875L45.2812 51.1841C45.747 51.1841 46.125 50.8061 46.125 50.3404C46.125 47.0177 43.8739 44.1321 40.6474 43.3271ZM17.5016 49.4966C17.8341 47.3164 19.4406 45.5124 21.6377 44.964L26.7778 43.6798C27.0799 43.6039 27.3178 43.3676 27.3921 43.0656L28.0029 40.6187C28.0789 40.3217 27.9844 40.0078 27.7616 39.7986C26.5416 38.6544 25.7332 36.9754 25.5999 35.3098C25.5645 34.8711 25.1983 34.5336 24.7579 34.5336H24.5554C24.3529 34.5336 24.1807 34.3817 24.1554 34.1809L23.8433 31.6868C23.823 31.5298 23.8956 31.4201 23.9411 31.3695C23.9867 31.3189 24.0863 31.2328 24.3731 31.2328C24.6161 31.2328 24.8456 31.1299 25.0059 30.9476C25.1663 30.7671 25.2405 30.5241 25.2101 30.2844C25.1308 29.6499 24.9216 27.8696 24.9216 27.2723C24.9216 25.7231 24.9216 23.7977 29.6989 23.7504C29.871 23.7488 30.0414 23.6947 30.1815 23.5935C31.5247 22.6333 32.976 22.5034 34.2197 22.5034C35.8937 22.5034 37.0699 23.0046 37.7162 23.9934C38.4553 25.1224 38.1769 25.6776 37.8242 26.0522L37.2015 26.6766C37.053 26.8251 36.9653 27.0225 36.9551 27.2318L36.8032 30.3536C36.7931 30.5831 36.8758 30.8059 37.0328 30.9729C37.188 31.14 37.4074 31.2362 37.6369 31.2379C37.7955 31.2396 37.8934 31.3256 37.9373 31.3763C37.9811 31.4269 38.052 31.5332 38.0334 31.6884L37.7213 34.1826C37.6959 34.3834 37.5238 34.5352 37.2606 34.5352C36.8201 34.5352 36.4539 34.8728 36.4185 35.3115C36.2818 37.0294 35.4364 38.7405 34.1539 39.8897C33.921 40.0972 33.8231 40.4179 33.8991 40.7216L34.4846 43.0656C34.5606 43.3676 34.7968 43.6056 35.0989 43.6798L40.239 44.964C42.4328 45.5124 44.0392 47.3181 44.3734 49.5L17.5016 49.4966ZM50.7741 43.3254L46.125 42.1644L45.936 41.4186C49.1186 40.8482 50.7707 39.888 50.8449 39.8441C51.0829 39.7041 51.2314 39.4509 51.2516 39.1759C51.2719 38.9008 51.1487 38.6274 50.9344 38.4536C50.9124 38.4368 48.7659 36.6278 48.7659 30.3891C48.7659 24.8625 47.4328 22.0612 44.8037 22.0612H44.5219C43.6174 21.2091 42.8783 20.8429 41.2431 20.8192H41.2313C40.9174 20.8192 40.6356 21.0015 40.4904 21.2799C40.3436 21.5617 40.3723 21.9128 40.5579 22.1709C40.7469 22.4376 41.0608 22.5574 41.3578 22.5084C42.5644 22.5422 42.8681 22.7869 43.5819 23.5007C43.7406 23.6576 43.9549 23.7471 44.1793 23.7471H44.8037C46.2499 23.7471 47.0784 26.1686 47.0784 30.3874C47.0784 35.0955 48.2023 37.6065 49.041 38.8232C48.1871 39.1607 46.7578 39.6163 44.7784 39.8947C44.5421 39.9268 44.3295 40.0601 44.1962 40.2576C44.0629 40.4567 44.019 40.7014 44.0781 40.9342L44.6096 43.0656C44.6856 43.3676 44.9218 43.6056 45.2239 43.6798L50.364 44.964C52.5577 45.5124 54.1642 47.3181 54.4984 49.5H48.6562V51.1875L55.4062 51.1841C55.872 51.1841 56.25 50.8061 56.25 50.3404C56.25 47.0177 53.9989 44.1321 50.7741 43.3254Z" fill="white"/>
</g>
<defs>
<linearGradient id="paint0_linear_604_655" x1="64.2581" y1="36.0001" x2="-2.22704" y2="35.2789" gradientUnits="userSpaceOnUse">
<stop stop-color="#08584A"/>
<stop offset="1" stop-color="#0D705E"/>
</linearGradient>
<clipPath id="clip0_604_655">
<rect width="40.5" height="40.5" fill="white" transform="translate(15.75 15.75)"/>
</clipPath>
</defs>
</svg>
