<svg width="72" height="72" viewBox="0 0 72 72" fill="none" xmlns="http://www.w3.org/2000/svg">
<path d="M36 72C55.8823 72 72 55.8823 72 36C72 16.1177 55.8823 0 36 0C16.1177 0 0 16.1177 0 36C0 55.8823 16.1177 72 36 72Z" fill="url(#paint0_linear_604_647)"/>
<path d="M31.5 35.812C31.9882 35.4282 32.5522 35.1521 33.1549 35.002L37.3882 33.9445C37.5367 33.9075 37.6723 33.8307 37.7805 33.7225C37.8887 33.6143 37.9654 33.4788 38.0025 33.3303L38.5054 31.3177C38.5418 31.1719 38.5387 31.0191 38.4963 30.8749C38.454 30.7308 38.374 30.6005 38.2646 30.4975C37.2695 29.5474 36.6538 28.268 36.5321 26.8975C36.4765 26.6725 36.3459 26.473 36.1619 26.3319C35.9779 26.1908 35.7514 26.1166 35.5196 26.1213C35.475 26.1214 35.4319 26.1052 35.3983 26.0758C35.3648 26.0464 35.3431 26.0058 35.3374 25.9615L35.1292 23.7622L35.3734 23.7003C35.493 23.7004 35.6114 23.6751 35.7205 23.6259C35.8296 23.5768 35.927 23.505 36.0062 23.4152C36.0854 23.3255 36.1445 23.22 36.1797 23.1056C36.2149 22.9912 36.2254 22.8706 36.2104 22.7519C36.1451 22.2322 35.9741 20.7764 35.9741 20.2904C35.9741 19.018 35.9741 17.5769 39.7609 17.5398C39.934 17.5389 40.1027 17.4843 40.2435 17.3834C41.202 16.7548 42.3367 16.4497 43.4812 16.5127C44.0016 16.4497 44.5294 16.5233 45.0127 16.7263C45.496 16.9293 45.9181 17.2546 46.2375 17.6703C46.8157 18.5523 46.5885 18.9224 46.35 19.1789L45.8359 19.693C45.6877 19.8409 45.5999 20.0386 45.5895 20.2477L45.4612 22.8183C45.4834 23.0873 45.5956 23.3409 45.7796 23.5383C45.9626 23.7366 46.2079 23.8664 46.4749 23.9062L46.2184 25.9615C46.2071 26.0527 46.1272 26.1213 45.9855 26.1213C45.7733 26.1212 45.5689 26.201 45.4129 26.3449C45.257 26.4887 45.161 26.6861 45.144 26.8975C45.0112 28.3033 44.3647 29.6107 43.3282 30.5695C43.2141 30.6718 43.1301 30.8033 43.0852 30.9498C43.0404 31.0963 43.0365 31.2523 43.074 31.4009L43.5566 33.3314C43.5937 33.4799 43.6704 33.6155 43.7786 33.7237C43.8868 33.8319 44.0224 33.9086 44.1709 33.9457L48.4042 35.0032C49.3608 35.2419 50.21 35.7939 50.8164 36.5714C51.4228 37.3488 51.7514 38.3069 51.75 39.2928C51.7441 39.4073 51.7615 39.5217 51.8012 39.6293C51.841 39.7368 51.9022 39.8351 51.9811 39.9182C52.06 40.0013 52.155 40.0675 52.2604 40.1127C52.3657 40.1579 52.4791 40.1813 52.5937 40.1813C52.7084 40.1813 52.8218 40.1579 52.9271 40.1127C53.0324 40.0675 53.1274 40.0013 53.2064 39.9182C53.2853 39.8351 53.3465 39.7368 53.3862 39.6293C53.426 39.5217 53.4434 39.4073 53.4375 39.2928C53.4396 37.931 52.9854 36.6077 52.1476 35.5341C51.3097 34.4605 50.1364 33.6985 48.8149 33.3697L45.0742 32.4337L44.8312 31.465C45.8248 30.4135 46.4895 29.0946 46.7437 27.6704C47.0507 27.5448 47.3187 27.3398 47.5203 27.0765C47.7219 26.8132 47.8499 26.501 47.8912 26.1719L48.15 24.1165C48.1826 23.8548 48.1593 23.5891 48.0818 23.3371C48.0042 23.085 47.8741 22.8522 47.7 22.654C47.5515 22.4845 47.374 22.3428 47.1757 22.2355L47.2567 20.6572L47.5582 20.3557C48.0159 19.8715 48.2783 19.2352 48.2952 18.5692C48.312 17.9032 48.082 17.2545 47.6494 16.7478C47.1833 16.0924 46.5539 15.5703 45.8237 15.2333C45.0936 14.8962 44.288 14.7559 43.4869 14.8263C42.0825 14.7679 40.6922 15.126 39.4909 15.8557C34.8896 15.9839 34.2922 18.2834 34.2922 20.2882C34.2922 20.7112 34.38 21.5684 34.4509 22.2007C34.2305 22.3095 34.0334 22.46 33.8704 22.6439C33.6955 22.843 33.565 23.0769 33.4874 23.3302C33.4099 23.5835 33.387 23.8504 33.4204 24.1132L33.6769 26.1685C33.7213 26.5158 33.8642 26.8432 34.0887 27.1119C34.3131 27.3806 34.6098 27.5795 34.9436 27.685C35.196 29.0572 35.8264 30.3316 36.7639 31.3649L36.4995 32.428L32.7487 33.3697C31.915 33.5786 31.1351 33.962 30.4605 34.4947C30.3622 34.5585 30.2783 34.6421 30.2142 34.7402C30.15 34.8383 30.1071 34.9487 30.088 35.0643C30.0689 35.1799 30.0742 35.2982 30.1034 35.4117C30.1327 35.5252 30.1853 35.6313 30.2579 35.7233C30.3305 35.8153 30.4215 35.8912 30.525 35.946C30.6286 36.0009 30.7425 36.0335 30.8594 36.0419C30.9762 36.0502 31.0936 36.0341 31.2039 35.9945C31.3142 35.9549 31.4151 35.8928 31.5 35.812ZM55.035 45.6648C54.4754 44.5315 53.5434 43.6249 52.395 43.0969C51.2466 42.5689 49.9517 42.4516 48.7271 42.7645L43.2596 44.1314C43.0189 42.022 41.7712 40.7789 39.2737 40.1557L24.6375 36.9033C24.6825 36.5827 24.7185 36.2755 24.7432 35.9887C24.7545 35.8623 24.737 35.7349 24.692 35.6162C24.647 35.4976 24.5757 35.3907 24.4834 35.3035C23.0389 33.9322 17.2552 33.49 15.5171 33.3877C15.4026 33.3818 15.2881 33.3986 15.1801 33.4372C15.0722 33.4758 14.973 33.5355 14.8882 33.6127C14.8044 33.6923 14.7378 33.7883 14.6925 33.8948C14.6472 34.0012 14.6242 34.1158 14.625 34.2314V49.4189C14.625 49.6427 14.7139 49.8573 14.8721 50.0155C15.0303 50.1738 15.245 50.2627 15.4687 50.2627H20.5312C20.709 50.2626 20.8823 50.2063 21.0261 50.1019C21.17 49.9974 21.2772 49.8501 21.3322 49.681C21.3536 49.6135 21.4684 49.2592 21.6427 48.7113L33.732 52.741C34.835 53.2382 36.0213 53.5248 37.2296 53.5859C38.9407 53.5859 40.9421 52.8367 45.3499 51.0333L54.6311 46.8145C54.7344 46.7673 54.8271 46.6998 54.9037 46.616C54.9803 46.5322 55.0393 46.4338 55.0771 46.3267C55.1149 46.2196 55.1307 46.1061 55.1237 45.9927C55.1166 45.8794 55.0869 45.7686 55.0361 45.667L55.035 45.6648ZM19.9125 48.574H16.3125V35.1359C18.5899 35.2349 20.8441 35.6371 23.0152 36.3318C22.2735 40.4812 21.2366 44.5723 19.9125 48.574ZM44.676 49.4819C37.5817 52.3889 37.3354 52.2944 34.2945 51.1492L22.1389 47.0947C22.8319 44.7985 23.7994 41.3909 24.3529 38.5694L38.8867 41.7993C40.7565 42.2662 41.5069 43.0019 41.6104 44.5432L39.9904 44.9482C39.3847 45.0994 38.753 45.1144 38.1409 44.992L30.825 43.5284C30.7163 43.5052 30.604 43.504 30.4949 43.5249C30.3857 43.5457 30.2818 43.5882 30.1893 43.6499C30.0969 43.7115 30.0177 43.7911 29.9564 43.8838C29.8952 43.9766 29.8531 44.0807 29.8327 44.1899C29.8109 44.2985 29.8108 44.4103 29.8322 44.519C29.8537 44.6277 29.8963 44.731 29.9578 44.8232C30.0192 44.9153 30.0982 44.9945 30.1903 45.0561C30.2823 45.1177 30.3856 45.1605 30.4942 45.1822L37.8157 46.6447C38.197 46.7201 38.5847 46.7578 38.9734 46.7572C39.4558 46.7582 39.9365 46.6993 40.4044 46.5817L42.6667 46.0192H42.6746L49.1389 44.4025C49.8439 44.2232 50.5854 44.2479 51.2769 44.4738C51.9685 44.6996 52.5816 45.1174 53.0449 45.6783L44.676 49.4819Z" fill="white"/>
<defs>
<linearGradient id="paint0_linear_604_647" x1="64.2581" y1="36.0001" x2="-2.22704" y2="35.2789" gradientUnits="userSpaceOnUse">
<stop stop-color="#08584A"/>
<stop offset="1" stop-color="#0D705E"/>
</linearGradient>
</defs>
</svg>
