<svg width="72" height="72" viewBox="0 0 72 72" fill="none" xmlns="http://www.w3.org/2000/svg">
<path d="M36 72C55.8823 72 72 55.8823 72 36C72 16.1177 55.8823 0 36 0C16.1177 0 0 16.1177 0 36C0 55.8823 16.1177 72 36 72Z" fill="url(#paint0_linear_604_637)"/>
<path d="M47.8125 54.5625C47.6404 54.5625 47.4683 54.5102 47.3214 54.4056L36 46.3174L24.6786 54.4039C24.3765 54.6199 23.9681 54.6115 23.6745 54.387C23.3792 54.1609 23.2678 53.7694 23.3978 53.4218L28.2325 40.5276L16.9465 32.4681C16.6478 32.2554 16.5212 31.8724 16.6326 31.5231C16.7456 31.1754 17.0713 30.9375 17.4375 30.9375H31.1603L35.1951 18.0298C35.4145 17.3244 36.5856 17.3244 36.805 18.0298L40.8398 30.9375H54.5625C54.9287 30.9375 55.2544 31.1754 55.3658 31.5231C55.4771 31.8724 55.3506 32.2554 55.0519 32.4681L43.7659 40.5293L48.6006 53.4235C48.7305 53.7711 48.6191 54.1626 48.3238 54.3887C48.1753 54.5034 47.9931 54.5625 47.8125 54.5625ZM36 44.4375C36.1721 44.4375 36.3443 44.4898 36.4911 44.5944L46.0525 51.4221L41.962 40.5141C41.827 40.1563 41.9518 39.753 42.2623 39.5303L51.93 32.625H40.2188C39.8492 32.625 39.5235 32.3854 39.4138 32.0327L36 21.1095L32.5862 32.0327C32.4765 32.3854 32.1508 32.625 31.7813 32.625H20.07L29.7394 39.5319C30.0499 39.753 30.1731 40.1563 30.0398 40.5158L25.9493 51.4238L35.5106 44.5961C35.6558 44.4898 35.8279 44.4375 36 44.4375Z" fill="white"/>
<defs>
<linearGradient id="paint0_linear_604_637" x1="64.2581" y1="36.0001" x2="-2.22704" y2="35.2789" gradientUnits="userSpaceOnUse">
<stop stop-color="#08584A"/>
<stop offset="1" stop-color="#0D705E"/>
</linearGradient>
</defs>
</svg>
