<svg width="236" height="65" viewBox="0 0 236 65" fill="none" xmlns="http://www.w3.org/2000/svg">
<g clip-path="url(#clip0_602_1595)">
<path d="M89.5667 17.6149V25.1963H88.8106C88.204 22.8416 87.2351 21.1084 85.9041 19.9969C84.5685 18.8853 82.7937 18.3272 80.5753 18.3272C77.6913 18.3272 75.4095 19.3662 73.7208 21.4487C72.0321 23.5267 71.19 26.3034 71.19 29.7697C71.19 33.5672 72.0774 36.6252 73.8612 38.9436C75.6404 41.262 77.972 42.419 80.856 42.419C84.8492 42.419 87.7965 40.5542 89.698 36.8293L90.3681 37.46C89.5169 39.4835 88.1451 41.0805 86.2481 42.2602C84.3512 43.4353 82.1961 44.0251 79.774 44.0251C77.4831 44.0251 75.3597 43.4852 73.4084 42.4008C71.4571 41.3165 69.9495 39.8238 68.8901 37.9273C67.8307 36.0263 67.301 33.8439 67.301 31.3713C67.301 27.3287 68.5415 23.9804 71.018 21.3308C73.499 18.6811 76.6229 17.3563 80.4033 17.3563C81.6709 17.3563 83.2782 17.5786 85.2249 18.0278C86.3206 18.2864 87.0766 18.418 87.4932 18.418C88.1406 18.418 88.5979 18.1503 88.8559 17.6149H89.5712H89.5667Z" fill="#F8F8F9"/>
<path d="M112.919 37.8501H113.675L112.118 43.3944H93.7409V42.6594C94.7777 42.6594 95.5157 42.3327 95.9548 41.6839C96.394 41.0351 96.6158 39.9417 96.6158 38.4082V22.406C96.6158 21.0313 96.4121 20.074 96.0001 19.534C95.5881 18.9941 94.8366 18.7219 93.7409 18.7219V17.9869H102.823V18.7219C101.813 18.7219 101.089 19.035 100.65 19.652C100.211 20.2736 99.9887 21.299 99.9887 22.7281V39.7149C99.9887 40.654 100.188 41.2983 100.582 41.6431C100.98 41.9879 101.741 42.1649 102.864 42.1649H107.903C109.46 42.1649 110.547 41.8926 111.167 41.3527C111.787 40.8128 112.371 39.6423 112.919 37.8547V37.8501Z" fill="#F8F8F9"/>
<path d="M130.386 43.399V42.664C131.839 42.664 132.568 42.1558 132.568 41.1441C132.568 40.8537 132.505 40.527 132.373 40.1686L130.019 33.1135H121.879L120.149 38.2177C119.715 39.5062 119.502 40.4408 119.502 41.017C119.502 42.0878 120.172 42.6368 121.508 42.6685V43.4035H114.956V42.6685C115.894 42.5369 116.622 42.2284 117.143 41.7339C117.664 41.2439 118.189 40.2231 118.723 38.6714L125.736 17.7057H128.348L135.71 39.6015C136.145 40.89 136.593 41.7248 137.064 42.0969C137.535 42.4734 138.286 42.6594 139.323 42.6594V43.3945H130.395L130.386 43.399ZM122.345 31.5482H129.498L125.904 20.7818L122.35 31.5482H122.345Z" fill="#F8F8F9"/>
<path d="M175.551 17.9824V18.7174C174.555 18.7899 173.727 19.2028 173.061 19.965C172.395 20.7227 171.734 22.0249 171.069 23.876L163.934 43.7437H163.146L156.233 24.983L149.514 43.7437H148.79L141.048 22.7689C140.613 21.612 140.228 20.759 139.889 20.201C139.549 19.6429 139.187 19.2573 138.798 19.044C138.408 18.8308 137.725 18.7174 136.742 18.7174V17.9824H146.146V18.7174C144.656 18.8898 143.914 19.4387 143.914 20.3643C143.914 20.7409 144.022 21.2173 144.24 21.7935L150.184 37.9363L155.567 23.1591L155.006 21.5122C154.648 20.4868 154.209 19.7654 153.693 19.3435C153.177 18.9261 152.434 18.7128 151.47 18.7128V17.9778H160.746V18.7128C159.108 18.7128 158.284 19.221 158.284 20.2327C158.284 20.6501 158.397 21.1855 158.628 21.8388L164.559 37.9363L169.761 23.7036C170.177 22.5602 170.385 21.6211 170.385 20.8861C170.385 19.4115 169.543 18.6765 167.85 18.6765V17.9824H175.547H175.551Z" fill="#F8F8F9"/>
<path d="M199.03 19.2165H195.182V38.7576C195.182 40.2911 195.367 41.3255 195.743 41.8609C196.119 42.3963 196.843 42.664 197.925 42.664V43.399H188.952V42.664C190.066 42.664 190.827 42.3555 191.225 41.7429C191.623 41.1259 191.827 40.0915 191.827 38.6305V19.2165H188.151C186.39 19.2165 185.113 19.4978 184.312 20.0604C183.51 20.623 183.062 21.5576 182.958 22.8552H182.202V17.0251H182.958C183.637 17.6603 184.905 17.9779 186.765 17.9779H200.062C201.977 17.9779 203.318 17.6603 204.083 17.0251H204.884V22.8552H204.386C204.069 21.4532 203.503 20.4959 202.688 19.9832C201.873 19.4706 200.651 19.2119 199.026 19.2119L199.03 19.2165Z" fill="#F8F8F9"/>
<path d="M207.184 43.8935C205.957 43.8935 204.907 43.4852 204.028 42.6685C203.15 41.8518 202.711 40.8673 202.711 39.7103C202.711 38.5534 203.091 37.705 203.847 36.9926C204.603 36.2803 206.143 35.5952 208.465 34.9464C209.919 34.5426 210.901 34.1978 211.408 33.9074V32.7369C211.408 31.5981 211.091 30.6771 210.457 29.9738C209.824 29.2751 208.972 28.9212 207.908 28.9212C206.944 28.9212 206.084 29.2252 205.337 29.8332C204.585 30.4411 204.06 31.2623 203.757 32.3013L202.955 32.0835C203.272 30.6226 203.961 29.4566 205.02 28.5719C206.079 27.6917 207.32 27.2516 208.751 27.2516C210.435 27.2516 211.802 27.7597 212.848 28.7806C213.894 29.7969 214.414 31.2124 214.414 33.0182V39.7557C214.414 40.7085 214.478 41.3573 214.6 41.693C214.722 42.0288 214.958 42.2012 215.302 42.2012C215.533 42.2012 215.718 42.1059 215.863 41.9108C216.008 41.7157 216.171 41.3074 216.361 40.6858H217.117C217.045 41.6703 216.737 42.4507 216.198 43.0269C215.659 43.6031 214.949 43.8935 214.07 43.8935C212.789 43.8935 211.902 43.1494 211.413 41.6613C210.634 42.5142 209.941 43.0995 209.339 43.4171C208.732 43.7347 208.022 43.8935 207.198 43.8935H207.184ZM211.399 40.2094V34.8784C210.951 35.0644 210.303 35.3049 209.452 35.5907C207.881 36.1261 206.876 36.6569 206.437 37.1832C205.998 37.7095 205.776 38.4218 205.776 39.3156C205.776 40.096 206.011 40.772 206.478 41.3391C206.944 41.9108 207.506 42.1966 208.153 42.1966C208.746 42.1966 209.362 42.0061 210.014 41.625C210.661 41.2439 211.123 40.7675 211.399 40.2049V40.2094Z" fill="#F8F8F9"/>
<path d="M224.61 43.399H218.231V42.664C219.367 42.664 220.205 42.5006 220.739 42.174C221.273 41.8473 221.984 41.1486 222.881 40.0778L226.258 36.0263L222.555 31.1489C221.776 30.119 221.119 29.4339 220.576 29.0936C220.037 28.7534 219.254 28.5447 218.231 28.4721V27.7371H226.856V28.4721C225.937 28.5447 225.475 28.8486 225.475 29.384C225.475 29.747 225.683 30.2234 226.104 30.8177L228.205 33.785L230.319 31.1489C230.867 30.482 231.138 29.9012 231.138 29.4067C231.138 28.7851 230.726 28.4721 229.903 28.4721V27.7371H236.11V28.4721C235.145 28.5719 234.376 28.8078 233.805 29.1798C233.235 29.5519 232.47 30.305 231.501 31.4529L228.929 34.5744L233.62 40.7992C234.584 42.0469 235.752 42.6685 237.124 42.6685V43.4035H228.884V42.6685C229.676 42.5551 230.07 42.2647 230.07 41.8019C230.07 41.5116 229.912 41.1486 229.595 40.713L226.815 36.9382L224.062 40.4499C223.673 40.9308 223.478 41.3618 223.478 41.7566C223.478 42.3237 223.854 42.6277 224.605 42.6685V43.4035L224.61 43.399Z" fill="#F8F8F9"/>
<path d="M43.9579 4.48319C43.8346 4.40516 43.7113 4.33039 43.588 4.25236C39.2312 1.55725 34.0957 0 28.597 0C12.8013 0 0 12.8286 0 28.6579C0 31.8797 0.528792 34.9747 1.50852 37.8649C1.5734 38.0534 1.63828 38.2387 1.70641 38.4241C1.77454 38.6126 1.84591 38.8012 1.91728 38.9865C2.08597 38.0859 2.35523 37.2179 2.75426 36.3954C5.09976 31.5676 6.764 26.3172 10.9522 22.4614C13.0219 20.5531 14.4201 17.9132 16.2466 15.4392C16.3861 15.8651 16.4639 16.1089 16.5256 16.2975C19.5588 14.5679 22.6051 12.8286 25.6513 11.0893C25.8265 11.3201 25.9984 11.5477 26.1736 11.7785C25.2944 12.5555 24.3407 13.2675 23.5459 14.1258C21.0836 16.7884 18.9587 19.8444 16.1882 22.1136C13.249 24.5226 12.3763 28.089 10.1898 30.8166C7.32199 34.396 5.56367 38.5086 3.68857 42.7447C3.17275 43.9118 2.6472 45.0919 2.08597 46.2688C2.08597 46.2688 2.08597 46.2656 2.08597 46.2623C2.01136 46.4541 1.93025 46.6427 1.84266 46.828C1.76156 47.0003 1.67721 47.1726 1.59286 47.3449L1.7648 48.4698L2.6764 46.5517C3.17275 45.5113 3.63666 44.471 4.09408 43.4404C5.29765 45.4398 6.73804 47.2799 8.37308 48.9217C8.45743 49.0062 8.54178 49.0875 8.62613 49.1687C8.71047 49.25 8.79482 49.3345 8.87917 49.4158C10.219 46.1518 11.5685 42.8877 12.97 39.6497C13.2685 38.9572 14.2417 38.5671 14.8711 38.0047C15.2733 37.6438 15.7275 37.2764 15.9806 36.8148C18.0081 33.0696 19.9416 29.2691 22.0146 25.5499C22.9943 23.7944 24.1752 22.1266 26.4818 21.4146C26.378 22.1428 26.3001 22.6988 26.1541 23.7196C27.0398 23.0336 27.7243 22.6533 28.2141 22.0973C29.6189 20.5011 31.0106 18.882 32.2855 17.1818C33.2166 15.9399 33.94 14.5939 35.6659 14.2136C36.1914 14.0998 36.6489 13.4658 37.0414 12.9879C38.936 10.6862 40.7949 8.35843 42.7965 6.12171C40.9473 12.406 38.5207 18.3619 33.661 23.2514C33.5086 22.8288 33.4047 22.5817 33.3301 22.3249C33.2652 22.1071 33.236 21.8795 33.1809 21.6064C32.9863 21.6942 32.7981 21.717 32.7105 21.8242C30.1866 25.0395 27.6691 28.2646 25.1549 31.4896C24.9473 31.7529 24.7267 32.2731 24.5548 32.2731C24.5548 32.2731 24.5483 32.2731 24.545 32.2731C24.4315 32.2601 24.3212 32.2536 24.2174 32.2536C22.5304 32.2536 22.2677 33.8791 21.6318 34.9097C19.0008 39.175 16.4737 43.5022 13.966 47.8391C13.2036 49.1557 12.3926 50.4302 11.4972 51.633C9.93351 53.7332 8.11031 55.6221 5.81671 57.1566C5.8232 57.1403 5.82645 57.124 5.83293 57.1078C5.69019 57.1956 5.54745 57.2768 5.40147 57.3516C5.26521 57.4199 5.12572 57.4849 4.98622 57.5467L4.54502 58.7983L6.18006 57.7027C8.35037 56.2463 10.2352 54.4257 12.0227 52.0199C13.6805 53.2033 15.468 54.2111 17.3593 55.0206C17.4599 55.0629 17.5604 55.1051 17.661 55.1474C17.7616 55.1897 17.8621 55.2319 17.9627 55.271C19.176 52.6539 20.3893 50.0335 21.5994 47.4164C24.451 45.9762 25.2815 43.034 26.7316 40.5372C27.854 38.5996 29.0349 36.6847 30.3423 34.8674C30.9035 34.0904 31.8541 33.593 32.8403 32.7998C32.8792 33.5345 32.8954 33.8596 32.9181 34.266C33.0836 34.1684 33.2458 34.1229 33.3269 34.0156C35.6691 30.9564 38.0082 27.8907 40.3407 24.8217C40.584 24.5031 40.7397 23.9699 41.0479 23.8659C44.6554 22.65 45.9108 18.9698 48.9344 16.4828C46.3099 23.2319 43.8151 29.578 38.9522 34.8544C38.6992 34.2855 38.5272 33.8954 38.3066 33.4012C37.4242 34.396 36.6326 35.2998 35.8281 36.1906C30.3682 42.2148 25.1322 48.382 21.3593 55.6903C21.2523 55.8984 21.1322 56.0967 21.0187 56.2983C19.6075 58.7658 17.5864 60.8302 15.2312 62.4915C15.2182 62.5045 15.202 62.5175 15.189 62.5305C15.1209 62.5988 15.0462 62.6573 14.9716 62.7191C14.884 62.7971 14.7964 62.8751 14.7056 62.9467L14.9132 63.0637L15.2733 63.2653L15.6107 63.0279C18.2612 61.1586 20.292 58.9511 21.6772 56.4706C23.6659 56.9647 25.7356 57.2541 27.8638 57.3061C28.013 57.3094 28.159 57.3094 28.3082 57.3126C28.4023 57.3126 28.4996 57.3159 28.5937 57.3159C28.6489 57.3159 28.7008 57.3159 28.7559 57.3159C30.3066 55.6773 31.8703 54.0616 33.6675 52.7709C36.7494 50.5602 37.8427 47.0653 40.1785 44.471C44.1136 40.1016 46.3196 34.7634 49.2361 29.773C49.2036 34.2985 49.3301 38.8467 46.1217 42.6634C45.5053 43.3949 45.1939 44.38 44.7138 45.2285C43.1241 48.0341 41.3918 50.6447 38.8419 52.7969C37.6091 53.8372 36.571 55.1149 35.5296 56.4673C34.7867 57.4329 34.0438 58.4342 33.2231 59.4225C33.0576 58.9446 32.9733 58.6976 32.9214 58.5513C29.8103 60.089 26.7056 61.6202 23.6042 63.1547C23.601 63.1482 23.5945 63.1385 23.5913 63.132C23.4939 63.1807 23.3934 63.2295 23.2961 63.275C23.1955 63.3205 23.0949 63.366 22.9943 63.4083L23.0495 63.4993L23.3609 64.0065L23.893 63.7432L32.5483 59.468L32.6067 59.6404L32.9863 60.736L33.7259 59.8419C34.3488 59.0877 34.9295 58.3269 35.494 57.5889C35.8573 57.111 36.2174 56.6396 36.5775 56.1845C48.4834 52.7221 57.1874 41.7109 57.1874 28.6612C57.1874 18.5017 51.9092 9.57757 43.9546 4.48644L43.9579 4.48319Z" fill="#F8F8F9"/>
</g>
<defs>
<clipPath id="clip0_602_1595">
<rect width="236" height="65" fill="white"/>
</clipPath>
</defs>
</svg>
