<svg width="64" height="44" viewBox="0 0 64 44" fill="none" xmlns="http://www.w3.org/2000/svg">
<g clip-path="url(#clip0_712_1624)">
<path d="M8.27673 33.4437V36.2619H7.99568C7.77016 35.3866 7.41001 34.7424 6.91522 34.3292C6.41876 33.916 5.75904 33.7085 4.9344 33.7085C3.86236 33.7085 3.01416 34.0947 2.38642 34.8688C1.75868 35.6413 1.44565 36.6734 1.44565 37.962C1.44565 39.3736 1.77551 40.5103 2.43859 41.3721C3.09999 42.2339 3.9667 42.664 5.03874 42.664C6.5231 42.664 7.61869 41.9708 8.32553 40.5862L8.57461 40.8206C8.25821 41.5728 7.74828 42.1665 7.04313 42.605C6.33797 43.0418 5.53689 43.261 4.63652 43.261C3.78494 43.261 2.99564 43.0603 2.27029 42.6573C1.54494 42.2542 0.984525 41.6993 0.590715 40.9943C0.196906 40.2877 0 39.4765 0 38.5573C0 37.0546 0.461128 35.8099 1.3817 34.825C2.30395 33.8401 3.46518 33.3476 4.87044 33.3476C5.34167 33.3476 5.93912 33.4302 6.66278 33.5972C7.07006 33.6933 7.35111 33.7422 7.50594 33.7422C7.7466 33.7422 7.91657 33.6427 8.0125 33.4437H8.27841H8.27673Z" fill="#F8F8F9"/>
<path d="M16.9573 40.9656H17.2384L16.6594 43.0266H9.82837V42.7534C10.2138 42.7534 10.4881 42.6319 10.6513 42.3908C10.8146 42.1496 10.897 41.7431 10.897 41.1731V35.2247C10.897 34.7137 10.8213 34.3578 10.6682 34.1571C10.515 33.9564 10.2356 33.8552 9.82837 33.8552V33.582H13.2044V33.8552C12.8291 33.8552 12.5598 33.9716 12.3965 34.201C12.2333 34.432 12.1508 34.8132 12.1508 35.3444V41.6588C12.1508 42.0079 12.2249 42.2474 12.3713 42.3756C12.5194 42.5038 12.8021 42.5695 13.2195 42.5695H15.0926C15.6716 42.5695 16.0755 42.4683 16.306 42.2677C16.5366 42.067 16.7537 41.6318 16.9573 40.9673V40.9656Z" fill="#F8F8F9"/>
<path d="M23.4501 43.0283V42.7551C23.9904 42.7551 24.2613 42.5662 24.2613 42.1901C24.2613 42.0822 24.2378 41.9607 24.189 41.8275L23.3138 39.2049H20.2879L19.645 41.1023C19.4834 41.5813 19.4043 41.9287 19.4043 42.1429C19.4043 42.5409 19.6534 42.745 20.1499 42.7568V43.03H17.7147V42.7568C18.063 42.7079 18.334 42.5932 18.5275 42.4094C18.7211 42.2272 18.9163 41.8477 19.1149 41.271L21.7218 33.4775H22.6928L25.4293 41.6167C25.5908 42.0957 25.7575 42.406 25.9325 42.5443C26.1075 42.6843 26.3869 42.7534 26.7723 42.7534V43.0266H23.4535L23.4501 43.0283ZM20.4612 38.6231H23.1203L21.784 34.6209L20.4629 38.6231H20.4612Z" fill="#F8F8F9"/>
<path d="M40.2393 33.5803V33.8535C39.869 33.8805 39.561 34.034 39.3136 34.3173C39.0662 34.599 38.8205 35.083 38.5731 35.7711L35.9208 43.1565H35.628L33.0581 36.1827L30.5606 43.1565H30.2914L27.4135 35.3596C27.252 34.9296 27.1089 34.6125 26.9827 34.405C26.8565 34.1976 26.7218 34.0542 26.5771 33.975C26.4324 33.8957 26.1782 33.8535 25.813 33.8535V33.5803H29.3085V33.8535C28.7548 33.9176 28.4788 34.1217 28.4788 34.4658C28.4788 34.6057 28.5192 34.7828 28.6 34.997L30.8097 40.9977L32.8107 35.5047L32.602 34.8925C32.4691 34.5113 32.3058 34.2431 32.114 34.0863C31.9221 33.9311 31.6461 33.8519 31.2877 33.8519V33.5786H34.736V33.8519C34.1268 33.8519 33.8205 34.0408 33.8205 34.4169C33.8205 34.572 33.8626 34.771 33.9484 35.0139L36.1531 40.9977L38.0868 35.707C38.2416 35.282 38.319 34.9329 38.319 34.6597C38.319 34.1116 38.006 33.8384 37.3766 33.8384V33.5803H40.2376H40.2393Z" fill="#F8F8F9"/>
<path d="M48.967 34.0391H47.5365V41.303C47.5365 41.873 47.6055 42.2576 47.7452 42.4566C47.8849 42.6556 48.1541 42.7551 48.5564 42.7551V43.0283H45.2208V42.7551C45.6348 42.7551 45.9175 42.6404 46.0656 42.4127C46.2137 42.1834 46.2894 41.7988 46.2894 41.2558V34.0391H44.9229C44.2682 34.0391 43.7936 34.1436 43.4957 34.3528C43.1979 34.5619 43.0312 34.9093 42.9925 35.3917H42.7115V33.2245H42.9925C43.245 33.4606 43.7162 33.5787 44.4079 33.5787H49.3507C50.0626 33.5787 50.5607 33.4606 50.8452 33.2245H51.143V35.3917H50.9579C50.8401 34.8705 50.6297 34.5147 50.3268 34.3241C50.0239 34.1335 49.5695 34.0374 48.9653 34.0374L48.967 34.0391Z" fill="#F8F8F9"/>
<path d="M51.998 43.2121C51.5419 43.2121 51.1514 43.0604 50.8249 42.7568C50.4985 42.4532 50.3352 42.0872 50.3352 41.6572C50.3352 41.2271 50.4766 40.9117 50.7576 40.6469C51.0387 40.3821 51.6109 40.1275 52.4742 39.8863C53.0145 39.7362 53.3797 39.608 53.5681 39.5001V39.065C53.5681 38.6416 53.4503 38.2993 53.2147 38.0379C52.9791 37.7781 52.6627 37.6466 52.2672 37.6466C51.9088 37.6466 51.589 37.7596 51.3113 37.9856C51.0319 38.2116 50.8367 38.5168 50.724 38.9031L50.4261 38.8221C50.5439 38.279 50.7997 37.8456 51.1935 37.5167C51.5873 37.1895 52.0484 37.0259 52.5802 37.0259C53.2063 37.0259 53.7146 37.2148 54.1033 37.5943C54.4921 37.9721 54.6856 38.4983 54.6856 39.1695V41.674C54.6856 42.0282 54.7092 42.2694 54.7546 42.3942C54.8001 42.519 54.8876 42.5831 55.0155 42.5831C55.1013 42.5831 55.1703 42.5477 55.2242 42.4751C55.278 42.4026 55.3386 42.2508 55.4093 42.0198H55.6903C55.6634 42.3857 55.549 42.6758 55.3487 42.89C55.1484 43.1042 54.8842 43.2121 54.5577 43.2121C54.0814 43.2121 53.7516 42.9356 53.5698 42.3824C53.2804 42.6994 53.0229 42.917 52.799 43.0351C52.5735 43.1531 52.3093 43.2121 52.003 43.2121H51.998ZM53.5648 41.8427V39.861C53.3982 39.9302 53.1575 40.0195 52.8411 40.1258C52.2571 40.3248 51.8835 40.5221 51.7203 40.7178C51.557 40.9134 51.4746 41.1782 51.4746 41.5104C51.4746 41.8005 51.5621 42.0518 51.7354 42.2626C51.9088 42.4751 52.1174 42.5814 52.3581 42.5814C52.5786 42.5814 52.8075 42.5105 53.0498 42.3689C53.2905 42.2272 53.4621 42.0501 53.5648 41.841V41.8427Z" fill="#F8F8F9"/>
<path d="M58.4756 43.0283H56.1043V42.7551C56.5267 42.7551 56.8381 42.6944 57.0367 42.5729C57.2353 42.4515 57.4995 42.1918 57.8327 41.7938L59.0882 40.2877L57.7115 38.4747C57.4221 38.0918 57.178 37.8372 56.9761 37.7107C56.7758 37.5842 56.4847 37.5066 56.1043 37.4796V37.2064H59.3103V37.4796C58.9687 37.5066 58.797 37.6196 58.797 37.8186C58.797 37.9535 58.8744 38.1306 59.031 38.3515L59.8118 39.4545L60.5978 38.4747C60.8014 38.2267 60.9024 38.0109 60.9024 37.827C60.9024 37.596 60.7492 37.4796 60.4429 37.4796V37.2064H62.7503V37.4796C62.3918 37.5167 62.1057 37.6044 61.8936 37.7427C61.6816 37.881 61.3972 38.161 61.037 38.5877L60.0811 39.748L61.8246 42.0619C62.1831 42.5257 62.6173 42.7568 63.1272 42.7568V43.03H60.0643V42.7568C60.3588 42.7146 60.5052 42.6067 60.5052 42.4346C60.5052 42.3267 60.4463 42.1918 60.3285 42.0299L59.2952 40.6267L58.2719 41.9321C58.1272 42.1108 58.0548 42.2711 58.0548 42.4178C58.0548 42.6286 58.1945 42.7416 58.4739 42.7568V43.03L58.4756 43.0283Z" fill="#F8F8F9"/>
<path d="M38.8737 2.07555C38.8176 2.03943 38.7615 2.00481 38.7053 1.96869C36.7214 0.720949 34.3829 0 31.879 0C24.6863 0 18.8571 5.93917 18.8571 13.2676C18.8571 14.7591 19.0979 16.192 19.544 17.53C19.5736 17.6173 19.6031 17.7031 19.6341 17.7889C19.6652 17.8762 19.6977 17.9635 19.7302 18.0493C19.807 17.6324 19.9296 17.2305 20.1113 16.8497C21.1793 14.6146 21.9372 12.1839 23.8443 10.3988C24.7868 9.51532 25.4235 8.29317 26.2551 7.14778C26.3187 7.34495 26.3541 7.45783 26.3822 7.54513C27.7634 6.74441 29.1505 5.93917 30.5377 5.13394C30.6174 5.2408 30.6957 5.34616 30.7755 5.45302C30.3752 5.81274 29.9409 6.14236 29.5789 6.53971C28.4577 7.7724 27.4901 9.18721 26.2286 10.2378C24.8902 11.3531 24.4928 13.0042 23.4971 14.267C22.1913 15.9241 21.3906 17.8281 20.5367 19.7892C20.3019 20.3296 20.0625 20.8759 19.807 21.4208C19.807 21.4208 19.807 21.4193 19.807 21.4177C19.773 21.5066 19.7361 21.5938 19.6962 21.6796C19.6593 21.7594 19.6209 21.8392 19.5824 21.919L19.6607 22.4397L20.0758 21.5517C20.3019 21.0701 20.5131 20.5884 20.7214 20.1113C21.2695 21.037 21.9253 21.8888 22.6699 22.6489C22.7083 22.6881 22.7467 22.7257 22.7851 22.7633C22.8235 22.8009 22.8619 22.8401 22.9003 22.8777C23.5104 21.3666 24.125 19.8554 24.7631 18.3563C24.899 18.0358 25.3422 17.8551 25.6288 17.5948C25.812 17.4277 26.0188 17.2576 26.134 17.0439C27.0573 15.31 27.9377 13.5505 28.8817 11.8287C29.3278 11.0159 29.8655 10.2438 30.9158 9.91418C30.8686 10.2513 30.8331 10.5087 30.7666 10.9813C31.1699 10.6637 31.4816 10.4876 31.7047 10.2302C32.3443 9.49124 32.9781 8.74169 33.5586 7.95452C33.9826 7.37957 34.312 6.75645 35.0979 6.58035C35.3372 6.52767 35.5455 6.23418 35.7243 6.01292C36.587 4.9473 37.4334 3.86964 38.3449 2.83413C37.5029 5.74351 36.3979 8.50087 34.185 10.7646C34.1155 10.5689 34.0683 10.4545 34.0343 10.3356C34.0048 10.2348 33.9915 10.1294 33.9663 10.003C33.8777 10.0436 33.792 10.0541 33.7521 10.1038C32.6029 11.5924 31.4565 13.0854 30.3116 14.5785C30.2171 14.7004 30.1167 14.9412 30.0384 14.9412C30.0384 14.9412 30.0354 14.9412 30.0339 14.9412C29.9822 14.9352 29.932 14.9322 29.8847 14.9322C29.1166 14.9322 28.9969 15.6848 28.7074 16.1619C27.5093 18.1366 26.3585 20.1399 25.2166 22.1477C24.8695 22.7573 24.5002 23.3473 24.0925 23.9042C23.3804 24.8765 22.5502 25.751 21.5058 26.4614C21.5088 26.4539 21.5102 26.4463 21.5132 26.4388C21.4482 26.4794 21.3832 26.5171 21.3167 26.5517C21.2547 26.5833 21.1912 26.6134 21.1276 26.642L20.9267 27.2215L21.6713 26.7142C22.6595 26.0399 23.5178 25.1971 24.3318 24.0833C25.0866 24.6312 25.9006 25.0977 26.7618 25.4725C26.8076 25.4921 26.8534 25.5117 26.8992 25.5312C26.945 25.5508 26.9908 25.5704 27.0366 25.5884C27.5891 24.3768 28.1416 23.1637 28.6926 21.9521C29.9911 21.2853 30.3693 19.9232 31.0296 18.7672C31.5407 17.8702 32.0784 16.9837 32.6738 16.1423C32.9293 15.7826 33.3622 15.5523 33.8112 15.1851C33.829 15.5252 33.8363 15.6757 33.8467 15.8639C33.922 15.8187 33.9959 15.7977 34.0328 15.748C35.0994 14.3317 36.1645 12.9124 37.2266 11.4915C37.3374 11.344 37.4083 11.0972 37.5487 11.049C39.1913 10.4861 39.763 8.78233 41.1398 7.63092C39.9447 10.7555 38.8087 13.6935 36.5944 16.1363C36.4791 15.8729 36.4008 15.6923 36.3004 15.4635C35.8986 15.9241 35.5381 16.3425 35.1718 16.7549C32.6856 19.5439 30.3013 22.3991 28.5833 25.7826C28.5345 25.8789 28.4799 25.9707 28.4282 26.064C27.7856 27.2064 26.8652 28.1622 25.7928 28.9313C25.7869 28.9373 25.7795 28.9433 25.7736 28.9493C25.7425 28.9809 25.7086 29.008 25.6746 29.0366C25.6347 29.0728 25.5948 29.1089 25.5535 29.142L25.648 29.1962L25.812 29.2895L25.9656 29.1796C27.1725 28.3142 28.0973 27.2922 28.728 26.1438C29.6336 26.3726 30.5761 26.5065 31.5451 26.5306C31.6131 26.5321 31.6796 26.5321 31.7475 26.5336C31.7904 26.5336 31.8347 26.5351 31.8775 26.5351C31.9026 26.5351 31.9263 26.5351 31.9514 26.5351C32.6575 25.7766 33.3695 25.0285 34.1879 24.431C35.5913 23.4075 36.0891 21.7895 37.1528 20.5884C38.9446 18.5656 39.9492 16.0942 41.2772 13.7838C41.2624 15.8789 41.3201 17.9846 39.8591 19.7516C39.5784 20.0902 39.4366 20.5463 39.2179 20.9391C38.4941 22.238 37.7052 23.4466 36.5441 24.443C35.9828 24.9247 35.5101 25.5162 35.0359 26.1423C34.6976 26.5893 34.3593 27.0529 33.9855 27.5104C33.9102 27.2892 33.8718 27.1748 33.8482 27.1071C32.4315 27.819 31.0178 28.5279 29.6055 29.2383C29.604 29.2353 29.6011 29.2308 29.5996 29.2278C29.5553 29.2504 29.5095 29.2729 29.4652 29.294C29.4194 29.3151 29.3736 29.3361 29.3278 29.3557L29.3529 29.3979L29.4947 29.6327L29.737 29.5107L33.6783 27.5315L33.7049 27.6113L33.8777 28.1185L34.2145 27.7046C34.4982 27.3554 34.7626 27.0032 35.0196 26.6616C35.1851 26.4403 35.349 26.2221 35.513 26.0114C40.9345 24.4084 44.8979 19.3106 44.8979 13.2691C44.8979 8.56559 42.4945 4.43406 38.8723 2.07705L38.8737 2.07555Z" fill="#F8F8F9"/>
</g>
<defs>
<clipPath id="clip0_712_1624">
<rect width="63.7551" height="44" fill="white"/>
</clipPath>
</defs>
</svg>
