<svg width="27" height="24" viewBox="0 0 27 24" fill="none" xmlns="http://www.w3.org/2000/svg">
<path d="M22.2203 8.50986C22.6318 9.6239 22.8437 10.8016 22.8463 11.9891C22.8689 14.0485 22.2782 16.0682 21.1493 17.7915C20.0203 19.5149 18.4041 20.8641 16.5058 21.6679C14.6076 22.4717 12.513 22.6938 10.4881 22.3059C8.46328 21.9179 6.59954 20.9376 5.13365 19.4893C3.66775 18.0411 2.66587 16.1903 2.25526 14.172C1.84464 12.1537 2.04383 10.0591 2.82752 8.15411C3.61121 6.24916 4.94404 4.61988 6.65669 3.47323C8.36934 2.32658 10.3845 1.71431 12.4463 1.71418C14.6438 1.71416 16.7849 2.40858 18.5633 3.69804L19.9133 2.55727C18.1286 1.16983 15.9914 0.307809 13.7426 0.0683453C11.4939 -0.171118 9.22283 0.221488 7.1854 1.20193C5.14798 2.18237 3.42512 3.71169 2.21095 5.61757C0.996785 7.52346 0.339549 9.73018 0.313293 11.9891C0.342335 15.1846 1.63348 18.2393 3.90579 20.4887C6.17811 22.738 9.24774 24 12.4468 24C15.6458 24 18.7155 22.738 20.9878 20.4887C23.2601 18.2393 24.5513 15.1846 24.5803 11.9891C24.5794 10.3147 24.2215 8.65973 23.5303 7.13434L22.2203 8.50986Z" fill="#F0F8F9"/>
<path d="M24.5803 0.85791L12.4463 11.1328L7.24631 6.85145L5.51331 8.5636L12.4463 16.2693L26.3133 1.71399L24.5803 0.85791Z" fill="#F0F8F9"/>
</svg>
