<svg width="193" height="59" viewBox="0 0 193 59" fill="none" xmlns="http://www.w3.org/2000/svg">
<mask id="mask0_608_1707" style="mask-type:alpha" maskUnits="userSpaceOnUse" x="0" y="0" width="193" height="59">
<rect x="0.5" y="0.5" width="192" height="58" rx="3.5" fill="#235D92" stroke="black"/>
</mask>
<g mask="url(#mask0_608_1707)">
<g opacity="0.5">
<rect x="5.35971" y="11" width="4.80187" height="4.99382" rx="1.34409" fill="#487EB0"/>
<rect x="24.5673" y="11" width="4.80187" height="4.99382" rx="1.34409" fill="#487EB0"/>
<rect x="43.7749" y="11" width="4.80188" height="4.99382" rx="1.34409" fill="#487EB0"/>
<rect x="62.9821" y="11" width="4.80187" height="4.99382" rx="1.34409" fill="#487EB0"/>
<rect x="82.1897" y="11" width="4.80187" height="4.99382" rx="1.34409" fill="#487EB0"/>
<rect x="101.397" y="11" width="4.80187" height="4.99382" rx="1.34409" fill="#487EB0"/>
<rect x="120.605" y="11" width="4.80187" height="4.99382" rx="1.34409" fill="#487EB0"/>
<rect x="139.812" y="11" width="4.80186" height="4.99382" rx="1.34409" fill="#487EB0"/>
<rect x="159.02" y="11" width="4.80188" height="4.99382" rx="1.34409" fill="#487EB0"/>
<rect x="178.227" y="11" width="4.80186" height="4.99382" rx="1.34409" fill="#487EB0"/>
<rect x="5.35971" y="30.9753" width="4.80187" height="4.99382" rx="1.34409" fill="#487EB0"/>
<rect x="24.5673" y="30.9753" width="4.80187" height="4.99382" rx="1.34409" fill="#487EB0"/>
<rect x="43.7749" y="30.9753" width="4.80188" height="4.99382" rx="1.34409" fill="#487EB0"/>
<rect x="62.9821" y="30.9753" width="4.80187" height="4.99382" rx="1.34409" fill="#487EB0"/>
<rect x="82.1897" y="30.9753" width="4.80187" height="4.99382" rx="1.34409" fill="#487EB0"/>
<rect x="101.397" y="30.9753" width="4.80187" height="4.99382" rx="1.34409" fill="#487EB0"/>
<rect x="120.605" y="30.9753" width="4.80187" height="4.99382" rx="1.34409" fill="#487EB0"/>
<rect x="139.812" y="30.9753" width="4.80186" height="4.99382" rx="1.34409" fill="#487EB0"/>
<rect x="159.02" y="30.9753" width="4.80188" height="4.99382" rx="1.34409" fill="#487EB0"/>
<rect x="178.227" y="30.9753" width="4.80186" height="4.99382" rx="1.34409" fill="#487EB0"/>
<rect x="5.35971" y="50.9504" width="4.80187" height="4.99382" rx="1.34409" fill="#487EB0"/>
<rect x="24.5673" y="50.9504" width="4.80187" height="4.99382" rx="1.34409" fill="#487EB0"/>
<rect x="43.7749" y="50.9504" width="4.80188" height="4.99382" rx="1.34409" fill="#487EB0"/>
<rect x="62.9821" y="50.9504" width="4.80187" height="4.99382" rx="1.34409" fill="#487EB0"/>
<rect x="82.1897" y="50.9504" width="4.80187" height="4.99382" rx="1.34409" fill="#487EB0"/>
<rect x="101.397" y="50.9504" width="4.80187" height="4.99382" rx="1.34409" fill="#487EB0"/>
<rect x="120.605" y="50.9504" width="4.80187" height="4.99382" rx="1.34409" fill="#487EB0"/>
<rect x="139.812" y="50.9504" width="4.80186" height="4.99382" rx="1.34409" fill="#487EB0"/>
<rect x="159.02" y="50.9504" width="4.80188" height="4.99382" rx="1.34409" fill="#487EB0"/>
<rect x="178.227" y="50.9504" width="4.80186" height="4.99382" rx="1.34409" fill="#487EB0"/>
</g>
</g>
</svg>
