<svg width="517" height="241" viewBox="0 0 517 241" fill="none" xmlns="http://www.w3.org/2000/svg">
<mask id="mask0_616_1581" style="mask-type:alpha" maskUnits="userSpaceOnUse" x="0" y="112" width="269" height="129">
<rect y="112" width="269" height="129" fill="#D9D9D9"/>
</mask>
<g mask="url(#mask0_616_1581)">
<g opacity="0.5">
<rect x="14" y="122.273" width="6.8919" height="7.16365" rx="1.34409" fill="#7DAC9D"/>
<rect x="41.5677" y="122.273" width="6.8919" height="7.16365" rx="1.34409" fill="#7DAC9D"/>
<rect x="69.1355" y="122.273" width="6.8919" height="7.16365" rx="1.34409" fill="#7DAC9D"/>
<rect x="96.7027" y="122.273" width="6.89191" height="7.16365" rx="1.34409" fill="#7DAC9D"/>
<rect x="124.27" y="122.273" width="6.8919" height="7.16365" rx="1.34409" fill="#7DAC9D"/>
<rect x="151.838" y="122.273" width="6.89191" height="7.16365" rx="1.34409" fill="#7DAC9D"/>
<rect x="179.406" y="122.273" width="6.89191" height="7.16365" rx="1.34409" fill="#7DAC9D"/>
<rect x="206.974" y="122.273" width="6.89191" height="7.16365" rx="1.34409" fill="#7DAC9D"/>
<rect x="234.541" y="122.273" width="6.89191" height="7.16365" rx="1.34409" fill="#7DAC9D"/>
<rect x="262.108" y="122.273" width="6.89189" height="7.16365" rx="1.34409" fill="#7DAC9D"/>
<rect x="14" y="150.927" width="6.8919" height="7.16365" rx="1.34409" fill="#7DAC9D"/>
<rect x="14" y="178.564" width="6.8919" height="7.16365" rx="1.34409" fill="#7DAC9D"/>
<rect x="14" y="206.2" width="6.8919" height="7.16365" rx="1.34409" fill="#7DAC9D"/>
<rect x="14" y="233.836" width="6.8919" height="7.16365" rx="1.34409" fill="#7DAC9D"/>
<rect x="41.5677" y="150.927" width="6.8919" height="7.16365" rx="1.34409" fill="#7DAC9D"/>
<rect x="41.5677" y="178.564" width="6.8919" height="7.16365" rx="1.34409" fill="#7DAC9D"/>
<rect x="41.5677" y="206.2" width="6.8919" height="7.16365" rx="1.34409" fill="#7DAC9D"/>
<rect x="41.5677" y="233.836" width="6.8919" height="7.16365" rx="1.34409" fill="#7DAC9D"/>
<rect x="69.1355" y="150.927" width="6.8919" height="7.16365" rx="1.34409" fill="#7DAC9D"/>
<rect x="69.1355" y="178.564" width="6.8919" height="7.16365" rx="1.34409" fill="#7DAC9D"/>
<rect x="69.1355" y="206.2" width="6.8919" height="7.16365" rx="1.34409" fill="#7DAC9D"/>
<rect x="69.1355" y="233.836" width="6.8919" height="7.16365" rx="1.34409" fill="#7DAC9D"/>
<rect x="96.7027" y="150.927" width="6.89191" height="7.16365" rx="1.34409" fill="#7DAC9D"/>
<rect x="96.7027" y="178.564" width="6.89191" height="7.16365" rx="1.34409" fill="#7DAC9D"/>
<rect x="96.7027" y="206.2" width="6.89191" height="7.16365" rx="1.34409" fill="#7DAC9D"/>
<rect x="96.7027" y="233.836" width="6.89191" height="7.16365" rx="1.34409" fill="#7DAC9D"/>
<rect x="124.27" y="150.927" width="6.8919" height="7.16365" rx="1.34409" fill="#7DAC9D"/>
<rect x="124.27" y="178.564" width="6.8919" height="7.16365" rx="1.34409" fill="#7DAC9D"/>
<rect x="124.27" y="206.2" width="6.8919" height="7.16365" rx="1.34409" fill="#7DAC9D"/>
<rect x="124.27" y="233.836" width="6.8919" height="7.16365" rx="1.34409" fill="#7DAC9D"/>
<rect x="151.838" y="150.927" width="6.89191" height="7.16365" rx="1.34409" fill="#7DAC9D"/>
<rect x="151.838" y="178.564" width="6.89191" height="7.16365" rx="1.34409" fill="#7DAC9D"/>
<rect x="151.838" y="206.2" width="6.89191" height="7.16365" rx="1.34409" fill="#7DAC9D"/>
<rect x="151.838" y="233.836" width="6.89191" height="7.16365" rx="1.34409" fill="#7DAC9D"/>
<rect x="179.406" y="150.927" width="6.89191" height="7.16365" rx="1.34409" fill="#7DAC9D"/>
<rect x="179.406" y="178.564" width="6.89191" height="7.16365" rx="1.34409" fill="#7DAC9D"/>
<rect x="179.406" y="206.2" width="6.89191" height="7.16365" rx="1.34409" fill="#7DAC9D"/>
<rect x="179.406" y="233.836" width="6.89191" height="7.16365" rx="1.34409" fill="#7DAC9D"/>
<rect x="206.974" y="150.927" width="6.89191" height="7.16365" rx="1.34409" fill="#7DAC9D"/>
<rect x="206.974" y="178.564" width="6.89191" height="7.16365" rx="1.34409" fill="#7DAC9D"/>
<rect x="206.974" y="206.2" width="6.89191" height="7.16365" rx="1.34409" fill="#7DAC9D"/>
<rect x="206.974" y="233.836" width="6.89191" height="7.16365" rx="1.34409" fill="#7DAC9D"/>
<rect x="234.541" y="150.927" width="6.89191" height="7.16365" rx="1.34409" fill="#7DAC9D"/>
<rect x="234.541" y="178.564" width="6.89191" height="7.16365" rx="1.34409" fill="#7DAC9D"/>
<rect x="234.541" y="206.2" width="6.89191" height="7.16365" rx="1.34409" fill="#7DAC9D"/>
<rect x="234.541" y="233.836" width="6.89191" height="7.16365" rx="1.34409" fill="#7DAC9D"/>
<rect x="262.108" y="150.927" width="6.89189" height="7.16365" rx="1.34409" fill="#7DAC9D"/>
<rect x="262.108" y="178.564" width="6.89189" height="7.16365" rx="1.34409" fill="#7DAC9D"/>
<rect x="262.108" y="206.2" width="6.89189" height="7.16365" rx="1.34409" fill="#7DAC9D"/>
<rect x="262.108" y="233.836" width="6.89189" height="7.16365" rx="1.34409" fill="#7DAC9D"/>
</g>
</g>
<mask id="mask1_616_1581" style="mask-type:alpha" maskUnits="userSpaceOnUse" x="270" y="0" width="269" height="241">
<rect x="270" width="269" height="241" fill="#D9D9D9"/>
</mask>
<g mask="url(#mask1_616_1581)">
<g opacity="0.5">
<rect x="284" y="7.65454" width="6.8919" height="7.16365" rx="1.34409" fill="#7DAC9D"/>
<rect x="311.568" y="7.65454" width="6.8919" height="7.16365" rx="1.34409" fill="#7DAC9D"/>
<rect x="339.135" y="7.65454" width="6.8919" height="7.16365" rx="1.34409" fill="#7DAC9D"/>
<rect x="366.703" y="7.65454" width="6.89191" height="7.16365" rx="1.34409" fill="#7DAC9D"/>
<rect x="394.27" y="7.65454" width="6.8919" height="7.16365" rx="1.34409" fill="#7DAC9D"/>
<rect x="421.838" y="7.65454" width="6.89191" height="7.16365" rx="1.34409" fill="#7DAC9D"/>
<rect x="449.406" y="7.65454" width="6.89191" height="7.16365" rx="1.34409" fill="#7DAC9D"/>
<rect x="476.974" y="7.65454" width="6.89191" height="7.16365" rx="1.34409" fill="#7DAC9D"/>
<rect x="504.541" y="7.65454" width="6.89191" height="7.16365" rx="1.34409" fill="#7DAC9D"/>
<rect x="284" y="36.3091" width="6.8919" height="7.16364" rx="1.34409" fill="#7DAC9D"/>
<rect x="311.568" y="36.3091" width="6.8919" height="7.16364" rx="1.34409" fill="#7DAC9D"/>
<rect x="339.135" y="36.3091" width="6.8919" height="7.16364" rx="1.34409" fill="#7DAC9D"/>
<rect x="366.703" y="36.3091" width="6.89191" height="7.16364" rx="1.34409" fill="#7DAC9D"/>
<rect x="394.27" y="36.3091" width="6.8919" height="7.16364" rx="1.34409" fill="#7DAC9D"/>
<rect x="421.838" y="36.3091" width="6.89191" height="7.16364" rx="1.34409" fill="#7DAC9D"/>
<rect x="449.406" y="36.3091" width="6.89191" height="7.16364" rx="1.34409" fill="#7DAC9D"/>
<rect x="476.974" y="36.3091" width="6.89191" height="7.16364" rx="1.34409" fill="#7DAC9D"/>
<rect x="504.541" y="36.3091" width="6.89191" height="7.16364" rx="1.34409" fill="#7DAC9D"/>
<rect x="284" y="64.9636" width="6.8919" height="7.16365" rx="1.34409" fill="#7DAC9D"/>
<rect x="311.568" y="64.9636" width="6.8919" height="7.16365" rx="1.34409" fill="#7DAC9D"/>
<rect x="339.135" y="64.9636" width="6.8919" height="7.16365" rx="1.34409" fill="#7DAC9D"/>
<rect x="366.703" y="64.9636" width="6.89191" height="7.16365" rx="1.34409" fill="#7DAC9D"/>
<rect x="394.27" y="64.9636" width="6.8919" height="7.16365" rx="1.34409" fill="#7DAC9D"/>
<rect x="421.838" y="64.9636" width="6.89191" height="7.16365" rx="1.34409" fill="#7DAC9D"/>
<rect x="449.406" y="64.9636" width="6.89191" height="7.16365" rx="1.34409" fill="#7DAC9D"/>
<rect x="476.974" y="64.9636" width="6.89191" height="7.16365" rx="1.34409" fill="#7DAC9D"/>
<rect x="504.541" y="64.9636" width="6.89191" height="7.16365" rx="1.34409" fill="#7DAC9D"/>
<rect x="284" y="93.6182" width="6.8919" height="7.16364" rx="1.34409" fill="#7DAC9D"/>
<rect x="311.568" y="93.6182" width="6.8919" height="7.16364" rx="1.34409" fill="#7DAC9D"/>
<rect x="339.135" y="93.6182" width="6.8919" height="7.16364" rx="1.34409" fill="#7DAC9D"/>
<rect x="366.703" y="93.6182" width="6.89191" height="7.16364" rx="1.34409" fill="#7DAC9D"/>
<rect x="394.27" y="93.6182" width="6.8919" height="7.16364" rx="1.34409" fill="#7DAC9D"/>
<rect x="421.838" y="93.6182" width="6.89191" height="7.16364" rx="1.34409" fill="#7DAC9D"/>
<rect x="449.406" y="93.6182" width="6.89191" height="7.16364" rx="1.34409" fill="#7DAC9D"/>
<rect x="476.974" y="93.6182" width="6.89191" height="7.16364" rx="1.34409" fill="#7DAC9D"/>
<rect x="504.541" y="93.6182" width="6.89191" height="7.16364" rx="1.34409" fill="#7DAC9D"/>
<rect x="284" y="122.273" width="6.8919" height="7.16365" rx="1.34409" fill="#7DAC9D"/>
<rect x="311.568" y="122.273" width="6.8919" height="7.16365" rx="1.34409" fill="#7DAC9D"/>
<rect x="339.135" y="122.273" width="6.8919" height="7.16365" rx="1.34409" fill="#7DAC9D"/>
<rect x="366.703" y="122.273" width="6.89191" height="7.16365" rx="1.34409" fill="#7DAC9D"/>
<rect x="394.27" y="122.273" width="6.8919" height="7.16365" rx="1.34409" fill="#7DAC9D"/>
<rect x="421.838" y="122.273" width="6.89191" height="7.16365" rx="1.34409" fill="#7DAC9D"/>
<rect x="449.406" y="122.273" width="6.89191" height="7.16365" rx="1.34409" fill="#7DAC9D"/>
<rect x="476.974" y="122.273" width="6.89191" height="7.16365" rx="1.34409" fill="#7DAC9D"/>
<rect x="504.541" y="122.273" width="6.89191" height="7.16365" rx="1.34409" fill="#7DAC9D"/>
<rect x="284" y="150.927" width="6.8919" height="7.16365" rx="1.34409" fill="#7DAC9D"/>
<rect x="284" y="178.564" width="6.8919" height="7.16365" rx="1.34409" fill="#7DAC9D"/>
<rect x="284" y="206.2" width="6.8919" height="7.16365" rx="1.34409" fill="#7DAC9D"/>
<rect x="284" y="233.836" width="6.8919" height="7.16365" rx="1.34409" fill="#7DAC9D"/>
<rect x="311.568" y="150.927" width="6.8919" height="7.16365" rx="1.34409" fill="#7DAC9D"/>
<rect x="311.568" y="178.564" width="6.8919" height="7.16365" rx="1.34409" fill="#7DAC9D"/>
<rect x="311.568" y="206.2" width="6.8919" height="7.16365" rx="1.34409" fill="#7DAC9D"/>
<rect x="311.568" y="233.836" width="6.8919" height="7.16365" rx="1.34409" fill="#7DAC9D"/>
<rect x="339.135" y="150.927" width="6.8919" height="7.16365" rx="1.34409" fill="#7DAC9D"/>
<rect x="339.135" y="178.564" width="6.8919" height="7.16365" rx="1.34409" fill="#7DAC9D"/>
<rect x="339.135" y="206.2" width="6.8919" height="7.16365" rx="1.34409" fill="#7DAC9D"/>
<rect x="339.135" y="233.836" width="6.8919" height="7.16365" rx="1.34409" fill="#7DAC9D"/>
<rect x="366.703" y="150.927" width="6.89191" height="7.16365" rx="1.34409" fill="#7DAC9D"/>
<rect x="366.703" y="178.564" width="6.89191" height="7.16365" rx="1.34409" fill="#7DAC9D"/>
<rect x="366.703" y="206.2" width="6.89191" height="7.16365" rx="1.34409" fill="#7DAC9D"/>
<rect x="366.703" y="233.836" width="6.89191" height="7.16365" rx="1.34409" fill="#7DAC9D"/>
<rect x="394.27" y="150.927" width="6.8919" height="7.16365" rx="1.34409" fill="#7DAC9D"/>
<rect x="394.27" y="178.564" width="6.8919" height="7.16365" rx="1.34409" fill="#7DAC9D"/>
<rect x="394.27" y="206.2" width="6.8919" height="7.16365" rx="1.34409" fill="#7DAC9D"/>
<rect x="394.27" y="233.836" width="6.8919" height="7.16365" rx="1.34409" fill="#7DAC9D"/>
<rect x="421.838" y="150.927" width="6.89191" height="7.16365" rx="1.34409" fill="#7DAC9D"/>
<rect x="421.838" y="178.564" width="6.89191" height="7.16365" rx="1.34409" fill="#7DAC9D"/>
<rect x="421.838" y="206.2" width="6.89191" height="7.16365" rx="1.34409" fill="#7DAC9D"/>
<rect x="421.838" y="233.836" width="6.89191" height="7.16365" rx="1.34409" fill="#7DAC9D"/>
<rect x="449.406" y="150.927" width="6.89191" height="7.16365" rx="1.34409" fill="#7DAC9D"/>
<rect x="449.406" y="178.564" width="6.89191" height="7.16365" rx="1.34409" fill="#7DAC9D"/>
<rect x="449.406" y="206.2" width="6.89191" height="7.16365" rx="1.34409" fill="#7DAC9D"/>
<rect x="449.406" y="233.836" width="6.89191" height="7.16365" rx="1.34409" fill="#7DAC9D"/>
<rect x="476.974" y="150.927" width="6.89191" height="7.16365" rx="1.34409" fill="#7DAC9D"/>
<rect x="476.974" y="178.564" width="6.89191" height="7.16365" rx="1.34409" fill="#7DAC9D"/>
<rect x="476.974" y="206.2" width="6.89191" height="7.16365" rx="1.34409" fill="#7DAC9D"/>
<rect x="476.974" y="233.836" width="6.89191" height="7.16365" rx="1.34409" fill="#7DAC9D"/>
<rect x="504.541" y="150.927" width="6.89191" height="7.16365" rx="1.34409" fill="#7DAC9D"/>
<rect x="504.541" y="178.564" width="6.89191" height="7.16365" rx="1.34409" fill="#7DAC9D"/>
<rect x="504.541" y="206.2" width="6.89191" height="7.16365" rx="1.34409" fill="#7DAC9D"/>
<rect x="504.541" y="233.836" width="6.89191" height="7.16365" rx="1.34409" fill="#7DAC9D"/>
</g>
</g>
</svg>
