<svg xmlns="http://www.w3.org/2000/svg" width="743" height="743" fill="#d3e2ef" opacity=".6" xmlns:v="https://vecta.io/nano"><circle cx="371.612" cy="369.77" r="7.854"/><circle cx="349.208" cy="359.714" r="7.461" transform="rotate(297 349.208 359.714)"/><circle cx="350.517" cy="384.687" r="7.461" transform="rotate(237 350.517 384.687)"/><circle cx="372.665" cy="396.201" r="7.461" transform="rotate(177 372.665 396.201)"/><circle cx="393.657" cy="382.643" r="7.461" transform="rotate(117 393.657 382.643)"/><circle cx="392.473" cy="357.664" r="7.461" transform="rotate(57 392.473 357.664)"/><circle cx="370.297" cy="346.243" r="7.461" transform="rotate(357 370.297 346.243)"/><circle cx="342.978" cy="331.822" r="7.068" transform="rotate(324 342.978 331.822)"/><circle cx="327.106" cy="351.32" r="7.068" transform="rotate(294 327.106 351.32)"/><circle cx="323.159" cy="376.182" r="7.068" transform="rotate(264 323.159 376.182)"/><circle cx="332.058" cy="399.635" r="7.068" transform="rotate(234 332.058 399.635)"/><circle cx="351.556" cy="415.507" r="7.068" transform="rotate(204 351.556 415.507)"/><circle cx="376.427" cy="419.544" r="7.068" transform="rotate(174 376.427 419.544)"/><circle cx="399.871" cy="410.554" r="7.068" transform="rotate(144 399.871 410.554)"/><circle cx="415.743" cy="391.057" r="7.068" transform="rotate(114 415.743 391.057)"/><circle cx="419.79" cy="366.277" r="7.068" transform="rotate(84 419.79 366.277)"/><circle cx="410.79" cy="342.742" r="7.068" transform="rotate(54 410.79 342.742)"/><circle cx="391.293" cy="326.87" r="7.068" transform="rotate(24 391.293 326.87)"/><circle cx="366.522" cy="322.914" r="7.068" transform="rotate(354 366.522 322.914)"/><circle cx="336.565" cy="308.061" r="6.676" transform="rotate(331 336.565 308.061)"/><circle cx="317.052" cy="323.779" r="6.676" transform="rotate(311 317.052 323.779)"/><circle cx="304.119" cy="345.233" r="6.676" transform="rotate(291 304.119 345.233)"/><circle cx="299.327" cy="369.836" r="6.676" transform="rotate(271 299.327 369.836)"/><circle cx="303.245" cy="394.578" r="6.676" transform="rotate(251 303.245 394.578)"/><circle cx="315.28" cy="416.494" r="6.676" transform="rotate(231 315.28 416.494)"/><circle cx="334.151" cy="432.957" r="6.676" transform="rotate(211 334.151 432.957)"/><circle cx="357.54" cy="441.988" r="6.676" transform="rotate(191 357.54 441.988)"/><circle cx="382.626" cy="442.497" r="6.676" transform="rotate(171 382.626 442.497)"/><circle cx="406.285" cy="434.353" r="6.676" transform="rotate(151 406.285 434.353)"/><circle cx="425.762" cy="418.609" r="6.676" transform="rotate(131 425.762 418.609)"/><circle cx="438.707" cy="397.164" r="6.676" transform="rotate(111 438.707 397.164)"/><circle cx="443.559" cy="372.604" r="6.676" transform="rotate(91 443.559 372.604)"/><circle cx="439.683" cy="347.855" r="6.676" transform="rotate(71 439.683 347.855)"/><circle cx="427.547" cy="325.903" r="6.676" transform="rotate(51 427.547 325.903)"/><circle cx="408.663" cy="309.431" r="6.676" transform="rotate(31 408.663 309.431)"/><circle cx="385.311" cy="300.427" r="6.676" transform="rotate(11 385.311 300.427)"/><circle cx="360.305" cy="299.976" r="6.676" transform="rotate(351 360.305 299.976)"/><circle cx="328.098" cy="285.905" r="6.283" transform="rotate(333 328.098 285.905)"/><circle cx="307.472" cy="300.013" r="6.283" transform="rotate(318 307.472 300.013)"/><circle cx="291.217" cy="318.983" r="6.283" transform="rotate(303 291.217 318.983)"/><circle cx="280.44" cy="341.52" r="6.283" transform="rotate(288 280.44 341.52)"/><circle cx="275.884" cy="366.126" r="6.283" transform="rotate(273 275.884 366.126)"/><circle cx="277.845" cy="391.055" r="6.283" transform="rotate(258 277.845 391.055)"/><circle cx="286.132" cy="414.598" r="6.283" transform="rotate(243 286.132 414.598)"/><circle cx="300.243" cy="435.193" r="6.283" transform="rotate(228 300.243 435.193)"/><circle cx="319.218" cy="451.437" r="6.283" transform="rotate(213 319.218 451.437)"/><circle cx="341.764" cy="462.222" r="6.283" transform="rotate(198 341.764 462.222)"/><circle cx="366.343" cy="466.814" r="6.283" transform="rotate(183 366.343 466.814)"/><circle cx="391.282" cy="464.899" r="6.283" transform="rotate(168 391.282 464.899)"/><circle cx="414.815" cy="456.567" r="6.283" transform="rotate(153 414.815 456.567)"/><circle cx="435.404" cy="442.426" r="6.283" transform="rotate(138 435.404 442.426)"/><circle cx="451.646" cy="423.441" r="6.283" transform="rotate(123 451.646 423.441)"/><circle cx="462.433" cy="400.905" r="6.283" transform="rotate(108 462.433 400.905)"/><circle cx="467.031" cy="376.355" r="6.283" transform="rotate(93 467.031 376.355)"/><circle cx="465.126" cy="351.463" r="6.283" transform="rotate(78 465.126 351.463)"/><circle cx="456.784" cy="327.883" r="6.283" transform="rotate(63 456.784 327.883)"/><circle cx="442.637" cy="307.265" r="6.283" transform="rotate(48 442.637 307.265)"/><circle cx="423.65" cy="291.013" r="6.283" transform="rotate(33 423.65 291.013)"/><circle cx="401.116" cy="280.236" r="6.283" transform="rotate(18 401.116 280.236)"/><circle cx="376.572" cy="275.667" r="6.283" transform="rotate(3 376.572 275.667)"/><circle cx="351.69" cy="277.618" r="6.283" transform="rotate(348 351.69 277.618)"/><circle cx="317.404" cy="264.932" r="5.89" transform="rotate(333 317.404 264.932)"/><circle cx="296.463" cy="278.484" r="5.89" transform="rotate(321 296.463 278.484)"/><circle cx="278.806" cy="296.094" r="5.89" transform="rotate(309 278.806 296.094)"/><circle cx="265.206" cy="316.993" r="5.89" transform="rotate(297 265.206 316.993)"/><circle cx="256.255" cy="340.266" r="5.89" transform="rotate(285 256.255 340.266)"/><circle cx="252.346" cy="364.898" r="5.89" transform="rotate(273 252.346 364.898)"/><circle cx="253.65" cy="389.812" r="5.89" transform="rotate(261 253.65 389.812)"/><circle cx="260.108" cy="413.896" r="5.89" transform="rotate(249 260.108 413.896)"/><circle cx="271.362" cy="436.117" r="5.89" transform="rotate(237 271.362 436.117)"/><circle cx="287.023" cy="455.501" r="5.89" transform="rotate(225 287.023 455.501)"/><circle cx="306.38" cy="471.206" r="5.89" transform="rotate(213 306.38 471.206)"/><circle cx="328.589" cy="482.547" r="5.89" transform="rotate(201 328.589 482.547)"/><circle cx="352.678" cy="489.028" r="5.89" transform="rotate(189 352.678 489.028)"/><circle cx="377.594" cy="490.365" r="5.89" transform="rotate(177 377.594 490.365)"/><circle cx="402.249" cy="486.5" r="5.89" transform="rotate(165 402.249 486.5)"/><circle cx="425.512" cy="477.571" r="5.89" transform="rotate(153 425.512 477.571)"/><circle cx="446.418" cy="463.999" r="5.89" transform="rotate(141 446.418 463.999)"/><circle cx="464.055" cy="446.378" r="5.89" transform="rotate(129 464.055 446.378)"/><circle cx="477.652" cy="425.477" r="5.89" transform="rotate(117 477.652 425.477)"/><circle cx="486.614" cy="402.21" r="5.89" transform="rotate(105 486.614 402.21)"/><circle cx="490.55" cy="377.594" r="5.89" transform="rotate(93 490.55 377.594)"/><circle cx="489.288" cy="352.705" r="5.89" transform="rotate(81 489.288 352.705)"/><circle cx="482.856" cy="328.614" r="5.89" transform="rotate(69 482.856 328.614)"/><circle cx="471.535" cy="306.375" r="5.89" transform="rotate(57 471.535 306.375)"/><circle cx="455.847" cy="286.976" r="5.89" transform="rotate(45 455.847 286.976)"/><circle cx="436.477" cy="271.263" r="5.89" transform="rotate(33 436.477 271.263)"/><circle cx="414.272" cy="259.925" r="5.89" transform="rotate(21 414.272 259.925)"/><circle cx="390.203" cy="253.456" r="5.89" transform="rotate(9 390.203 253.456)"/><circle cx="365.322" cy="252.139" r="5.89" transform="rotate(357 365.322 252.139)"/><circle cx="340.715" cy="256.031" r="5.89" transform="rotate(345 340.715 256.031)"/><circle cx="304.495" cy="245.099" r="5.498" transform="rotate(332 304.495 245.099)"/><circle cx="283.588" cy="258.635" r="5.498" transform="rotate(322 283.588 258.635)"/><circle cx="265.356" cy="275.596" r="5.498" transform="rotate(312 265.356 275.596)"/><circle cx="250.352" cy="295.465" r="5.498" transform="rotate(302 250.352 295.465)"/><circle cx="239.032" cy="317.641" r="5.498" transform="rotate(292 239.032 317.641)"/><circle cx="231.741" cy="341.448" r="5.498" transform="rotate(282 231.741 341.448)"/><circle cx="228.7" cy="366.163" r="5.498" transform="rotate(272 228.7 366.163)"/><circle cx="229.932" cy="390.824" r="5.498" transform="rotate(262 229.932 390.824)"/><circle cx="235.535" cy="415.095" r="5.498" transform="rotate(252 235.535 415.095)"/><circle cx="245.177" cy="437.988" r="5.498" transform="rotate(242 245.177 437.988)"/><circle cx="258.66" cy="458.855" r="5.498" transform="rotate(232 258.66 458.855)"/><circle cx="275.575" cy="477.064" r="5.498" transform="rotate(222 275.575 477.064)"/><circle cx="295.409" cy="492.06" r="5.498" transform="rotate(212 295.409 492.06)"/><circle cx="317.558" cy="503.388" r="5.498" transform="rotate(202 317.558 503.388)"/><circle cx="341.349" cy="510.704" r="5.498" transform="rotate(192 341.349 510.704)"/><circle cx="366.06" cy="513.785" r="5.498" transform="rotate(182 366.06 513.785)"/><circle cx="390.939" cy="512.539" r="5.498" transform="rotate(172 390.939 512.539)"/><circle cx="415.231" cy="507.002" r="5.498" transform="rotate(162 415.231 507.002)"/><circle cx="438.103" cy="497.294" r="5.498" transform="rotate(152 438.103 497.294)"/><circle cx="458.954" cy="483.759" r="5.498" transform="rotate(142 458.954 483.759)"/><circle cx="477.151" cy="466.809" r="5.498" transform="rotate(132 477.151 466.809)"/><circle cx="492.141" cy="446.958" r="5.498" transform="rotate(122 492.141 446.958)"/><circle cx="503.469" cy="424.809" r="5.498" transform="rotate(112 503.469 424.809)"/><circle cx="510.791" cy="401.035" r="5.498" transform="rotate(102 510.791 401.035)"/><circle cx="513.884" cy="376.36" r="5.498" transform="rotate(92 513.884 376.36)"/><circle cx="512.654" cy="351.531" r="5.498" transform="rotate(82 512.654 351.531)"/><circle cx="507.138" cy="327.305" r="5.498" transform="rotate(72 507.138 327.305)"/><circle cx="497.409" cy="304.368" r="5.498" transform="rotate(62 497.409 304.368)"/><circle cx="483.858" cy="283.466" r="5.498" transform="rotate(52 483.858 283.466)"/><circle cx="466.896" cy="265.234" r="5.498" transform="rotate(42 466.896 265.234)"/><circle cx="447.039" cy="250.226" r="5.498" transform="rotate(32 447.039 250.226)"/><circle cx="424.89" cy="238.897" r="5.498" transform="rotate(22 424.89 238.897)"/><circle cx="401.122" cy="231.594" r="5.498" transform="rotate(12 401.122 231.594)"/><circle cx="376.458" cy="228.536" r="5.498" transform="rotate(2 376.458 228.536)"/><circle cx="351.647" cy="229.817" r="5.498" transform="rotate(352 351.647 229.817)"/><circle cx="327.442" cy="235.398" r="5.498" transform="rotate(342 327.442 235.398)"/><circle cx="289.419" cy="226.468" r="5.105" transform="rotate(330.429 289.419 226.468)"/><circle cx="268.731" cy="240.273" r="5.105" transform="rotate(321.857 268.731 240.273)"/><circle cx="250.341" cy="257.005" r="5.105" transform="rotate(313.286 250.341 257.005)"/><circle cx="234.66" cy="276.292" r="5.105" transform="rotate(304.714 234.66 276.292)"/><circle cx="221.812" cy="297.111" r="5.105" transform="rotate(296.143 221.812 297.111)"/><circle cx="212.498" cy="320.078" r="5.105" transform="rotate(287.571 212.498 320.078)"/><circle cx="206.738" cy="344.189" r="5.105" transform="rotate(279 206.738 344.189)"/><circle cx="204.661" cy="368.907" r="5.105" transform="rotate(270.429 204.661 368.907)"/><circle cx="206.313" cy="393.68" r="5.105" transform="rotate(261.857 206.313 393.68)"/><circle cx="211.658" cy="417.953" r="5.105" transform="rotate(253.286 211.658 417.953)"/><circle cx="220.539" cy="441.09" r="5.105" transform="rotate(244.714 220.539 441.09)"/><circle cx="232.475" cy="462.682" r="5.105" transform="rotate(236.143 232.475 462.682)"/><circle cx="247.614" cy="482.198" r="5.105" transform="rotate(227.571 247.614 482.198)"/><circle cx="265.523" cy="499.237" r="5.105" transform="rotate(219 265.523 499.237)"/><circle cx="285.802" cy="513.419" r="5.105" transform="rotate(210.429 285.802 513.419)"/><circle cx="307.997" cy="524.427" r="5.105" transform="rotate(201.857 307.997 524.427)"/><circle cx="331.614" cy="532.015" r="5.105" transform="rotate(193.286 331.614 532.015)"/><circle cx="356.124" cy="536.015" r="5.105" transform="rotate(184.714 356.124 536.015)"/><circle cx="380.98" cy="536.335" r="5.105" transform="rotate(176.143 380.98 536.335)"/><circle cx="405.627" cy="532.97" r="5.105" transform="rotate(167.571 405.627 532.97)"/><circle cx="429.513" cy="525.995" r="5.105" transform="rotate(159 429.513 525.995)"/><circle cx="451.844" cy="515.447" r="5.105" transform="rotate(150.429 451.844 515.447)"/><circle cx="472.382" cy="501.681" r="5.105" transform="rotate(141.857 472.382 501.681)"/><circle cx="490.669" cy="485.003" r="5.105" transform="rotate(133.286 490.669 485.003)"/><circle cx="506.296" cy="465.786" r="5.105" transform="rotate(124.714 506.296 465.786)"/><circle cx="518.915" cy="444.459" r="5.105" transform="rotate(116.143 518.915 444.459)"/><circle cx="528.243" cy="421.498" r="5.105" transform="rotate(107.571 528.243 421.498)"/><circle cx="534.073" cy="397.418" r="5.105" transform="rotate(99 534.073 397.418)"/><circle cx="536.273" cy="372.754" r="5.105" transform="rotate(90.429 536.273 372.754)"/><circle cx="534.795" cy="348.06" r="5.105" transform="rotate(81.857 534.795 348.06)"/><circle cx="529.672" cy="323.885" r="5.105" transform="rotate(73.286 529.672 323.885)"/><circle cx="520.886" cy="300.712" r="5.105" transform="rotate(64.714 520.886 300.712)"/><circle cx="508.633" cy="279.057" r="5.105" transform="rotate(56.143 508.633 279.057)"/><circle cx="493.32" cy="259.464" r="5.105" transform="rotate(47.571 493.32 259.464)"/><circle cx="475.47" cy="242.3" r="5.105" transform="rotate(39 475.47 242.3)"/><circle cx="455.104" cy="228.094" r="5.105" transform="rotate(30.429 455.104 228.094)"/><circle cx="432.873" cy="217.088" r="5.105" transform="rotate(21.857 432.873 217.088)"/><circle cx="409.274" cy="209.528" r="5.105" transform="rotate(13.286 409.274 209.528)"/><circle cx="384.833" cy="205.582" r="5.105" transform="rotate(4.714 384.833 205.582)"/><circle cx="360.097" cy="205.339" r="5.105" transform="rotate(356.143 360.097 205.339)"/><circle cx="335.618" cy="208.804" r="5.105" transform="rotate(347.571 335.618 208.804)"/><circle cx="311.943" cy="215.9" r="5.105" transform="rotate(339 311.943 215.9)"/><circle cx="272.245" cy="209.151" r="4.712" transform="rotate(328.5 272.245 209.151)"/><circle cx="251.883" cy="223.366" r="4.712" transform="rotate(321 251.883 223.366)"/><circle cx="233.53" cy="240.025" r="4.712" transform="rotate(313.5 233.53 240.025)"/><circle cx="217.567" cy="258.99" r="4.712" transform="rotate(306 217.567 258.99)"/><circle cx="204.239" cy="279.878" r="4.712" transform="rotate(298.5 204.239 279.878)"/><circle cx="193.775" cy="302.33" r="4.712" transform="rotate(291 193.775 302.33)"/><circle cx="186.354" cy="325.963" r="4.712" transform="rotate(283.5 186.354 325.963)"/><circle cx="182.103" cy="350.373" r="4.712" transform="rotate(276 182.103 350.373)"/><circle cx="181.094" cy="375.141" r="4.712" transform="rotate(268.5 181.094 375.141)"/><circle cx="183.345" cy="399.845" r="4.712" transform="rotate(261 183.345 399.845)"/><circle cx="188.817" cy="424.06" r="4.712" transform="rotate(253.5 188.817 424.06)"/><circle cx="197.417" cy="447.374" r="4.712" transform="rotate(246 197.417 447.374)"/><circle cx="208.758" cy="469.295" r="4.712" transform="rotate(238.5 208.758 469.295)"/><circle cx="222.885" cy="489.539" r="4.712" transform="rotate(231 222.885 489.539)"/><circle cx="239.841" cy="508.095" r="4.712" transform="rotate(223.5 239.841 508.095)"/><circle cx="258.815" cy="523.985" r="4.712" transform="rotate(216 258.815 523.985)"/><circle cx="279.718" cy="537.264" r="4.712" transform="rotate(208.5 279.718 537.264)"/><circle cx="302.194" cy="547.703" r="4.712" transform="rotate(201 302.194 547.703)"/><circle cx="325.858" cy="555.125" r="4.712" transform="rotate(193.5 325.858 555.125)"/><circle cx="350.305" cy="559.402" r="4.712" transform="rotate(186 350.305 559.402)"/><circle cx="375.116" cy="560.461" r="4.712" transform="rotate(178.5 375.116 560.461)"/><circle cx="399.867" cy="558.284" r="4.712" transform="rotate(171 399.867 558.284)"/><circle cx="424.135" cy="552.909" r="4.712" transform="rotate(163.5 424.135 552.909)"/><circle cx="447.505" cy="544.427" r="4.712" transform="rotate(156 447.505 544.427)"/><circle cx="469.391" cy="532.913" r="4.712" transform="rotate(148.5 469.391 532.913)"/><circle cx="489.604" cy="518.634" r="4.712" transform="rotate(141 489.604 518.634)"/><circle cx="507.798" cy="501.835" r="4.712" transform="rotate(133.5 507.798 501.835)"/><circle cx="523.663" cy="482.803" r="4.712" transform="rotate(126 523.663 482.803)"/><circle cx="536.925" cy="461.864" r="4.712" transform="rotate(118.5 536.925 461.864)"/><circle cx="547.359" cy="439.376" r="4.712" transform="rotate(111 547.359 439.376)"/><circle cx="554.786" cy="415.724" r="4.712" transform="rotate(103.5 554.786 415.724)"/><circle cx="559.079" cy="391.313" r="4.712" transform="rotate(96 559.079 391.313)"/><circle cx="560.164" cy="366.56" r="4.712" transform="rotate(88.5 560.164 366.56)"/><circle cx="558.023" cy="341.888" r="4.712" transform="rotate(81 558.023 341.888)"/><circle cx="552.693" cy="317.721" r="4.712" transform="rotate(73.5 552.693 317.721)"/><circle cx="544.264" cy="294.471" r="4.712" transform="rotate(66 544.264 294.471)"/><circle cx="532.696" cy="272.465" r="4.712" transform="rotate(58.5 532.696 272.465)"/><circle cx="518.373" cy="252.152" r="4.712" transform="rotate(51 518.373 252.152)"/><circle cx="501.372" cy="233.951" r="4.712" transform="rotate(43.5 501.372 233.951)"/><circle cx="482.325" cy="218.024" r="4.712" transform="rotate(36 482.325 218.024)"/><circle cx="461.383" cy="204.721" r="4.712" transform="rotate(28.5 461.383 204.721)"/><circle cx="438.906" cy="194.268" r="4.712" transform="rotate(21 438.906 194.268)"/><circle cx="415.277" cy="186.845" r="4.712" transform="rotate(13.5 415.277 186.845)"/><circle cx="390.9" cy="182.579" r="4.712" transform="rotate(6 390.9 182.579)"/><circle cx="366.194" cy="181.542" r="4.712" transform="rotate(358.5 366.194 181.542)"/><circle cx="341.581" cy="183.753" r="4.712" transform="rotate(351 341.581 183.753)"/><circle cx="317.481" cy="189.174" r="4.712" transform="rotate(343.5 317.481 189.174)"/><circle cx="294.307" cy="197.712" r="4.712" transform="rotate(336 294.307 197.712)"/><circle cx="253.122" cy="193.417" r="4.32" transform="rotate(326.333 253.122 193.417)"/><circle cx="233.217" cy="208.238" r="4.32" transform="rotate(319.667 233.217 208.238)"/><circle cx="215.183" cy="225.265" r="4.32" transform="rotate(313 215.183 225.265)"/><circle cx="199.264" cy="244.267" r="4.32" transform="rotate(306.333 199.264 244.267)"/><circle cx="185.676" cy="264.988" r="4.32" transform="rotate(299.667 185.676 264.988)"/><circle cx="174.603" cy="287.147" r="4.32" transform="rotate(293 174.603 287.147)"/><circle cx="166.194" cy="310.444" r="4.32" transform="rotate(286.333 166.194 310.444)"/><circle cx="160.563" cy="334.565" r="4.32" transform="rotate(279.667 160.563 334.565)"/><circle cx="157.785" cy="359.183" r="4.32" transform="rotate(273 157.785 359.183)"/><circle cx="157.9" cy="383.966" r="4.32" transform="rotate(266.333 157.9 383.966)"/><circle cx="160.905" cy="408.578" r="4.32" transform="rotate(259.667 160.905 408.578)"/><circle cx="166.759" cy="432.686" r="4.32" transform="rotate(253 166.759 432.686)"/><circle cx="175.383" cy="455.965" r="4.32" transform="rotate(246.333 175.383 455.965)"/><circle cx="186.628" cy="478.034" r="4.32" transform="rotate(239.667 186.628 478.034)"/><circle cx="200.145" cy="498.694" r="4.32" transform="rotate(233 200.145 498.694)"/><circle cx="216.046" cy="517.599" r="4.32" transform="rotate(226.333 216.046 517.599)"/><circle cx="234.051" cy="534.525" r="4.32" transform="rotate(219.667 234.051 534.525)"/><circle cx="253.916" cy="549.245" r="4.32" transform="rotate(213 253.916 549.245)"/><circle cx="275.373" cy="561.559" r="4.32" transform="rotate(206.333 275.373 561.559)"/><circle cx="298.132" cy="571.301" r="4.32" transform="rotate(199.667 298.132 571.301)"/><circle cx="321.884" cy="578.338" r="4.32" transform="rotate(193 321.884 578.338)"/><circle cx="346.308" cy="582.576" r="4.32" transform="rotate(186.333 346.308 582.576)"/><circle cx="371.075" cy="583.958" r="4.32" transform="rotate(179.667 371.075 583.958)"/><circle cx="395.849" cy="582.464" r="4.32" transform="rotate(173 395.849 582.464)"/><circle cx="420.296" cy="578.115" r="4.32" transform="rotate(166.333 420.296 578.115)"/><circle cx="444.083" cy="570.97" r="4.32" transform="rotate(159.667 444.083 570.97)"/><circle cx="466.891" cy="561.125" r="4.32" transform="rotate(153 466.891 561.125)"/><circle cx="488.213" cy="548.65" r="4.32" transform="rotate(146.333 488.213 548.65)"/><circle cx="507.958" cy="533.777" r="4.32" transform="rotate(139.667 507.958 533.777)"/><circle cx="525.859" cy="516.707" r="4.32" transform="rotate(133 525.859 516.707)"/><circle cx="541.674" cy="497.671" r="4.32" transform="rotate(126.333 541.674 497.671)"/><circle cx="555.189" cy="476.927" r="4.32" transform="rotate(119.667 555.189 476.927)"/><circle cx="566.222" cy="454.755" r="4.32" transform="rotate(113 566.222 454.755)"/><circle cx="574.623" cy="431.455" r="4.32" transform="rotate(106.333 574.623 431.455)"/><circle cx="580.279" cy="407.342" r="4.32" transform="rotate(99.667 580.279 407.342)"/><circle cx="583.112" cy="382.742" r="4.32" transform="rotate(93 583.112 382.742)"/><circle cx="583.086" cy="357.988" r="4.32" transform="rotate(86.333 583.086 357.988)"/><circle cx="580.2" cy="333.414" r="4.32" transform="rotate(79.667 580.2 333.414)"/><circle cx="574.493" cy="309.354" r="4.32" transform="rotate(73 574.493 309.354)"/><circle cx="566.042" cy="286.131" r="4.32" transform="rotate(66.333 566.042 286.131)"/><circle cx="554.863" cy="264.029" r="4.32" transform="rotate(59.667 554.863 264.029)"/><circle cx="541.107" cy="243.346" r="4.32" transform="rotate(53 541.107 243.346)"/><circle cx="525.058" cy="224.394" r="4.32" transform="rotate(46.333 525.058 224.394)"/><circle cx="507.096" cy="207.347" r="4.32" transform="rotate(39.667 507.096 207.347)"/><circle cx="487.52" cy="192.406" r="4.32" transform="rotate(33 487.52 192.406)"/><circle cx="465.966" cy="180.094" r="4.32" transform="rotate(26.333 465.966 180.094)"/><circle cx="443.137" cy="170.368" r="4.32" transform="rotate(19.667 443.137 170.368)"/><circle cx="419.341" cy="163.36" r="4.32" transform="rotate(13 419.341 163.36)"/><circle cx="394.899" cy="159.165" r="4.32" transform="rotate(6.333 394.899 159.165)"/><circle cx="370.142" cy="157.839" r="4.32" transform="rotate(359.667 370.142 157.839)"/><circle cx="345.405" cy="159.4" r="4.32" transform="rotate(353 345.405 159.4)"/><circle cx="321.022" cy="163.827" r="4.32" transform="rotate(346.333 321.022 163.827)"/><circle cx="297.324" cy="171.06" r="4.32" transform="rotate(339.667 297.324 171.06)"/><circle cx="274.63" cy="181.002" r="4.32" transform="rotate(333 274.63 181.002)"/><circle cx="232.17" cy="179.404" r="3.927" transform="rotate(324 232.17 179.404)"/><circle cx="212.847" cy="194.977" r="3.927" transform="rotate(318 212.847 194.977)"/><circle cx="195.263" cy="212.482" r="3.927" transform="rotate(312 195.263 212.482)"/><circle cx="179.612" cy="231.728" r="3.927" transform="rotate(306 179.612 231.728)"/><circle cx="166.064" cy="252.503" r="3.927" transform="rotate(300 166.064 252.503)"/><circle cx="154.768" cy="274.58" r="3.927" transform="rotate(294 154.768 274.58)"/><circle cx="145.848" cy="297.717" r="3.927" transform="rotate(288 145.848 297.717)"/><circle cx="139.401" cy="321.661" r="3.927" transform="rotate(282 139.401 321.661)"/><circle cx="135.499" cy="346.15" r="3.927" transform="rotate(276 135.499 346.15)"/><circle cx="134.183" cy="370.914" r="3.927" transform="rotate(270 134.183 370.914)"/><circle cx="135.469" cy="395.683" r="3.927" transform="rotate(264 135.469 395.683)"/><circle cx="139.342" cy="420.185" r="3.927" transform="rotate(258 139.342 420.185)"/><circle cx="145.76" cy="444.152" r="3.927" transform="rotate(252 145.76 444.152)"/><circle cx="154.652" cy="467.321" r="3.927" transform="rotate(246 154.652 467.321)"/><circle cx="165.921" cy="489.439" r="3.927" transform="rotate(240 165.921 489.439)"/><circle cx="179.363" cy="510.241" r="3.927" transform="rotate(234 179.363 510.241)"/><circle cx="194.911" cy="529.521" r="3.927" transform="rotate(228 194.911 529.521)"/><circle cx="212.395" cy="547.069" r="3.927" transform="rotate(222 212.395 547.069)"/><circle cx="231.624" cy="562.691" r="3.927" transform="rotate(216 231.624 562.691)"/><circle cx="252.386" cy="576.216" r="3.927" transform="rotate(210 252.386 576.216)"/><circle cx="274.454" cy="587.497" r="3.927" transform="rotate(204 274.454 587.497)"/><circle cx="297.587" cy="596.409" r="3.927" transform="rotate(198 297.587 596.409)"/><circle cx="321.531" cy="602.856" r="3.927" transform="rotate(192 321.531 602.856)"/><circle cx="346.024" cy="606.766" r="3.927" transform="rotate(186 346.024 606.766)"/><circle cx="370.797" cy="608.097" r="3.927" transform="rotate(180 370.797 608.097)"/><circle cx="395.579" cy="606.833" r="3.927" transform="rotate(174 395.579 606.833)"/><circle cx="420.098" cy="602.99" r="3.927" transform="rotate(168 420.098 602.99)"/><circle cx="444.086" cy="596.609" r="3.927" transform="rotate(162 444.086 596.609)"/><circle cx="467.28" cy="587.759" r="3.927" transform="rotate(156 467.28 587.759)"/><circle cx="489.426" cy="576.539" r="3.927" transform="rotate(150 489.426 576.539)"/><circle cx="510.2" cy="563.048" r="3.927" transform="rotate(144 510.2 563.048)"/><circle cx="529.456" cy="547.457" r="3.927" transform="rotate(138 529.456 547.457)"/><circle cx="546.982" cy="529.937" r="3.927" transform="rotate(132 546.982 529.937)"/><circle cx="562.587" cy="510.678" r="3.927" transform="rotate(126 562.587 510.678)"/><circle cx="576.099" cy="489.894" r="3.927" transform="rotate(120 576.099 489.894)"/><circle cx="587.371" cy="467.81" r="3.927" transform="rotate(114 587.371 467.81)"/><circle cx="596.279" cy="444.67" r="3.927" transform="rotate(108 596.279 444.67)"/><circle cx="602.726" cy="420.726" r="3.927" transform="rotate(102 602.726 420.726)"/><circle cx="606.64" cy="396.241" r="3.927" transform="rotate(96 606.64 396.241)"/><circle cx="607.98" cy="371.483" r="3.927" transform="rotate(90 607.98 371.483)"/><circle cx="606.729" cy="346.723" r="3.927" transform="rotate(84 606.729 346.723)"/><circle cx="602.903" cy="322.234" r="3.927" transform="rotate(78 602.903 322.234)"/><circle cx="596.543" cy="298.282" r="3.927" transform="rotate(72 596.543 298.282)"/><circle cx="587.718" cy="275.131" r="3.927" transform="rotate(66 587.718 275.131)"/><circle cx="576.526" cy="253.034" r="3.927" transform="rotate(60 576.526 253.034)"/><circle cx="563.007" cy="232.211" r="3.927" transform="rotate(54 563.007 232.211)"/><circle cx="547.391" cy="212.913" r="3.927" transform="rotate(48 547.391 212.913)"/><circle cx="529.85" cy="195.35" r="3.927" transform="rotate(42 529.85 195.35)"/><circle cx="510.575" cy="179.716" r="3.927" transform="rotate(36 510.575 179.716)"/><circle cx="489.777" cy="166.181" r="3.927" transform="rotate(30 489.777 166.181)"/><circle cx="467.684" cy="154.893" r="3.927" transform="rotate(24 467.684 154.893)"/><circle cx="444.54" cy="145.978" r="3.927" transform="rotate(18 444.54 145.978)"/><circle cx="420.596" cy="139.531" r="3.927" transform="rotate(12 420.596 139.531)"/><circle cx="396.115" cy="135.624" r="3.927" transform="rotate(6 396.115 135.624)"/><circle cx="371.366" cy="134.3" r="3.927"/><circle cx="346.619" cy="135.573" r="3.927" transform="rotate(354 346.619 135.573)"/><circle cx="322.147" cy="139.429" r="3.927" transform="rotate(348 322.147 139.429)"/><circle cx="298.216" cy="145.825" r="3.927" transform="rotate(342 298.216 145.825)"/><circle cx="275.09" cy="154.693" r="3.927" transform="rotate(336 275.09 154.693)"/><circle cx="253.021" cy="165.934" r="3.927" transform="rotate(330 253.021 165.934)"/><circle cx="209.428" cy="167.106" r="3.534" transform="rotate(321.546 209.428 167.106)"/><circle cx="190.723" cy="183.399" r="3.534" transform="rotate(316.091 190.723 183.399)"/><circle cx="173.657" cy="201.395" r="3.534" transform="rotate(310.636 173.657 201.395)"/><circle cx="158.383" cy="220.929" r="3.534" transform="rotate(305.182 158.383 220.929)"/><circle cx="145.041" cy="241.826" r="3.534" transform="rotate(299.727 145.041 241.826)"/><circle cx="133.75" cy="263.896" r="3.534" transform="rotate(294.273 133.75 263.896)"/><circle cx="124.614" cy="286.938" r="3.534" transform="rotate(288.818 124.614 286.938)"/><circle cx="117.714" cy="310.745" r="3.534" transform="rotate(283.364 117.714 310.745)"/><circle cx="113.114" cy="335.101" r="3.534" transform="rotate(277.909 113.114 335.101)"/><circle cx="110.855" cy="359.785" r="3.534" transform="rotate(272.455 110.855 359.785)"/><circle cx="110.957" cy="384.573" r="3.534" transform="rotate(267 110.957 384.573)"/><circle cx="113.42" cy="409.242" r="3.534" transform="rotate(261.546 113.42 409.242)"/><circle cx="118.221" cy="433.568" r="3.534" transform="rotate(256.091 118.221 433.568)"/><circle cx="125.316" cy="457.33" r="3.534" transform="rotate(250.636 125.316 457.33)"/><circle cx="134.642" cy="480.313" r="3.534" transform="rotate(245.182 134.642 480.313)"/><circle cx="146.115" cy="502.309" r="3.534" transform="rotate(239.727 146.115 502.309)"/><circle cx="159.614" cy="523.097" r="3.534" transform="rotate(234.273 159.614 523.097)"/><circle cx="174.951" cy="542.531" r="3.534" transform="rotate(228.818 174.951 542.531)"/><circle cx="192.092" cy="560.401" r="3.534" transform="rotate(223.364 192.092 560.401)"/><circle cx="210.858" cy="576.558" r="3.534" transform="rotate(217.909 210.858 576.558)"/><circle cx="231.08" cy="590.857" r="3.534" transform="rotate(212.455 231.08 590.857)"/><circle cx="252.575" cy="603.168" r="3.534" transform="rotate(207 252.575 603.168)"/><circle cx="275.281" cy="613.471" r="3.534" transform="rotate(201.545 275.281 613.471)"/><circle cx="298.735" cy="621.488" r="3.534" transform="rotate(196.091 298.735 621.488)"/><circle cx="322.849" cy="627.239" r="3.534" transform="rotate(190.636 322.849 627.239)"/><circle cx="347.405" cy="630.673" r="3.534" transform="rotate(185.182 347.405 630.673)"/><circle cx="372.18" cy="631.758" r="3.534" transform="rotate(179.727 372.18 631.758)"/><circle cx="396.949" cy="630.485" r="3.534" transform="rotate(174.273 396.949 630.485)"/><circle cx="421.49" cy="626.865" r="3.534" transform="rotate(168.818 421.49 626.865)"/><circle cx="445.578" cy="620.93" r="3.534" transform="rotate(163.364 445.578 620.93)"/><circle cx="468.997" cy="612.736" r="3.534" transform="rotate(157.909 468.997 612.736)"/><circle cx="491.534" cy="602.356" r="3.534" transform="rotate(152.455 491.534 602.356)"/><circle cx="512.984" cy="589.883" r="3.534" transform="rotate(147 512.984 589.883)"/><circle cx="533.094" cy="575.418" r="3.534" transform="rotate(141.545 533.094 575.418)"/><circle cx="551.742" cy="559.105" r="3.534" transform="rotate(136.091 551.742 559.105)"/><circle cx="568.758" cy="541.092" r="3.534" transform="rotate(130.636 568.758 541.092)"/><circle cx="583.988" cy="521.542" r="3.534" transform="rotate(125.182 583.988 521.542)"/><circle cx="597.296" cy="500.631" r="3.534" transform="rotate(119.727 597.296 500.631)"/><circle cx="608.559" cy="478.549" r="3.534" transform="rotate(114.273 608.559 478.549)"/><circle cx="617.677" cy="455.496" r="3.534" transform="rotate(108.818 617.677 455.496)"/><circle cx="624.566" cy="431.682" r="3.534" transform="rotate(103.364 624.566 431.682)"/><circle cx="629.165" cy="407.32" r="3.534" transform="rotate(97.909 629.165 407.32)"/><circle cx="631.431" cy="382.633" r="3.534" transform="rotate(92.455 631.431 382.633)"/><circle cx="631.344" cy="357.844" r="3.534" transform="rotate(87 631.344 357.844)"/><circle cx="628.905" cy="333.177" r="3.534" transform="rotate(81.546 628.905 333.177)"/><circle cx="624.136" cy="308.856" r="3.534" transform="rotate(76.091 624.136 308.856)"/><circle cx="617.08" cy="285.1" r="3.534" transform="rotate(70.636 617.08 285.1)"/><circle cx="607.801" cy="262.125" r="3.534" transform="rotate(65.182 607.801 262.125)"/><circle cx="596.382" cy="240.14" r="3.534" transform="rotate(59.727 596.382 240.14)"/><circle cx="582.899" cy="219.336" r="3.534" transform="rotate(54.273 582.899 219.336)"/><circle cx="567.471" cy="199.902" r="3.534" transform="rotate(48.818 567.471 199.902)"/><circle cx="550.269" cy="182.021" r="3.534" transform="rotate(43.364 550.269 182.021)"/><circle cx="531.45" cy="165.855" r="3.534" transform="rotate(37.909 531.45 165.855)"/><circle cx="511.183" cy="151.549" r="3.534" transform="rotate(32.455 511.183 151.549)"/><circle cx="489.652" cy="139.234" r="3.534" transform="rotate(27 489.652 139.234)"/><circle cx="467.052" cy="129.02" r="3.534" transform="rotate(21.546 467.052 129.02)"/><circle cx="443.588" cy="121.002" r="3.534" transform="rotate(16.091 443.588 121.002)"/><circle cx="419.472" cy="115.25" r="3.534" transform="rotate(10.636 419.472 115.25)"/><circle cx="394.922" cy="111.818" r="3.534" transform="rotate(5.182 394.922 111.818)"/><circle cx="370.161" cy="110.735" r="3.534" transform="rotate(359.727 370.161 110.735)"/><circle cx="345.414" cy="112.013" r="3.534" transform="rotate(354.273 345.414 112.013)"/><circle cx="320.904" cy="115.64" r="3.534" transform="rotate(348.818 320.904 115.64)"/><circle cx="296.853" cy="121.582" r="3.534" transform="rotate(343.364 296.853 121.582)"/><circle cx="273.479" cy="129.786" r="3.534" transform="rotate(337.909 273.479 129.786)"/><circle cx="250.994" cy="140.177" r="3.534" transform="rotate(332.455 250.994 140.177)"/><circle cx="229.601" cy="152.662" r="3.534" transform="rotate(327 229.601 152.662)"/></svg>