<svg width="54" height="55" viewBox="0 0 54 55" fill="none" xmlns="http://www.w3.org/2000/svg">
<g clip-path="url(#clip0_623_1058)">
<path d="M11.7 47.3001C11.16 47.3001 10.8 46.9401 10.8 46.4001V41.0001C10.8 40.4601 11.16 40.1001 11.7 40.1001C12.24 40.1001 12.6 40.4601 12.6 41.0001V46.4001C12.6 46.9401 12.24 47.3001 11.7 47.3001Z" fill="#6AB1FF"/>
<path d="M17.1 47.3C16.56 47.3 16.2 46.94 16.2 46.4V35.6C16.2 35.06 16.56 34.7 17.1 34.7C17.64 34.7 18 35.06 18 35.6V46.4C18 46.94 17.64 47.3 17.1 47.3Z" fill="#6AB1FF"/>
<path d="M22.5 47.3C21.96 47.3 21.6 46.94 21.6 46.4V28.4C21.6 27.86 21.96 27.5 22.5 27.5C23.04 27.5 23.4 27.86 23.4 28.4V46.4C23.4 46.94 23.04 47.3 22.5 47.3Z" fill="#6AB1FF"/>
<path d="M42.3 32.9001H27.9C27.36 32.9001 27 32.5401 27 32.0001C27 31.4601 27.36 31.1001 27.9 31.1001H42.3C42.84 31.1001 43.2 31.4601 43.2 32.0001C43.2 32.5401 42.84 32.9001 42.3 32.9001Z" fill="#6AB1FF"/>
<path d="M42.3 40.1H27.9C27.36 40.1 27 39.74 27 39.2C27 38.66 27.36 38.3 27.9 38.3H42.3C42.84 38.3 43.2 38.66 43.2 39.2C43.2 39.74 42.84 40.1 42.3 40.1Z" fill="#6AB1FF"/>
<path d="M42.3 47.3H27.9C27.36 47.3 27 46.94 27 46.4C27 45.86 27.36 45.5 27.9 45.5H42.3C42.84 45.5 43.2 45.86 43.2 46.4C43.2 46.94 42.84 47.3 42.3 47.3Z" fill="#6AB1FF"/>
<path d="M47.7 54.5H6.29999C5.75999 54.5 5.39999 54.14 5.39999 53.6V15.8C5.39999 15.62 5.57999 15.26 5.57999 15.08L19.98 0.68C20.16 0.68 20.52 0.5 20.7 0.5H47.7C48.24 0.5 48.6 0.86 48.6 1.4V53.6C48.6 54.14 48.24 54.5 47.7 54.5ZM7.19999 52.7H46.8V2.3H21.06L7.19999 16.16V52.7Z" fill="#6AB1FF"/>
<path d="M20.7 16.7H6.29999C5.75999 16.7 5.39999 16.34 5.39999 15.8C5.39999 15.26 5.75999 14.9 6.29999 14.9H19.8V1.4C19.8 0.86 20.16 0.5 20.7 0.5C21.24 0.5 21.6 0.86 21.6 1.4V15.8C21.6 16.34 21.24 16.7 20.7 16.7Z" fill="#6AB1FF"/>
<path d="M33.3 25.6999C27.9 25.6999 23.4 21.1999 23.4 15.7999C23.4 10.3999 27.9 5.8999 33.3 5.8999C34.02 5.8999 34.56 5.8999 35.28 6.0799C35.64 6.0799 36 6.6199 36 6.9799V13.0999H42.12C42.48 13.0999 42.84 13.4599 43.02 13.8199C43.2 14.5399 43.2 15.0799 43.2 15.7999C43.2 21.1999 38.7 25.6999 33.3 25.6999ZM33.3 7.6999C28.8 7.6999 25.2 11.2999 25.2 15.7999C25.2 20.2999 28.8 23.8999 33.3 23.8999C37.8 23.8999 41.4 20.2999 41.4 15.7999C41.4 15.4399 41.4 15.2599 41.4 14.8999H35.1C34.56 14.8999 34.2 14.5399 34.2 13.9999V7.6999C33.84 7.6999 33.66 7.6999 33.3 7.6999Z" fill="#6AB1FF"/>
<path d="M44.1 14.9001H35.1C34.56 14.9001 34.2 14.5401 34.2 14.0001V5.0001C34.2 4.4601 34.56 4.1001 35.1 4.1001C40.5 4.1001 45 8.6001 45 14.0001C45 14.5401 44.64 14.9001 44.1 14.9001ZM36 13.1001H43.2C42.84 9.3201 39.78 6.4401 36 5.9001V13.1001Z" fill="#6AB1FF"/>
</g>
<defs>
<clipPath id="clip0_623_1058">
<rect width="54" height="54" fill="white" transform="translate(0 0.5)"/>
</clipPath>
</defs>
</svg>
