<svg width="48" height="48" viewBox="0 0 48 48" fill="none" xmlns="http://www.w3.org/2000/svg">
<path d="M24.9167 0.620125C25.1778 0.854374 25.2894 1.22342 25.2214 1.55997C25.1913 1.88171 25.1871 2.20973 25.183 2.53553C25.1817 2.64201 25.1803 2.74826 25.1781 2.85397C25.1725 3.01544 25.1675 3.1765 25.1624 3.33728C25.1562 3.53737 25.15 3.73699 25.1428 3.93641C25.1389 4.04398 25.1348 4.15146 25.1303 4.25894C25.0972 5.10849 25.0754 5.96276 25.0619 6.80997C25.0735 7.85507 25.1142 8.89741 25.155 9.94033C25.1946 10.9519 25.2342 11.964 25.2473 12.9798C25.2765 14.9004 25.2629 16.8276 25.2494 18.7467L25.2458 19.2662C25.2335 20.9413 25.2676 22.6199 25.3017 24.2984C25.3093 24.6724 25.3169 25.0464 25.324 25.4204C25.3606 27.5032 25.4048 29.5867 25.4568 31.6707C25.4855 32.8319 25.5058 34.0001 25.5149 35.1637C25.5224 36.0574 25.5068 36.9494 25.4913 37.8432C25.4873 38.0688 25.4834 38.2945 25.4798 38.5203L25.4802 38.5487C25.4803 38.5593 25.4803 38.5699 25.4802 38.5803C25.48 38.5971 25.4794 38.6136 25.4783 38.6294C25.4698 39.423 25.4782 40.2147 25.4867 41.0078C25.4904 41.3502 25.4941 41.6929 25.4964 42.0361C25.4986 42.5118 25.4973 42.9835 25.4961 43.4552L25.496 43.4791C25.8044 43.1374 26.1093 42.7915 26.4064 42.4451C26.5 42.3352 26.5931 42.2248 26.6863 42.1142C26.9269 41.8287 27.1681 41.5425 27.4206 41.2652C27.8218 40.8228 28.2153 40.3799 28.598 39.9247C28.8773 39.5577 29.1525 39.1943 29.4283 38.8233C29.4847 38.7478 29.5404 38.6709 29.5962 38.5937C29.7449 38.3882 29.8949 38.1809 30.0637 37.9953C30.4182 37.6071 31.0293 37.564 31.4251 37.9119C31.8173 38.2557 31.8672 38.8773 31.5128 39.2655C31.4791 39.3014 31.449 39.3414 31.4112 39.3808C31.2156 39.6351 31.0244 39.8915 30.8333 40.1477C30.4625 40.6448 30.0926 41.1407 29.6938 41.6178C29.5226 41.8254 29.3407 42.0233 29.1582 42.2218L29.1571 42.223C29.022 42.37 28.8866 42.5172 28.7551 42.6689C28.462 43.0066 28.1748 43.3447 27.8855 43.6852L27.7615 43.8312C27.3988 44.2535 27.0285 44.6695 26.6583 45.0855C26.3485 45.4337 26.0387 45.7818 25.7335 46.1334C25.4623 46.4433 25.1479 46.7617 24.7049 46.7826C24.3123 46.8029 23.9896 46.5889 23.7894 46.2781C23.7249 46.2616 23.6611 46.2376 23.5986 46.2056C23.2333 46.0173 22.9396 45.7537 22.6387 45.482C22.472 45.3315 22.3046 45.1886 22.142 45.0346C21.7409 44.6557 21.3395 44.2765 20.9425 43.8941C20.2209 43.1959 19.4814 42.527 18.7036 41.9053C18.1614 41.4967 17.6423 41.0897 17.2058 40.5623C17.1061 40.44 17.0099 40.3131 16.9136 40.1862C16.7978 40.0335 16.6819 39.8807 16.5596 39.7354C16.4695 39.698 16.3806 39.6454 16.301 39.5704C15.9236 39.2354 15.8482 38.5927 16.2175 38.2133C16.2465 38.1885 16.2677 38.1632 16.2925 38.1421C16.5692 37.9131 16.9575 37.796 17.3184 37.9379C17.5781 38.0377 17.7751 38.1981 17.9491 38.4067C18.0931 38.576 18.2283 38.7504 18.3631 38.9242C18.5579 39.1752 18.7517 39.4251 18.9699 39.6568C19.1616 39.836 19.3586 39.9964 19.5668 40.1615C20.354 40.761 21.104 41.3922 21.8227 42.0787C21.9995 42.2478 22.1757 42.4181 22.3519 42.5885C22.7522 42.9755 23.1532 43.3632 23.5644 43.7398C23.5641 43.6239 23.5639 43.5079 23.5637 43.392L23.5637 43.3808C23.5618 42.5157 23.5598 41.6515 23.5463 40.7863C23.5267 39.3682 23.5524 37.9534 23.578 36.5461L23.5789 36.5017L23.579 36.4995C23.5793 36.4976 23.5794 36.4959 23.5794 36.4941C23.5797 36.4912 23.5793 36.4888 23.5789 36.4868C23.5784 36.4834 23.578 36.481 23.5806 36.4788L23.5811 36.4712L23.5829 36.4483C23.586 34.4029 23.5394 32.35 23.4882 30.3083C23.4487 28.7515 23.4223 27.1957 23.3959 25.6399L23.3954 25.6093C23.3867 25.1002 23.3781 24.5911 23.3689 24.082C23.3307 22.022 23.3077 19.9632 23.3274 17.9037C23.3465 15.8019 23.3466 13.6948 23.288 11.595C23.2808 11.3509 23.2722 11.1069 23.2627 10.863C23.2504 10.5452 23.2368 10.2275 23.2231 9.90991C23.1712 8.70445 23.1194 7.49978 23.1418 6.29165C23.1532 5.60183 23.1776 4.91294 23.2019 4.22409C23.21 3.99425 23.2181 3.76441 23.2258 3.53453L23.2263 3.52083C23.2411 3.06981 23.2559 2.61869 23.2671 2.16361L23.2705 2.07726L23.2733 2.01194C23.2799 1.85715 23.2864 1.70347 23.2865 1.54714C23.3007 1.2565 23.3361 0.940597 23.55 0.722311C23.5596 0.710889 23.5699 0.700305 23.5811 0.689847C23.5893 0.682128 23.5979 0.674475 23.607 0.666612L23.6251 0.65112C23.9904 0.325065 24.5387 0.292768 24.9167 0.620125Z" fill="#808292"/>
<path d="M23.5799 36.4366C23.5787 36.4519 23.5782 36.4595 23.5811 36.4712C23.5817 36.4636 23.5787 36.4519 23.5799 36.4366Z" fill="#808292"/>
<path d="M23.5765 36.4824C23.5765 36.4824 23.5759 36.49 23.5794 36.4941C23.5795 36.4894 23.5788 36.485 23.5765 36.4824Z" fill="#808292"/>
</svg>
