<svg width="70" height="48" viewBox="0 0 70 48" fill="none" xmlns="http://www.w3.org/2000/svg">
<g clip-path="url(#clip0_712_1624)">
<path d="M9.08745 36.4841V39.5585H8.77886C8.53126 38.6036 8.13583 37.9008 7.59258 37.45C7.04748 36.9992 6.32315 36.7729 5.41773 36.7729C4.24069 36.7729 3.3094 37.1943 2.62017 38.0388C1.93094 38.8814 1.58726 40.0074 1.58726 41.4131C1.58726 42.953 1.94942 44.1931 2.67745 45.1332C3.40364 46.0734 4.35525 46.5426 5.53229 46.5426C7.16204 46.5426 8.36496 45.7864 9.14103 44.2759L9.41451 44.5316C9.06712 45.3522 8.50724 45.9998 7.73301 46.4782C6.95879 46.9547 6.07924 47.1939 5.09067 47.1939C4.15569 47.1939 3.28907 46.9749 2.49267 46.5352C1.69627 46.0955 1.08096 45.4902 0.648577 44.7211C0.216194 43.9502 0 43.0652 0 42.0625C0 40.4232 0.506296 39.0654 1.51704 37.9909C2.52963 36.9164 3.80461 36.3792 5.34751 36.3792C5.86489 36.3792 6.52086 36.4694 7.31541 36.6515C7.76258 36.7564 8.07116 36.8097 8.24116 36.8097C8.50539 36.8097 8.69202 36.7012 8.79734 36.4841H9.08929H9.08745Z" fill="#F8F8F9"/>
<path d="M18.6183 44.6898H18.9269L18.2913 46.9381H10.7911V46.64C11.2142 46.64 11.5154 46.5076 11.6946 46.2445C11.8739 45.9814 11.9644 45.538 11.9644 44.9161V38.4269C11.9644 37.8695 11.8813 37.4813 11.7131 37.2623C11.545 37.0434 11.2382 36.933 10.7911 36.933V36.6349H14.4977V36.933C14.0857 36.933 13.79 37.0599 13.6108 37.3101C13.4316 37.5622 13.341 37.978 13.341 38.5576V45.446C13.341 45.8268 13.4223 46.0881 13.5831 46.2279C13.7457 46.3678 14.0561 46.4395 14.5144 46.4395H16.571C17.2066 46.4395 17.6501 46.3291 17.9032 46.1102C18.1564 45.8912 18.3947 45.4165 18.6183 44.6916V44.6898Z" fill="#F8F8F9"/>
<path d="M25.7471 46.94V46.6419C26.3402 46.6419 26.6377 46.4359 26.6377 46.0256C26.6377 45.9078 26.6119 45.7753 26.5583 45.63L25.5974 42.769H22.2751L21.5692 44.8389C21.3919 45.3614 21.305 45.7404 21.305 45.9741C21.305 46.4083 21.5785 46.6309 22.1236 46.6438V46.9418H19.4498V46.6438C19.8323 46.5904 20.1298 46.4653 20.3423 46.2647C20.5548 46.066 20.7692 45.6521 20.9872 45.0228L23.8494 36.5209H24.9156L27.9201 45.4C28.0975 45.9225 28.2804 46.2611 28.4726 46.4119C28.6648 46.5646 28.9715 46.6401 29.3946 46.6401V46.9381H25.7508L25.7471 46.94ZM22.4654 42.1343H25.3849L23.9178 37.7683L22.4673 42.1343H22.4654Z" fill="#F8F8F9"/>
<path d="M44.1807 36.6331V36.9312C43.7742 36.9606 43.436 37.128 43.1644 37.4371C42.8928 37.7444 42.623 38.2724 42.3514 39.0231L39.4393 47.0798H39.1178L36.2962 39.472L33.5541 47.0798H33.2584L30.0987 38.5741C29.9213 38.105 29.7642 37.7591 29.6256 37.5328C29.4871 37.3065 29.3392 37.1501 29.1803 37.0636C29.0214 36.9771 28.7424 36.9312 28.3414 36.9312V36.6331H32.1793V36.9312C31.5714 37.0011 31.2683 37.2237 31.2683 37.599C31.2683 37.7517 31.3127 37.9449 31.4014 38.1786L33.8275 44.7248L36.0245 38.7324L35.7954 38.0645C35.6494 37.6487 35.4702 37.3562 35.2596 37.1851C35.0489 37.0158 34.7459 36.9293 34.3523 36.9293V36.6313H38.1384V36.9293C37.4695 36.9293 37.1332 37.1354 37.1332 37.5457C37.1332 37.7149 37.1794 37.932 37.2737 38.197L39.6943 44.7248L41.8174 38.9532C41.9874 38.4895 42.0724 38.1087 42.0724 37.8106C42.0724 37.2127 41.7287 36.9146 41.0376 36.9146V36.6331H44.1789H44.1807Z" fill="#F8F8F9"/>
<path d="M53.7634 37.1336H52.1928V45.0578C52.1928 45.6797 52.2685 46.0992 52.4219 46.3163C52.5753 46.5334 52.8709 46.6419 53.3125 46.6419V46.94H49.6502V46.6419C50.1048 46.6419 50.4152 46.5168 50.5778 46.2684C50.7404 46.0182 50.8235 45.5987 50.8235 45.0063V37.1336H49.3231C48.6044 37.1336 48.0833 37.2476 47.7562 37.4758C47.4292 37.7039 47.2462 38.0829 47.2037 38.6091H46.8951V36.2449H47.2037C47.4809 36.5025 47.9983 36.6313 48.7577 36.6313H54.1847C54.9663 36.6313 55.5132 36.5025 55.8255 36.2449H56.1526V38.6091H55.9493C55.82 38.0406 55.589 37.6524 55.2564 37.4445C54.9238 37.2366 54.4249 37.1317 53.7615 37.1317L53.7634 37.1336Z" fill="#F8F8F9"/>
<path d="M57.0912 47.1405C56.5905 47.1405 56.1618 46.9749 55.8033 46.6438C55.4449 46.3126 55.2656 45.9133 55.2656 45.4442C55.2656 44.975 55.4208 44.631 55.7294 44.3421C56.038 44.0532 56.6663 43.7754 57.6142 43.5123C58.2073 43.3486 58.6083 43.2088 58.8152 43.091V42.6163C58.8152 42.1545 58.6859 41.781 58.4272 41.4959C58.1685 41.2125 57.8211 41.069 57.3869 41.069C56.9933 41.069 56.6422 41.1923 56.3373 41.4388C56.0306 41.6854 55.8163 42.0184 55.6925 42.4397L55.3654 42.3514C55.4948 41.759 55.7756 41.2861 56.208 40.9273C56.6404 40.5704 57.1467 40.3919 57.7306 40.3919C58.418 40.3919 58.976 40.598 59.4028 41.012C59.8297 41.4241 60.0422 41.9981 60.0422 42.7304V45.4626C60.0422 45.8489 60.068 46.112 60.1179 46.2482C60.1678 46.3843 60.2639 46.4543 60.4043 46.4543C60.4986 46.4543 60.5743 46.4156 60.6335 46.3365C60.6926 46.2574 60.7591 46.0918 60.8367 45.8397H61.1453C61.1157 46.239 60.9901 46.5555 60.7702 46.7891C60.5503 47.0228 60.2602 47.1405 59.9017 47.1405C59.3788 47.1405 59.0166 46.8388 58.8171 46.2353C58.4993 46.5812 58.2166 46.8186 57.9708 46.9473C57.7232 47.0761 57.4331 47.1405 57.0968 47.1405H57.0912ZM58.8115 45.6466V43.4847C58.6286 43.5602 58.3644 43.6577 58.017 43.7736C57.3758 43.9907 56.9656 44.206 56.7864 44.4194C56.6071 44.6328 56.5166 44.9217 56.5166 45.2841C56.5166 45.6006 56.6127 45.8747 56.803 46.1047C56.9933 46.3365 57.2224 46.4524 57.4867 46.4524C57.7287 46.4524 57.98 46.3751 58.2461 46.2206C58.5103 46.0661 58.6988 45.8729 58.8115 45.6447V45.6466Z" fill="#F8F8F9"/>
<path d="M64.2033 46.94H61.5998V46.6419C62.0636 46.6419 62.4054 46.5757 62.6235 46.4432C62.8415 46.3108 63.1316 46.0274 63.4975 45.5932L64.8759 43.9502L63.3644 41.9724C63.0466 41.5547 62.7787 41.2769 62.557 41.1389C62.3371 41.0009 62.0174 40.9163 61.5998 40.8869V40.5888H65.1198V40.8869C64.7447 40.9163 64.5563 41.0396 64.5563 41.2567C64.5563 41.4039 64.6413 41.597 64.8131 41.8381L65.6705 43.0413L66.5334 41.9724C66.757 41.7019 66.8678 41.4664 66.8678 41.2659C66.8678 41.0138 66.6997 40.8869 66.3634 40.8869V40.5888H68.8967V40.8869C68.5032 40.9273 68.189 41.023 67.9562 41.1739C67.7234 41.3247 67.4111 41.6302 67.0157 42.0956L65.9661 43.3615L67.8804 45.8858C68.274 46.3917 68.7508 46.6438 69.3106 46.6438V46.9418H65.9477V46.6438C66.271 46.5978 66.4318 46.48 66.4318 46.2924C66.4318 46.1746 66.3671 46.0274 66.2378 45.8508L65.1032 44.32L63.9797 45.7441C63.8208 45.9391 63.7414 46.1139 63.7414 46.274C63.7414 46.5039 63.8948 46.6272 64.2015 46.6438V46.9418L64.2033 46.94Z" fill="#F8F8F9"/>
<path d="M42.6815 2.26424C42.6199 2.22483 42.5582 2.18707 42.4966 2.14766C40.3183 0.78649 37.7508 0 35.0016 0C27.1044 0 20.7042 6.4791 20.7042 14.4737C20.7042 16.1009 20.9686 17.664 21.4584 19.1237C21.4909 19.2189 21.5233 19.3125 21.5574 19.4061C21.5914 19.5013 21.6271 19.5966 21.6628 19.6902C21.7471 19.2353 21.8818 18.7969 22.0813 18.3815C23.2539 15.9432 24.086 13.2915 26.1799 11.3442C27.2147 10.3803 27.9137 9.04709 28.8269 7.79758C28.8966 8.01267 28.9356 8.13582 28.9664 8.23105C30.4829 7.35754 32.0059 6.4791 33.5289 5.60066C33.6165 5.71724 33.7024 5.83217 33.79 5.94875C33.3505 6.34118 32.8736 6.70076 32.4763 7.13423C31.2452 8.47898 30.1828 10.0224 28.7977 11.1685C27.3282 12.3852 26.8919 14.1864 25.7987 15.564C24.3649 17.3717 23.4859 19.4488 22.5484 21.5882C22.2905 22.1777 22.0277 22.7737 21.7471 23.3681C21.7471 23.3681 21.7471 23.3665 21.7471 23.3648C21.7098 23.4617 21.6693 23.5569 21.6255 23.6505C21.5849 23.7375 21.5428 23.8246 21.5006 23.9116L21.5866 24.4797L22.0423 23.511C22.2905 22.9855 22.5224 22.4601 22.7511 21.9396C23.3529 22.9494 24.073 23.8787 24.8905 24.7079C24.9326 24.7506 24.9748 24.7917 25.017 24.8327C25.0591 24.8738 25.1013 24.9165 25.1435 24.9575C25.8133 23.309 26.4881 21.6605 27.1887 20.0251C27.338 19.6754 27.8245 19.4783 28.1392 19.1943C28.3403 19.012 28.5674 18.8265 28.6939 18.5933C29.7076 16.7018 30.6743 14.7824 31.7107 12.904C32.2005 12.0174 32.7909 11.175 33.9441 10.8155C33.8922 11.1833 33.8533 11.464 33.7803 11.9796C34.2231 11.6332 34.5653 11.441 34.8102 11.1603C35.5125 10.3541 36.2083 9.53639 36.8458 8.67766C37.3113 8.05044 37.673 7.37067 38.5358 7.17857C38.7986 7.1211 39.0273 6.80092 39.2235 6.55955C40.1707 5.39706 41.1001 4.22143 42.1009 3.09177C41.1763 6.26565 39.9631 9.27368 37.5335 11.7432C37.4572 11.5297 37.4053 11.4049 37.368 11.2752C37.3356 11.1652 37.321 11.0503 37.2934 10.9123C37.1961 10.9567 37.102 10.9682 37.0582 11.0223C35.7964 12.6462 34.5377 14.275 33.2807 15.9038C33.1769 16.0368 33.0666 16.2995 32.9807 16.2995C32.9807 16.2995 32.9774 16.2995 32.9758 16.2995C32.9191 16.293 32.8639 16.2897 32.812 16.2897C31.9686 16.2897 31.8372 17.1107 31.5193 17.6312C30.2039 19.7854 28.9404 21.9708 27.6867 24.1612C27.3055 24.8261 26.9 25.4698 26.4524 26.0773C25.6706 27.138 24.7591 28.092 23.6124 28.867C23.6156 28.8588 23.6172 28.8505 23.6205 28.8423C23.5491 28.8867 23.4777 28.9277 23.4048 28.9655C23.3366 29 23.2669 29.0328 23.1971 29.064L22.9766 29.6961L23.794 29.1428C24.8791 28.4072 25.8214 27.4877 26.7151 26.2727C27.5439 26.8704 28.4376 27.3794 29.3832 27.7882C29.4335 27.8096 29.4838 27.8309 29.5341 27.8522C29.5843 27.8736 29.6346 27.8949 29.6849 27.9146C30.2915 26.5929 30.8981 25.2695 31.5031 23.9477C32.9288 23.2203 33.344 21.7344 34.069 20.4734C34.6302 19.4948 35.2206 18.5277 35.8742 17.6098C36.1548 17.2174 36.63 16.9662 37.1231 16.5655C37.1426 16.9366 37.1507 17.1008 37.162 17.3061C37.2448 17.2568 37.3259 17.2338 37.3664 17.1796C38.5375 15.6346 39.7069 14.0862 40.873 12.5362C40.9947 12.3753 41.0725 12.106 41.2266 12.0535C43.0302 11.4394 43.6579 9.58072 45.1696 8.32464C43.8574 11.7333 42.6101 14.9384 40.1789 17.6032C40.0523 17.3159 39.9664 17.1189 39.8561 16.8693C39.4149 17.3717 39.0192 17.8282 38.6169 18.2781C35.8872 21.3206 33.2694 24.4354 31.3831 28.1264C31.3295 28.2315 31.2695 28.3317 31.2128 28.4335C30.5072 29.6797 29.4968 30.7224 28.3192 31.5614C28.3127 31.568 28.3046 31.5745 28.2981 31.5811C28.2641 31.6156 28.2268 31.6451 28.1895 31.6763C28.1457 31.7157 28.1019 31.7551 28.0565 31.7913L28.1603 31.8504L28.3403 31.9522L28.509 31.8323C29.8341 30.8882 30.8495 29.7733 31.542 28.5205C32.5363 28.7701 33.5711 28.9162 34.6351 28.9425C34.7097 28.9441 34.7827 28.9441 34.8573 28.9458C34.9043 28.9458 34.953 28.9474 35 28.9474C35.0276 28.9474 35.0535 28.9474 35.0811 28.9474C35.8564 28.1199 36.6382 27.3038 37.5367 26.652C39.0776 25.5355 39.6241 23.7704 40.7919 22.4601C42.7594 20.2533 43.8623 17.5573 45.3204 15.0369C45.3042 17.3225 45.3674 19.6195 43.7633 21.5472C43.4552 21.9166 43.2995 22.4141 43.0594 22.8427C42.2647 24.2597 41.3986 25.5782 40.1237 26.6651C39.5074 27.1905 38.9883 27.8358 38.4677 28.5189C38.0963 29.0065 37.7249 29.5122 37.3145 30.0114C37.2318 29.77 37.1896 29.6452 37.1637 29.5714C35.6082 30.348 34.056 31.1213 32.5055 31.8963C32.5038 31.8931 32.5006 31.8881 32.499 31.8848C32.4503 31.9095 32.4 31.9341 32.3514 31.9571C32.3011 31.9801 32.2508 32.0031 32.2005 32.0244L32.2281 32.0704L32.3838 32.3265L32.6498 32.1935L36.9771 30.0344L37.0063 30.1214L37.1961 30.6747L37.5659 30.2232C37.8773 29.8423 38.1676 29.4581 38.4499 29.0853C38.6315 28.844 38.8116 28.6059 38.9916 28.376C44.9441 26.6274 49.2958 21.0661 49.2958 14.4754C49.2958 9.34429 46.6569 4.83716 42.6799 2.26588L42.6815 2.26424Z" fill="#F8F8F9"/>
</g>
<defs>
<clipPath id="clip0_712_1624">
<rect width="70" height="48" fill="white"/>
</clipPath>
</defs>
</svg>
