<svg width="73" height="50" viewBox="0 0 73 50" fill="none" xmlns="http://www.w3.org/2000/svg">
<g clip-path="url(#clip0_763_3105)">
<path d="M9.46609 38.0043V41.2068H9.14465C8.88673 40.2121 8.47483 39.48 7.90894 39.0104C7.34113 38.5409 6.58661 38.3052 5.64347 38.3052C4.41738 38.3052 3.44729 38.744 2.72935 39.6237C2.0114 40.5015 1.65339 41.6744 1.65339 43.1386C1.65339 44.7427 2.03065 46.0345 2.78901 47.0138C3.54545 47.9931 4.53672 48.4819 5.7628 48.4819C7.46046 48.4819 8.7135 47.6942 9.52191 46.1207L9.80678 46.3871C9.44492 47.2419 8.86171 47.9165 8.05522 48.4148C7.24874 48.9112 6.33254 49.1603 5.30278 49.1603C4.32884 49.1603 3.42612 48.9322 2.59653 48.4742C1.76695 48.0161 1.126 47.3856 0.675601 46.5845C0.225202 45.7815 0 44.8596 0 43.8151C0 42.1075 0.527392 40.6931 1.58025 39.5739C2.63503 38.4546 3.96313 37.895 5.57032 37.895C6.10926 37.895 6.79256 37.9889 7.62022 38.1787C8.08602 38.2879 8.40746 38.3435 8.58454 38.3435C8.85978 38.3435 9.05418 38.2304 9.1639 38.0043H9.46801H9.46609Z" fill="#F8F8F9"/>
<path d="M19.3941 46.5519H19.7155L19.0534 48.8939H11.2407V48.5834C11.6815 48.5834 11.9952 48.4454 12.1819 48.1713C12.3686 47.8973 12.463 47.4354 12.463 46.7876V40.0281C12.463 39.4474 12.3763 39.043 12.2012 38.8149C12.026 38.5868 11.7065 38.4719 11.2407 38.4719V38.1614H15.1018V38.4719C14.6726 38.4719 14.3646 38.6041 14.1779 38.8647C13.9912 39.1273 13.8969 39.5604 13.8969 40.1641V47.3396C13.8969 47.7363 13.9816 48.0084 14.1491 48.1541C14.3184 48.2997 14.6418 48.3745 15.1192 48.3745H17.2614C17.9236 48.3745 18.3855 48.2595 18.6492 48.0314C18.9129 47.8034 19.1612 47.3089 19.3941 46.5538V46.5519Z" fill="#F8F8F9"/>
<path d="M26.8199 48.8958V48.5853C27.4378 48.5853 27.7477 48.3707 27.7477 47.9433C27.7477 47.8206 27.7207 47.6826 27.6649 47.5312L26.664 44.5511H23.2032L22.468 46.7071C22.2832 47.2514 22.1927 47.6462 22.1927 47.8896C22.1927 48.3419 22.4776 48.5738 23.0454 48.5872V48.8977H20.2603V48.5872C20.6587 48.5317 20.9686 48.4013 21.1899 48.1924C21.4113 47.9855 21.6346 47.5542 21.8617 46.8988L24.8432 38.0426H25.9538L29.0835 47.2917C29.2682 47.836 29.4588 48.1886 29.659 48.3458C29.8592 48.5048 30.1787 48.5834 30.6194 48.5834V48.8939H26.8238L26.8199 48.8958ZM23.4015 43.8899H26.4427L24.9144 39.342L23.4034 43.8899H23.4015Z" fill="#F8F8F9"/>
<path d="M46.0216 38.1594V38.4699C45.5981 38.5006 45.2459 38.675 44.963 38.997C44.68 39.317 44.399 39.8671 44.116 40.649L41.0826 49.0414H40.7477L37.8085 41.1166L34.9522 49.0414H34.6442L31.3528 40.1814C31.168 39.6927 31.0044 39.3324 30.8601 39.0966C30.7157 38.8609 30.5617 38.698 30.3962 38.6079C30.2307 38.5178 29.94 38.4699 29.5223 38.4699V38.1594H33.5201V38.4699C32.8869 38.5428 32.5712 38.7746 32.5712 39.1656C32.5712 39.3247 32.6174 39.5259 32.7098 39.7693L35.237 46.5883L37.5256 40.3462L37.2869 39.6505C37.1349 39.2174 36.9481 38.9126 36.7287 38.7344C36.5093 38.5581 36.1936 38.468 35.7837 38.468V38.1575H39.7275V38.468C39.0308 38.468 38.6805 38.6827 38.6805 39.11C38.6805 39.2864 38.7286 39.5125 38.8267 39.7885L41.3482 46.5883L43.5598 40.5762C43.7369 40.0932 43.8254 39.6965 43.8254 39.386C43.8254 38.7632 43.4674 38.4527 42.7475 38.4527V38.1594H46.0197H46.0216Z" fill="#F8F8F9"/>
<path d="M56.0035 38.6808H54.3675V46.9352C54.3675 47.583 54.4464 48.02 54.6061 48.2461C54.7659 48.4723 55.0739 48.5853 55.5339 48.5853V48.8958H51.719V48.5853C52.1925 48.5853 52.5158 48.455 52.6852 48.1963C52.8546 47.9356 52.9412 47.4987 52.9412 46.8815V38.6808H51.3783C50.6295 38.6808 50.0868 38.7996 49.7461 39.0372C49.4054 39.2749 49.2148 39.6697 49.1706 40.2178H48.8491V37.7551H49.1706C49.4593 38.0234 49.9982 38.1576 50.7893 38.1576H56.4424C57.2566 38.1576 57.8263 38.0234 58.1516 37.7551H58.4923V40.2178H58.2806C58.1458 39.6256 57.9052 39.2212 57.5588 39.0047C57.2123 38.7881 56.6926 38.6789 56.0016 38.6789L56.0035 38.6808Z" fill="#F8F8F9"/>
<path d="M59.47 49.1047C58.9484 49.1047 58.5019 48.9322 58.1285 48.5872C57.7551 48.2423 57.5684 47.8264 57.5684 47.3377C57.5684 46.849 57.73 46.4906 58.0515 46.1897C58.3729 45.8888 59.0273 45.5994 60.0148 45.3253C60.6326 45.1548 61.0503 45.0091 61.2659 44.8865V44.392C61.2659 43.9109 61.1311 43.5219 60.8617 43.2248C60.5922 42.9297 60.2303 42.7802 59.778 42.7802C59.368 42.7802 59.0023 42.9086 58.6847 43.1654C58.3652 43.4222 58.1419 43.7691 58.013 44.208L57.6723 44.116C57.807 43.4989 58.0996 43.0063 58.55 42.6326C59.0004 42.2608 59.5278 42.0749 60.136 42.0749C60.852 42.0749 61.4333 42.2896 61.878 42.7208C62.3226 43.1501 62.5439 43.748 62.5439 44.5108V47.3568C62.5439 47.7593 62.5709 48.0334 62.6228 48.1752C62.6748 48.317 62.7749 48.3898 62.9212 48.3898C63.0193 48.3898 63.0983 48.3496 63.1599 48.2672C63.2214 48.1848 63.2907 48.0123 63.3716 47.7497H63.693C63.6622 48.1656 63.5313 48.4953 63.3023 48.7386C63.0732 48.982 62.771 49.1047 62.3976 49.1047C61.8529 49.1047 61.4757 48.7904 61.2678 48.1618C60.9367 48.5221 60.6422 48.7693 60.3862 48.9035C60.1283 49.0376 59.8261 49.1047 59.4758 49.1047H59.47ZM61.262 47.5485V45.2966C61.0715 45.3752 60.7962 45.4767 60.4344 45.5975C59.7665 45.8236 59.3392 46.0479 59.1525 46.2702C58.9657 46.4925 58.8714 46.7934 58.8714 47.1709C58.8714 47.5006 58.9715 47.7861 59.1698 48.0257C59.368 48.2672 59.6067 48.3879 59.882 48.3879C60.1341 48.3879 60.3959 48.3074 60.673 48.1464C60.9483 47.9855 61.1446 47.7842 61.262 47.5466V47.5485Z" fill="#F8F8F9"/>
<path d="M66.8785 48.8958H64.1665V48.5853C64.6496 48.5853 65.0057 48.5163 65.2328 48.3784C65.46 48.2404 65.7622 47.9452 66.1433 47.4929L67.5792 45.7815L66.0047 43.7212C65.6736 43.2862 65.3945 42.9968 65.1636 42.853C64.9345 42.7093 64.6015 42.6211 64.1665 42.5905V42.28H67.8332V42.5905C67.4425 42.6211 67.2462 42.7495 67.2462 42.9757C67.2462 43.129 67.3347 43.3302 67.5137 43.5813L68.4068 44.8347L69.3057 43.7212C69.5386 43.4395 69.6541 43.1942 69.6541 42.9853C69.6541 42.7227 69.4789 42.5905 69.1286 42.5905V42.28H71.7675V42.5905C71.3575 42.6326 71.0303 42.7323 70.7878 42.8895C70.5452 43.0466 70.2199 43.3647 69.808 43.8496L68.7148 45.1682L70.7089 47.7976C71.1188 48.3247 71.6154 48.5873 72.1986 48.5873V48.8977H68.6955V48.5873C69.0324 48.5393 69.1998 48.4167 69.1998 48.2212C69.1998 48.0985 69.1325 47.9452 68.9977 47.7612L67.8159 46.1667L66.6456 47.6501C66.4801 47.8532 66.3973 48.0353 66.3973 48.202C66.3973 48.4416 66.5571 48.57 66.8766 48.5873V48.8977L66.8785 48.8958Z" fill="#F8F8F9"/>
<path d="M44.4599 2.35858C44.3957 2.31753 44.3315 2.27819 44.2673 2.23714C41.9983 0.81926 39.3238 0 36.46 0C28.2337 0 21.5669 6.74906 21.5669 15.0768C21.5669 16.7717 21.8423 18.4 22.3525 19.9205C22.3863 20.0197 22.4201 20.1172 22.4556 20.2147C22.4911 20.3139 22.5282 20.4131 22.5654 20.5106C22.6533 20.0368 22.7935 19.5801 23.0013 19.1474C24.2228 16.6075 25.0895 13.8453 27.2707 11.8168C28.3486 10.8129 29.0768 9.42406 30.028 8.12248C30.1007 8.34653 30.1412 8.47481 30.1733 8.57401C31.753 7.6641 33.3395 6.74906 34.9259 5.83402C35.0172 5.95546 35.1067 6.07518 35.1979 6.19662C34.7401 6.60539 34.2434 6.97996 33.8294 7.43149C32.5471 8.83227 31.4405 10.44 29.9976 11.6338C28.4669 12.9012 28.0124 14.7775 26.8737 16.2125C25.3801 18.0956 24.4644 20.2592 23.4879 22.4877C23.2192 23.1018 22.9455 23.7226 22.6533 24.3418C22.6533 24.3418 22.6533 24.3401 22.6533 24.3384C22.6144 24.4393 22.5722 24.5385 22.5265 24.636C22.4843 24.7266 22.4404 24.8173 22.3964 24.9079L22.486 25.4997L22.9607 24.4906C23.2192 23.9433 23.4608 23.3959 23.6991 22.8538C24.3259 23.9056 25.076 24.8737 25.9275 25.7374C25.9715 25.7819 26.0154 25.8247 26.0593 25.8674C26.1033 25.9102 26.1472 25.9546 26.1911 25.9974C26.8889 24.2802 27.5917 22.563 28.3216 20.8595C28.477 20.4952 28.9839 20.2899 29.3117 19.994C29.5212 19.8042 29.7577 19.6109 29.8895 19.3681C30.9454 17.3977 31.9524 15.3983 33.032 13.4417C33.5422 12.5181 34.1572 11.6407 35.3585 11.2661C35.3044 11.6492 35.2638 11.9417 35.1878 12.4788C35.6491 12.1179 36.0055 11.9178 36.2607 11.6253C36.9922 10.7855 37.717 9.93374 38.381 9.03923C38.8659 8.38587 39.2427 7.67778 40.1415 7.47767C40.4152 7.41781 40.6534 7.08429 40.8578 6.83287C41.8445 5.62194 42.8126 4.39732 43.8551 3.2206C42.892 6.52671 41.6283 9.66008 39.0974 12.2325C39.018 12.0101 38.9639 11.8801 38.925 11.745C38.8912 11.6304 38.876 11.5107 38.8473 11.367C38.7459 11.4132 38.6479 11.4252 38.6023 11.4816C37.2879 13.1732 35.9768 14.8698 34.6674 16.5665C34.5593 16.705 34.4444 16.9787 34.3549 16.9787C34.3549 16.9787 34.3515 16.9787 34.3498 16.9787C34.2907 16.9719 34.2332 16.9684 34.1792 16.9684C33.3006 16.9684 33.1638 17.8236 32.8326 18.3658C31.4624 20.6098 30.1463 22.8863 28.8403 25.1679C28.4432 25.8606 28.0209 26.531 27.5546 27.1639C26.7402 28.2687 25.7907 29.2625 24.5962 30.0697C24.5996 30.0612 24.6013 30.0526 24.6047 30.0441C24.5303 30.0903 24.456 30.133 24.3799 30.1724C24.309 30.2083 24.2363 30.2425 24.1637 30.275L23.9339 30.9335L24.7854 30.3571C25.9157 29.5909 26.8973 28.6331 27.8283 27.3674C28.6916 27.99 29.6225 28.5202 30.6075 28.946C30.6599 28.9683 30.7123 28.9905 30.7646 29.0128C30.817 29.035 30.8694 29.0572 30.9218 29.0777C31.5537 27.7009 32.1855 26.3224 32.8157 24.9455C34.3008 24.1878 34.7333 22.64 35.4885 21.3264C36.0731 20.307 36.6881 19.2996 37.369 18.3436C37.6613 17.9348 38.1563 17.6731 38.6699 17.2558C38.6902 17.6423 38.6986 17.8133 38.7105 18.0271C38.7966 17.9758 38.8811 17.9519 38.9233 17.8954C40.1432 16.286 41.3613 14.6731 42.5761 13.0586C42.7028 12.8909 42.7839 12.6104 42.9444 12.5557C44.8231 11.916 45.477 9.97992 47.0516 8.6715C45.6848 12.2222 44.3856 15.5608 41.853 18.3367C41.7212 18.0374 41.6316 17.8322 41.5168 17.5722C41.0572 18.0956 40.645 18.571 40.226 19.0397C37.3825 22.209 34.6556 25.4535 32.6907 29.2984C32.6349 29.4078 32.5724 29.5122 32.5133 29.6182C31.7784 30.9164 30.7258 32.0025 29.4992 32.8764C29.4924 32.8833 29.484 32.8901 29.4772 32.897C29.4418 32.9329 29.4029 32.9637 29.364 32.9962C29.3184 33.0372 29.2728 33.0783 29.2255 33.1159L29.3336 33.1775L29.5212 33.2835L29.6969 33.1586C31.0772 32.1752 32.1348 31.0139 32.8563 29.7089C33.8919 29.9688 34.9699 30.1211 36.0782 30.1484C36.1559 30.1501 36.2319 30.1501 36.3097 30.1518C36.3586 30.1518 36.4093 30.1536 36.4583 30.1536C36.4871 30.1536 36.5141 30.1536 36.5428 30.1536C37.3504 29.2915 38.1647 28.4415 39.1007 27.7625C40.7058 26.5994 41.2752 24.7608 42.4916 23.3959C44.541 21.0972 45.6899 18.2888 47.2088 15.6634C47.1919 18.0442 47.2577 20.437 45.5868 22.445C45.2658 22.8298 45.1036 23.3481 44.8536 23.7945C44.0257 25.2705 43.1235 26.6439 41.7955 27.7762C41.1535 28.3235 40.6129 28.9956 40.0705 29.7072C39.6836 30.2151 39.2967 30.7419 38.8693 31.2619C38.7831 31.0104 38.7392 30.8805 38.7122 30.8035C37.0919 31.6125 35.475 32.4181 33.8598 33.2254C33.8582 33.2219 33.8548 33.2168 33.8531 33.2134C33.8024 33.239 33.75 33.2647 33.6993 33.2886C33.647 33.3126 33.5946 33.3365 33.5422 33.3588L33.5709 33.4067L33.7331 33.6735L34.0102 33.5349L38.5179 31.2858L38.5483 31.3765L38.7459 31.9529L39.1312 31.4825C39.4555 31.0857 39.758 30.6855 40.0519 30.2972C40.2412 30.0458 40.4287 29.7978 40.6162 29.5584C46.8168 27.7368 51.3498 21.9439 51.3498 15.0785C51.3498 9.73363 48.6009 5.03871 44.4582 2.36029L44.4599 2.35858Z" fill="#F8F8F9"/>
</g>
<defs>
<clipPath id="clip0_763_3105">
<rect width="72.9167" height="50" fill="white"/>
</clipPath>
</defs>
</svg>
